<svg width="300" height="265" viewBox="0 0 300 265" fill="none" xmlns="http://www.w3.org/2000/svg">
<g clip-path="url(#clip0)">
<path d="M265.811 196.852L298.811 196.692L232.414 115.013L298.011 31.6942L265.012 31.8541L199.414 115.173L265.811 196.852Z" fill="#5CB152"/>
<path d="M215.812 197.094L248.811 196.934L182.415 115.255L248.012 31.9364L215.012 32.0963L149.415 115.415L215.812 197.094Z" fill="#5CB152"/>
<path d="M165.812 197.337L198.812 197.177L132.415 115.497L198.012 32.1786L165.013 32.3385L99.4156 115.657L165.812 197.337Z" fill="#5CB152"/>
<path d="M67.8132 197.811L149.812 197.414L83.4158 115.735L149.013 32.416L67.0139 32.8133L1.41677 116.132L67.8132 197.811Z" fill="#5CB152"/>
</g>
<defs>
<clipPath id="clip0">
<rect width="297" height="297" fill="white" transform="translate(299.13 262.691) rotate(179.722)"/>
</clipPath>
</defs>
</svg>
