<svg width="522" height="517" viewBox="0 0 522 517" fill="none" xmlns="http://www.w3.org/2000/svg">
<g filter="url(#filter0_d)">
<path d="M68.2399 174.57C68.2399 174.57 104.424 124.962 153.165 84.5104C201.905 44.0589 290.667 15.8089 294.505 18.7173C290.152 23.2318 245.662 30.8412 203.11 115.914C147.836 219.829 172.777 332.194 172.777 332.194L107.206 255.539L68.2399 174.57Z" fill="url(#paint0_linear)"/>
</g>
<g filter="url(#filter1_d)">
<path d="M61.2922 168.721C61.2922 168.721 97.4762 119.112 146.217 78.661C194.958 38.2095 292.802 12.1826 296.639 15.0913C292.285 19.6057 238.714 24.9905 196.162 110.064C140.888 213.979 165.829 326.345 165.829 326.345L100.259 249.69L61.2922 168.721Z" fill="#349BD1"/>
</g>
<path d="M63.9538 165.386C63.9538 165.386 100.853 116.309 144.648 74.8494C188.444 33.3896 248.253 4.67549 251.867 7.78393C248.058 10.5042 219.913 32.4667 202.342 55.1479C192.913 67.3196 196.987 77.7097 187.994 87.5538C172.781 101.612 149.591 93.412 137.225 116.193C120.302 154.596 164.544 332.03 164.544 332.03L102.052 250.733L63.9538 165.386Z" fill="#4CAFE9"/>
<g filter="url(#filter2_d)">
<path d="M104.808 188.197C104.808 188.197 124.037 188.787 155.266 172.568C170.92 164.438 181.645 144.329 205.085 126.986C274.226 75.8166 360.643 54.99 353.656 60.0725C346.669 65.155 297.152 104.491 247.168 172.572C183.23 255.237 179.48 368.372 179.48 368.372L133.575 291.463L104.808 188.197Z" fill="url(#paint1_linear)"/>
</g>
<g filter="url(#filter3_d)">
<path d="M102.483 174.243C102.483 174.243 121.712 174.834 152.941 158.614C168.594 150.485 179.32 130.376 202.759 113.033C271.901 61.8633 360.581 53.0203 353.594 58.1017C346.606 63.183 294.989 90.933 245.006 159.013C181.067 241.678 177.155 354.417 177.155 354.417L131.25 277.508L102.483 174.243Z" fill="#3C9ACB"/>
</g>
<path d="M102.483 174.253C102.483 174.253 121.712 174.844 152.941 158.624C168.594 150.495 179.32 130.386 202.759 113.043C271.901 61.8735 360.581 53.0305 353.594 58.1119C348.151 62.0654 288.239 76.3223 271.403 91.2339C254.567 106.146 246.868 135.486 237.252 147.992C227.636 160.498 204.064 162.422 191.077 183.586C178.089 204.75 193.963 236.493 175.685 257.656C157.407 278.818 177.155 354.425 177.155 354.425L131.25 277.516L102.483 174.253Z" fill="#43AFE8"/>
<g filter="url(#filter4_d)">
<path d="M270.338 497.555C270.338 497.555 205.732 370.066 97.7685 293.113C67.6907 271.146 65.9082 267.317 52.5908 241.415C42.8769 209.65 41.0431 212.632 27.842 145.818C22.9896 123.012 8.54786 108.26 10.1199 107.122C11.692 105.984 23.2025 124.796 53.1059 120.378C83.0093 115.959 109.005 138.898 111.552 162.344C114.1 185.79 100.516 188.473 131.573 261.262C147.587 303.48 188.79 349.97 188.79 349.97C188.79 349.97 205.731 374.09 226.697 402.517C247.664 430.943 270.338 497.555 270.338 497.555Z" fill="url(#paint2_linear)"/>
</g>
<path d="M268.53 494.757C256.576 475.404 232.26 406.824 159.839 334.485C142.205 316.868 119.037 308.274 97.7676 293.115C67.6897 271.148 94.7536 242.665 80.3606 212.185C65.9676 181.705 41.0409 212.63 27.841 145.816C22.9887 123.01 8.54688 108.258 10.119 107.12C11.6911 105.982 23.2014 124.794 53.1048 120.376C83.0082 115.957 109.004 138.896 111.551 162.342C114.099 185.788 107.183 187.095 138.239 259.886C154.253 302.103 188.789 349.968 188.789 349.968C188.789 349.968 219.836 392.381 226.696 402.515C233.557 412.648 255.153 448.934 268.53 494.757Z" fill="url(#paint3_linear)"/>
<path d="M316.696 299.898C316.696 297.138 315.599 294.491 313.648 292.539C311.696 290.588 309.049 289.491 306.289 289.491H290.1C282.156 289.491 274.538 292.647 268.921 298.263C263.304 303.88 260.149 311.499 260.149 319.442V341.818C260.149 343.184 260.418 344.538 260.941 345.801C261.464 347.064 262.231 348.211 263.198 349.178C264.164 350.144 265.312 350.911 266.575 351.434C267.837 351.957 269.191 352.226 270.558 352.226C271.925 352.226 273.278 351.957 274.541 351.434C275.803 350.911 276.95 350.144 277.917 349.178C278.883 348.211 279.65 347.064 280.173 345.801C280.696 344.539 280.965 343.185 280.965 341.819V319.326C280.965 318.141 281.198 316.968 281.651 315.874C282.104 314.779 282.769 313.785 283.606 312.947C284.444 312.109 285.438 311.445 286.533 310.992C287.627 310.538 288.8 310.305 289.985 310.305H306.29C309.051 310.305 311.698 309.208 313.649 307.257C315.601 305.305 316.697 302.658 316.697 299.898" fill="#1D99CF"/>
<path d="M322.016 304.943V343.304C322.016 344.392 322.23 345.469 322.646 346.475C323.063 347.48 323.673 348.393 324.443 349.163C325.212 349.932 326.126 350.542 327.131 350.958C328.136 351.375 329.214 351.589 330.302 351.589H334.546C336.743 351.588 338.85 350.715 340.403 349.162C341.957 347.608 342.83 345.501 342.83 343.304V304.943C342.83 303.855 342.615 302.778 342.199 301.772C341.783 300.767 341.172 299.854 340.403 299.084C339.633 298.315 338.72 297.704 337.715 297.288C336.709 296.872 335.632 296.657 334.544 296.657H330.302C328.104 296.657 325.996 297.53 324.443 299.084C322.889 300.638 322.016 302.746 322.016 304.943" fill="#1D99CF"/>
<path d="M211.696 321.923C211.696 329.806 214.828 337.367 220.402 342.941C225.976 348.515 233.536 351.647 241.419 351.647H245.637C247.018 351.647 248.385 351.372 249.658 350.839C250.932 350.305 252.087 349.524 253.055 348.54C254.024 347.556 254.787 346.389 255.3 345.107C255.813 343.825 256.066 342.454 256.044 341.073C255.936 338.298 254.749 335.674 252.735 333.761C250.721 331.848 248.04 330.797 245.262 330.833H241.503C240.322 330.833 239.153 330.6 238.062 330.148C236.97 329.696 235.979 329.034 235.144 328.199C234.309 327.364 233.646 326.372 233.194 325.281C232.743 324.19 232.51 323.021 232.51 321.84V310.398C232.51 310.39 232.514 310.382 232.52 310.376C232.526 310.371 232.533 310.368 232.542 310.368H245.262C248.04 310.403 250.721 309.352 252.735 307.439C254.749 305.526 255.936 302.902 256.044 300.127C256.066 298.746 255.813 297.375 255.3 296.093C254.787 294.811 254.024 293.644 253.055 292.66C252.087 291.676 250.932 290.895 249.658 290.361C248.385 289.828 247.018 289.553 245.637 289.554H232.543C232.535 289.554 232.527 289.55 232.521 289.545C232.515 289.539 232.512 289.532 232.511 289.523V279.058C232.547 276.281 231.496 273.599 229.583 271.585C227.67 269.572 225.046 268.384 222.271 268.277C220.891 268.255 219.52 268.508 218.239 269.021C216.957 269.533 215.791 270.296 214.807 271.263C213.823 272.231 213.041 273.385 212.507 274.658C211.973 275.931 211.697 277.297 211.696 278.677" fill="#1D99CF"/>
<path d="M342.34 278.288C342.34 281.044 341.245 283.687 339.297 285.636C337.348 287.585 334.705 288.68 331.949 288.681C330.584 288.681 329.233 288.412 327.972 287.89C326.711 287.368 325.565 286.602 324.6 285.637C323.634 284.672 322.869 283.526 322.346 282.265C321.824 281.004 321.555 279.652 321.555 278.288C321.555 275.531 322.651 272.888 324.6 270.938C326.549 268.989 329.193 267.895 331.949 267.895C334.705 267.895 337.348 268.99 339.297 270.939C341.245 272.888 342.34 275.532 342.34 278.288" fill="#1D99CF"/>
<path d="M378.738 331.93H370.356C370.037 331.931 369.721 331.868 369.426 331.746C369.131 331.624 368.864 331.445 368.638 331.22C368.412 330.994 368.233 330.727 368.111 330.432C367.989 330.137 367.926 329.821 367.926 329.502V321.117C367.926 318.249 369.065 315.499 371.093 313.471C373.121 311.443 375.872 310.304 378.74 310.304C381.608 310.304 384.358 311.443 386.386 313.471C388.414 315.499 389.554 318.249 389.554 321.117C389.554 323.986 388.414 326.736 386.386 328.764C384.358 330.792 381.608 331.931 378.74 331.931L378.738 331.93ZM380.185 290.187H376.367C368.731 290.187 361.407 293.221 356.007 298.62C350.607 304.019 347.573 311.342 347.573 318.978V362.001C347.573 364.761 348.669 367.408 350.621 369.36C352.573 371.311 355.219 372.408 357.979 372.408C360.74 372.408 363.387 371.312 365.339 369.36C367.291 367.408 368.387 364.761 368.388 362.001V351.589H380.183C387.82 351.589 395.144 348.555 400.543 343.155C405.943 337.755 408.977 330.431 408.977 322.794V318.978C408.977 311.341 405.943 304.018 400.543 298.618C395.143 293.218 387.819 290.184 380.183 290.184" fill="#1D99CF"/>
<path d="M318.011 204.018C318.011 201.258 316.914 198.611 314.963 196.66C313.011 194.708 310.364 193.611 307.604 193.611H291.415C283.471 193.611 275.853 196.767 270.236 202.384C264.619 208 261.464 215.619 261.464 223.562V245.938C261.464 247.305 261.733 248.658 262.256 249.921C262.779 251.184 263.546 252.331 264.512 253.298C265.479 254.264 266.627 255.031 267.89 255.554C269.152 256.077 270.506 256.346 271.873 256.346C274.633 256.346 277.28 255.249 279.232 253.297C281.183 251.345 282.28 248.698 282.28 245.938V223.446C282.28 222.261 282.513 221.088 282.967 219.994C283.42 218.9 284.084 217.905 284.922 217.068C285.76 216.23 286.754 215.566 287.849 215.112C288.943 214.659 290.116 214.426 291.301 214.426H307.607C310.367 214.426 313.014 213.329 314.965 211.377C316.917 209.425 318.013 206.778 318.013 204.018" fill="#1D99CF"/>
<path d="M322.868 209.063V247.423C322.868 249.621 323.741 251.728 325.295 253.282C326.848 254.835 328.956 255.708 331.153 255.708H335.398C337.595 255.708 339.702 254.835 341.256 253.281C342.809 251.728 343.682 249.621 343.682 247.423V209.063C343.682 207.975 343.468 206.898 343.052 205.892C342.635 204.887 342.025 203.974 341.256 203.204C340.487 202.435 339.573 201.824 338.568 201.408C337.563 200.991 336.485 200.777 335.397 200.777H331.153C330.065 200.777 328.988 200.991 327.982 201.408C326.977 201.824 326.064 202.435 325.294 203.204C324.525 203.974 323.915 204.887 323.498 205.892C323.082 206.898 322.868 207.975 322.868 209.063" fill="#1D99CF"/>
<path d="M343.669 182.409C343.669 185.165 342.575 187.808 340.626 189.757C338.678 191.706 336.035 192.801 333.279 192.802C331.914 192.802 330.562 192.533 329.301 192.011C328.039 191.489 326.893 190.724 325.928 189.758C324.963 188.793 324.197 187.647 323.675 186.386C323.152 185.125 322.883 183.774 322.883 182.409C322.883 181.044 323.152 179.692 323.675 178.431C324.197 177.17 324.963 176.024 325.928 175.059C326.893 174.094 328.039 173.328 329.301 172.806C330.562 172.284 331.914 172.015 333.279 172.016C336.035 172.016 338.678 173.111 340.626 175.06C342.575 177.009 343.669 179.653 343.669 182.409" fill="#1D99CF"/>
<path d="M502.341 232.929C502.341 233.573 502.085 234.191 501.63 234.646C501.174 235.101 500.557 235.357 499.913 235.357H491.529C488.661 235.357 485.911 234.218 483.883 232.19C481.855 230.162 480.715 227.411 480.715 224.543C480.715 221.675 481.855 218.925 483.883 216.897C485.911 214.869 488.661 213.729 491.529 213.729C494.397 213.729 497.148 214.869 499.176 216.897C501.204 218.925 502.343 221.675 502.343 224.543L502.341 232.929ZM493.206 194.303H489.39C485.608 194.303 481.863 195.048 478.37 196.495C474.876 197.942 471.702 200.063 469.028 202.737C466.354 205.412 464.233 208.586 462.786 212.08C461.339 215.574 460.594 219.319 460.594 223.1V226.917C460.595 230.698 461.34 234.442 462.787 237.936C464.234 241.429 466.355 244.603 469.029 247.277C471.703 249.95 474.877 252.071 478.371 253.518C481.864 254.965 485.608 255.71 489.39 255.71H511.94C513.261 255.71 514.569 255.449 515.79 254.944C517.01 254.438 518.119 253.697 519.054 252.763C519.988 251.829 520.729 250.72 521.234 249.499C521.74 248.278 522 246.97 522 245.649V223.1C522 219.319 521.256 215.574 519.809 212.08C518.362 208.587 516.241 205.412 513.567 202.738C510.894 200.064 507.719 197.943 504.226 196.495C500.732 195.048 496.988 194.303 493.206 194.303" fill="#1D99CF"/>
<path d="M419.276 193.684C412.299 193.938 406.466 196.337 402.081 201.512C397.515 196.423 390.888 194.124 382.89 193.684C382.164 193.639 381.427 193.614 380.681 193.611C372.581 193.627 364.818 196.856 359.096 202.589C353.374 208.323 350.16 216.092 350.16 224.192V245.006C350.127 247.512 350.982 249.948 352.575 251.882C354.168 253.816 356.395 255.123 358.86 255.57C360.351 255.817 361.877 255.736 363.334 255.334C364.79 254.931 366.141 254.217 367.294 253.24C368.446 252.263 369.373 251.047 370.008 249.676C370.644 248.305 370.973 246.813 370.974 245.302V223.734C370.974 221.265 371.955 218.897 373.701 217.152C375.446 215.406 377.814 214.425 380.283 214.425H382.875C384.069 214.425 385.25 214.66 386.353 215.116C387.456 215.573 388.458 216.242 389.302 217.086C390.145 217.93 390.815 218.932 391.272 220.034C391.728 221.137 391.964 222.319 391.964 223.512V245.01C391.93 247.515 392.786 249.951 394.379 251.885C395.971 253.819 398.198 255.126 400.663 255.574C402.155 255.821 403.682 255.74 405.138 255.337C406.595 254.935 407.947 254.22 409.1 253.243C410.253 252.265 411.179 251.049 411.814 249.678C412.45 248.306 412.779 246.813 412.78 245.302V223.995C412.78 222.738 413.027 221.494 413.508 220.333C413.989 219.172 414.694 218.117 415.583 217.228C416.471 216.34 417.526 215.635 418.687 215.154C419.848 214.673 421.093 214.426 422.349 214.426H424.46C426.929 214.426 429.297 215.407 431.043 217.153C432.788 218.899 433.769 221.266 433.769 223.735V245.302C433.77 246.813 434.099 248.305 434.734 249.676C435.37 251.047 436.296 252.264 437.448 253.241C438.601 254.218 439.952 254.933 441.408 255.336C442.865 255.738 444.391 255.819 445.882 255.573C448.347 255.125 450.574 253.818 452.167 251.884C453.76 249.95 454.615 247.514 454.582 245.009V224.195C454.582 216.094 451.369 208.324 445.646 202.591C439.924 196.857 432.161 193.628 424.06 193.612" fill="#1D99CF"/>
<defs>
<filter id="filter0_d" x="42.6691" y="15.1629" width="306.496" height="338.928" filterUnits="userSpaceOnUse" color-interpolation-filters="sRGB">
<feFlood flood-opacity="0" result="BackgroundImageFix"/>
<feColorMatrix in="SourceAlpha" type="matrix" values="0 0 0 0 0 0 0 0 0 0 0 0 0 0 0 0 0 0 127 0"/>
<feOffset dy="3.00019"/>
<feGaussianBlur stdDeviation="3.00019"/>
<feColorMatrix type="matrix" values="0 0 0 0 0 0 0 0 0 0 0 0 0 0 0 0 0 0 0.161 0"/>
<feBlend mode="normal" in2="BackgroundImageFix" result="effect1_dropShadow"/>
<feBlend mode="normal" in="SourceGraphic" in2="effect1_dropShadow" result="shape"/>
</filter>
<filter id="filter1_d" x="36.3251" y="11.3941" width="314.345" height="336.848" filterUnits="userSpaceOnUse" color-interpolation-filters="sRGB">
<feFlood flood-opacity="0" result="BackgroundImageFix"/>
<feColorMatrix in="SourceAlpha" type="matrix" values="0 0 0 0 0 0 0 0 0 0 0 0 0 0 0 0 0 0 127 0"/>
<feOffset dy="3.00019"/>
<feGaussianBlur stdDeviation="3.00019"/>
<feColorMatrix type="matrix" values="0 0 0 0 0 0 0 0 0 0 0 0 0 0 0 0 0 0 0.161 0"/>
<feBlend mode="normal" in2="BackgroundImageFix" result="effect1_dropShadow"/>
<feBlend mode="normal" in="SourceGraphic" in2="effect1_dropShadow" result="shape"/>
</filter>
<filter id="filter2_d" x="92.8081" y="47.3289" width="273.246" height="333.043" filterUnits="userSpaceOnUse" color-interpolation-filters="sRGB">
<feFlood flood-opacity="0" result="BackgroundImageFix"/>
<feColorMatrix in="SourceAlpha" type="matrix" values="0 0 0 0 0 0 0 0 0 0 0 0 0 0 0 0 0 0 127 0"/>
<feOffset/>
<feGaussianBlur stdDeviation="6"/>
<feColorMatrix type="matrix" values="0 0 0 0 0 0 0 0 0 0 0 0 0 0 0 0 0 0 0.322 0"/>
<feBlend mode="normal" in2="BackgroundImageFix" result="effect1_dropShadow"/>
<feBlend mode="normal" in="SourceGraphic" in2="effect1_dropShadow" result="shape"/>
</filter>
<filter id="filter3_d" x="90.4827" y="44.8479" width="275.5" height="321.569" filterUnits="userSpaceOnUse" color-interpolation-filters="sRGB">
<feFlood flood-opacity="0" result="BackgroundImageFix"/>
<feColorMatrix in="SourceAlpha" type="matrix" values="0 0 0 0 0 0 0 0 0 0 0 0 0 0 0 0 0 0 127 0"/>
<feOffset/>
<feGaussianBlur stdDeviation="6"/>
<feColorMatrix type="matrix" values="0 0 0 0 0 0 0 0 0 0 0 0 0 0 0 0 0 0 0.322 0"/>
<feBlend mode="normal" in2="BackgroundImageFix" result="effect1_dropShadow"/>
<feBlend mode="normal" in="SourceGraphic" in2="effect1_dropShadow" result="shape"/>
</filter>
<filter id="filter4_d" x="0.000976562" y="94.0723" width="292.337" height="422.482" filterUnits="userSpaceOnUse" color-interpolation-filters="sRGB">
<feFlood flood-opacity="0" result="BackgroundImageFix"/>
<feColorMatrix in="SourceAlpha" type="matrix" values="0 0 0 0 0 0 0 0 0 0 0 0 0 0 0 0 0 0 127 0"/>
<feOffset dx="6" dy="3"/>
<feGaussianBlur stdDeviation="8"/>
<feColorMatrix type="matrix" values="0 0 0 0 0 0 0 0 0 0 0 0 0 0 0 0 0 0 0.231 0"/>
<feBlend mode="normal" in2="BackgroundImageFix" result="effect1_dropShadow"/>
<feBlend mode="normal" in="SourceGraphic" in2="effect1_dropShadow" result="shape"/>
</filter>
<linearGradient id="paint0_linear" x1="257.684" y1="34.1247" x2="124.411" y2="183.576" gradientUnits="userSpaceOnUse">
<stop stop-color="#55F6AE"/>
<stop offset="1" stop-color="#EBFF20"/>
</linearGradient>
<linearGradient id="paint1_linear" x1="229.431" y1="59.3289" x2="229.431" y2="368.372" gradientUnits="userSpaceOnUse">
<stop stop-color="#5CFFB3"/>
<stop offset="1" stop-color="#FFF352"/>
</linearGradient>
<linearGradient id="paint2_linear" x1="52.4359" y1="143.387" x2="336.141" y2="350.976" gradientUnits="userSpaceOnUse">
<stop stop-color="#53FFAF"/>
<stop offset="1" stop-color="#E9FF4D"/>
</linearGradient>
<linearGradient id="paint3_linear" x1="128.665" y1="118.313" x2="345.955" y2="424.845" gradientUnits="userSpaceOnUse">
<stop stop-color="#32B3F6"/>
<stop offset="1" stop-color="#2078A5"/>
</linearGradient>
</defs>
</svg>
