<svg width="512" height="239" viewBox="0 0 512 239" fill="none" xmlns="http://www.w3.org/2000/svg">
<rect width="512" height="138.229" fill="#00679A"/>
<rect y="138.229" width="512" height="100.631" fill="white"/>
<path d="M99.7148 8.94855C104.914 8.94855 109.796 9.96296 114.36 11.9918C118.925 14.0206 122.92 16.8103 126.343 20.3607C129.767 23.9112 132.493 28.0323 134.522 32.7239C136.678 37.2888 137.882 42.2341 138.136 47.5598V117.554C138.136 121.232 136.868 124.338 134.332 126.874C131.796 129.284 128.816 130.488 125.392 130.488C121.715 130.488 118.608 129.284 116.072 126.874C113.663 124.338 112.458 121.232 112.458 117.554V49.0814C112.458 45.4041 111.19 42.3609 108.654 39.9516C106.245 37.4156 103.265 36.1476 99.7148 36.1476C96.1643 36.1476 93.1211 37.4156 90.585 39.9516C88.049 42.3609 86.781 45.4041 86.781 49.0814V117.554C86.781 121.232 85.513 124.338 82.9769 126.874C80.5677 129.284 77.5878 130.488 74.0374 130.488C70.4869 130.488 67.4437 129.284 64.9076 126.874C62.4984 124.338 61.2938 121.232 61.2938 117.554V49.0814C61.2938 45.4041 60.0258 42.3609 57.4897 39.9516C55.0805 37.4156 52.0372 36.1476 48.36 36.1476C44.8095 36.1476 41.7663 37.4156 39.2302 39.9516C36.821 42.3609 35.6164 45.4041 35.6164 49.0814V117.554C35.6164 121.232 34.3484 124.338 31.8123 126.874C29.4031 129.284 26.3598 130.488 22.6826 130.488C19.1321 130.488 16.0889 129.284 13.5528 126.874C11.1436 124.338 9.93896 121.232 9.93896 117.554V47.5598C9.93896 42.6145 10.89 37.796 12.792 33.1043C14.8208 28.4127 17.5471 24.2916 20.9707 20.7411C24.5212 17.1907 28.6423 14.3376 33.3339 12.182C38.0256 10.0264 43.0343 8.94855 48.36 8.94855C53.1785 8.94855 57.6799 9.83616 61.8644 11.6114C66.1757 13.3866 70.2333 15.7959 74.0374 18.8391C77.7146 15.9227 81.6455 13.5768 85.83 11.8016C90.1412 9.89956 94.7695 8.94855 99.7148 8.94855Z" fill="white"/>
<path d="M227.041 46.6088C227.041 46.6088 227.104 46.7356 227.231 46.9892V117.745C227.231 121.295 225.963 124.338 223.427 126.874C221.018 129.284 218.038 130.488 214.487 130.488C210.81 130.488 207.704 129.284 205.168 126.874C202.758 124.338 201.554 121.295 201.554 117.745V95.4909H176.637V117.745C176.637 121.295 175.369 124.338 172.833 126.874C170.297 129.284 167.19 130.488 163.513 130.488C159.963 130.488 156.983 129.284 154.573 126.874C152.164 124.338 150.96 121.295 150.96 117.745V46.6088C150.96 41.4099 151.974 36.528 154.003 31.9631C156.032 27.3982 158.758 23.404 162.182 19.9803C165.605 16.5567 169.6 13.8938 174.164 11.9918C178.856 9.96296 183.801 8.94855 189 8.94855C194.199 8.94855 199.081 9.96296 203.646 11.9918C208.338 13.8938 212.395 16.5567 215.819 19.9803C219.243 23.404 221.969 27.3982 223.998 31.9631C226.026 36.528 227.041 41.4099 227.041 46.6088ZM201.554 47.1794C201.554 43.7557 200.286 40.8393 197.75 38.43C195.34 35.894 192.424 34.626 189 34.626C185.577 34.626 182.66 35.894 180.251 38.43C177.842 40.8393 176.637 43.7557 176.637 47.1794V69.8135H201.554V47.1794Z" fill="white"/>
<path d="M301.226 103.86C304.65 103.86 307.566 105.128 309.975 107.664C312.511 110.073 313.779 113.053 313.779 116.603C313.779 120.281 312.511 123.387 309.975 125.923C307.566 128.333 304.65 129.537 301.226 129.537H253.485C249.808 129.537 246.765 128.333 244.355 125.923C241.946 123.387 240.615 120.281 240.361 116.603V20.9313C240.361 17.3809 241.629 14.401 244.165 11.9918C246.701 9.45576 249.808 8.18774 253.485 8.18774C256.782 8.18774 259.698 9.45576 262.234 11.9918C264.897 14.401 266.229 17.3809 266.229 20.9313V103.86H301.226Z" fill="white"/>
<path d="M385.843 104.811C389.393 104.811 392.373 106.079 394.782 108.615C397.318 111.151 398.586 114.131 398.586 117.554C398.586 121.232 397.318 124.338 394.782 126.874C392.373 129.284 389.393 130.488 385.843 130.488H335.249C331.952 130.488 328.972 129.284 326.309 126.874C323.773 124.338 322.505 121.232 322.505 117.554V21.8824C322.505 18.5855 323.71 15.6057 326.119 12.9428C328.528 10.28 331.571 8.94855 335.249 8.94855H385.843C389.393 8.94855 392.373 10.2166 394.782 12.7526C397.318 15.2887 398.586 18.3319 398.586 21.8824C398.586 25.5596 397.318 28.6029 394.782 31.0121C392.373 33.4213 389.393 34.626 385.843 34.626H347.802V53.0757H373.099C376.523 53.0757 379.502 54.3437 382.038 56.8797C384.575 59.4158 385.843 62.459 385.843 66.0095C385.843 69.5599 384.575 72.6032 382.038 75.1392C379.502 77.5484 376.523 78.7531 373.099 78.7531H347.802V104.811H385.843Z" fill="white"/>
<path d="M494.441 108.805C496.977 111.341 498.245 114.384 498.245 117.935C498.245 121.359 496.977 124.402 494.441 127.065C491.905 129.474 488.862 130.678 485.311 130.678C481.888 130.678 478.844 129.474 476.182 127.065L437.57 87.8828V117.745C437.57 121.295 436.302 124.338 433.766 126.874C431.357 129.284 428.314 130.488 424.637 130.488C421.086 130.488 418.043 129.284 415.507 126.874C412.971 124.338 411.703 121.295 411.703 117.745V21.8824C411.703 18.4587 412.971 15.4789 415.507 12.9428C418.043 10.4068 421.086 9.13876 424.637 9.13876C428.314 9.13876 431.357 10.4068 433.766 12.9428C436.302 15.4789 437.57 18.4587 437.57 21.8824V51.7442L476.182 12.9428C478.844 10.4068 481.888 9.13876 485.311 9.13876C488.862 9.13876 491.905 10.4068 494.441 12.9428C496.977 15.4789 498.245 18.5221 498.245 22.0726C498.245 25.4962 496.977 28.4761 494.441 31.0121L455.64 69.8135L494.441 108.805Z" fill="white"/>
<path d="M27.46 174.297C25.7615 174.297 24.3106 174.934 23.1075 176.208C21.9751 177.411 21.3735 178.932 21.3028 180.772C21.3735 182.4 21.9751 183.816 23.1075 185.019C24.3106 186.151 25.7615 186.717 27.46 186.717H34.6789C37.2975 186.717 39.81 187.248 42.2163 188.31C44.6933 189.371 46.8873 190.858 48.7982 192.769C50.709 194.609 52.2307 196.803 53.363 199.35C54.4954 201.827 55.0616 204.481 55.0616 207.312C55.0616 210.073 54.5308 212.691 53.4692 215.168C52.4076 217.645 50.9567 219.804 49.1166 221.644C47.2765 223.484 45.118 224.97 42.6409 226.103C40.1638 227.164 37.5098 227.73 34.6789 227.801H15.7825C13.6593 227.801 11.9253 227.129 10.5806 225.784C9.23593 224.369 8.56359 222.635 8.56359 220.582C8.56359 218.672 9.23593 217.008 10.5806 215.593C11.9961 214.177 13.73 213.47 15.7825 213.47H34.6789C36.3067 213.47 37.7575 212.868 39.0315 211.665C40.3054 210.462 40.9423 209.011 40.9423 207.312C40.9423 205.543 40.3054 204.092 39.0315 202.96C37.8283 201.757 36.4128 201.12 34.7851 201.049H27.46C24.7707 200.978 22.1874 200.412 19.7104 199.35C17.2333 198.289 15.0393 196.873 13.1285 195.104C11.2884 193.264 9.80212 191.105 8.66975 188.628C7.53738 186.151 6.97119 183.462 6.97119 180.56C6.97119 177.942 7.50199 175.394 8.56359 172.917C9.62519 170.44 11.076 168.246 12.9161 166.335C14.827 164.424 17.021 162.902 19.4981 161.77C21.9751 160.567 24.6291 159.965 27.46 159.965H46.3565C48.2674 159.965 49.8951 160.673 51.2398 162.088C52.5845 163.433 53.3276 165.132 53.4692 167.184C53.4692 169.236 52.7969 170.935 51.4522 172.28C50.1075 173.624 48.4089 174.297 46.3565 174.297H27.46Z" fill="#3F3F3F"/>
<path d="M95.1875 213.47C97.1692 213.47 98.8323 214.177 100.177 215.593C101.592 217.008 102.3 218.672 102.3 220.582C102.3 222.635 101.592 224.369 100.177 225.784C98.8323 227.129 97.1692 227.801 95.1875 227.801H66.949C65.1089 227.801 63.4457 227.129 61.9595 225.784C60.544 224.369 59.8363 222.635 59.8363 220.582V167.184C59.8363 165.344 60.5086 163.681 61.8533 162.194C63.198 160.708 64.8966 159.965 66.949 159.965H95.1875C97.1692 159.965 98.8323 160.673 100.177 162.088C101.592 163.504 102.3 165.202 102.3 167.184C102.3 169.236 101.592 170.935 100.177 172.28C98.8323 173.624 97.1692 174.297 95.1875 174.297H73.9556V184.594H88.0748C89.9857 184.594 91.6489 185.302 93.0643 186.717C94.4798 188.133 95.1875 189.831 95.1875 191.813C95.1875 193.795 94.4798 195.493 93.0643 196.909C91.6489 198.253 89.9857 198.926 88.0748 198.926H73.9556V213.47H95.1875Z" fill="#3F3F3F"/>
<path d="M149.006 215.593C149.714 216.301 150.21 217.115 150.493 218.035C150.847 218.884 151.023 219.769 151.023 220.689C151.023 221.609 150.847 222.529 150.493 223.449C150.21 224.298 149.714 225.076 149.006 225.784C147.591 227.129 145.892 227.801 143.911 227.801C142 227.801 140.337 227.129 138.921 225.784L121.511 208.374V220.582C121.511 222.635 120.803 224.369 119.388 225.784C117.972 227.129 116.274 227.801 114.292 227.801C112.381 227.801 110.718 227.129 109.303 225.784C107.887 224.369 107.179 222.635 107.179 220.582V184.063C107.25 180.879 107.887 177.835 109.09 174.934C110.364 171.961 112.098 169.378 114.292 167.184C116.486 164.99 119.034 163.256 121.936 161.982C124.837 160.637 127.987 159.965 131.384 159.965C134.498 159.965 137.506 160.602 140.407 161.876C143.309 163.15 145.857 164.884 148.051 167.078C150.245 169.201 151.979 171.749 153.253 174.721C154.597 177.623 155.27 180.737 155.27 184.063C155.27 189.159 153.89 193.724 151.13 197.758C148.369 201.721 144.689 204.694 140.089 206.675L149.006 215.593ZM131.384 174.297C129.968 174.297 128.659 174.544 127.456 175.04C126.324 175.535 125.297 176.243 124.377 177.163C123.457 178.012 122.75 179.039 122.254 180.242C121.759 181.445 121.511 182.719 121.511 184.063C121.511 185.337 121.759 186.576 122.254 187.779C122.82 188.982 123.528 190.044 124.377 190.964C125.297 191.884 126.359 192.627 127.562 193.193C128.765 193.689 130.039 193.936 131.384 193.936C134.002 193.936 136.267 193.016 138.178 191.176C140.16 189.265 141.151 186.894 141.151 184.063C141.151 182.719 140.867 181.445 140.301 180.242C139.806 179.039 139.098 178.012 138.178 177.163C137.329 176.243 136.303 175.535 135.099 175.04C133.896 174.544 132.658 174.297 131.384 174.297Z" fill="#3F3F3F"/>
<path d="M190.891 223.13C190.324 224.546 189.404 225.678 188.13 226.527C186.927 227.377 185.618 227.801 184.203 227.801C182.858 227.801 181.549 227.341 180.275 226.421C179.001 225.501 178.081 224.404 177.514 223.13L156.707 169.732C155.999 167.892 156.035 166.087 156.813 164.318C157.663 162.478 159.007 161.168 160.847 160.39C162.687 159.682 164.492 159.753 166.262 160.602C168.102 161.381 169.376 162.725 170.083 164.636L184.203 200.943L198.322 164.636C199.03 162.725 200.268 161.381 202.037 160.602C203.877 159.753 205.718 159.682 207.558 160.39C209.398 161.168 210.707 162.478 211.486 164.318C212.264 166.087 212.299 167.892 211.592 169.732L190.891 223.13Z" fill="#3F3F3F"/>
<path d="M252.072 213.47C254.053 213.47 255.717 214.177 257.061 215.593C258.477 217.008 259.185 218.672 259.185 220.582C259.185 222.635 258.477 224.369 257.061 225.784C255.717 227.129 254.053 227.801 252.072 227.801H223.833C221.993 227.801 220.33 227.129 218.844 225.784C217.428 224.369 216.721 222.635 216.721 220.582V167.184C216.721 165.344 217.393 163.681 218.738 162.194C220.082 160.708 221.781 159.965 223.833 159.965H252.072C254.053 159.965 255.717 160.673 257.061 162.088C258.477 163.504 259.185 165.202 259.185 167.184C259.185 169.236 258.477 170.935 257.061 172.28C255.717 173.624 254.053 174.297 252.072 174.297H230.84V184.594H244.959C246.87 184.594 248.533 185.302 249.949 186.717C251.364 188.133 252.072 189.831 252.072 191.813C252.072 193.795 251.364 195.493 249.949 196.909C248.533 198.253 246.87 198.926 244.959 198.926H230.84V213.47H252.072Z" fill="#3F3F3F"/>
<path d="M305.891 215.593C306.598 216.301 307.094 217.115 307.377 218.035C307.731 218.884 307.908 219.769 307.908 220.689C307.908 221.609 307.731 222.529 307.377 223.449C307.094 224.298 306.598 225.076 305.891 225.784C304.475 227.129 302.777 227.801 300.795 227.801C298.884 227.801 297.221 227.129 295.806 225.784L278.395 208.374V220.582C278.395 222.635 277.688 224.369 276.272 225.784C274.857 227.129 273.158 227.801 271.176 227.801C269.266 227.801 267.602 227.129 266.187 225.784C264.771 224.369 264.064 222.635 264.064 220.582V184.063C264.135 180.879 264.771 177.835 265.975 174.934C267.249 171.961 268.982 169.378 271.176 167.184C273.37 164.99 275.918 163.256 278.82 161.982C281.722 160.637 284.871 159.965 288.268 159.965C291.382 159.965 294.39 160.602 297.292 161.876C300.193 163.15 302.741 164.884 304.935 167.078C307.129 169.201 308.863 171.749 310.137 174.721C311.482 177.623 312.154 180.737 312.154 184.063C312.154 189.159 310.774 193.724 308.014 197.758C305.254 201.721 301.574 204.694 296.973 206.675L305.891 215.593ZM288.268 174.297C286.853 174.297 285.543 174.544 284.34 175.04C283.208 175.535 282.182 176.243 281.262 177.163C280.342 178.012 279.634 179.039 279.138 180.242C278.643 181.445 278.395 182.719 278.395 184.063C278.395 185.337 278.643 186.576 279.138 187.779C279.705 188.982 280.412 190.044 281.262 190.964C282.182 191.884 283.243 192.627 284.446 193.193C285.65 193.689 286.923 193.936 288.268 193.936C290.887 193.936 293.152 193.016 295.062 191.176C297.044 189.265 298.035 186.894 298.035 184.063C298.035 182.719 297.752 181.445 297.186 180.242C296.69 179.039 295.982 178.012 295.062 177.163C294.213 176.243 293.187 175.535 291.984 175.04C290.781 174.544 289.542 174.297 288.268 174.297Z" fill="#3F3F3F"/>
</svg>
