<svg width="512" height="503" viewBox="0 0 512 503" fill="none" xmlns="http://www.w3.org/2000/svg">
<g clip-path="url(#clip0)">
<g filter="url(#filter0_d)">
<path d="M76.0597 162.03C76.0597 162.03 110.823 114.37 157.649 75.5075C204.476 36.6445 289.752 9.5039 293.439 12.2981C289.257 16.6353 246.515 23.9458 205.633 105.678C152.53 205.512 176.491 313.464 176.491 313.464L113.496 239.82L76.0597 162.03Z" fill="url(#paint0_linear)"/>
</g>
<g filter="url(#filter1_d)">
<path d="M69.385 156.411C69.385 156.411 104.148 108.751 150.975 69.8879C197.801 31.0249 291.803 6.02015 295.489 8.81458C291.307 13.1517 239.84 18.3251 198.958 100.057C145.855 199.892 169.817 307.845 169.817 307.845L106.821 234.2L69.385 156.411Z" fill="#349BD1"/>
</g>
<path d="M71.942 153.207C71.942 153.207 107.392 106.058 149.468 66.2262C191.543 26.3946 249.004 -1.19191 252.476 1.79445C248.817 4.40793 221.777 25.5079 204.896 47.2984C195.837 58.9921 199.751 68.9741 191.111 78.4317C176.495 91.9374 154.217 84.0598 142.335 105.946C126.077 142.841 168.582 313.307 168.582 313.307L108.544 235.203L71.942 153.207Z" fill="#4CAFE9"/>
<g filter="url(#filter2_d)">
<path d="M111.192 175.122C111.192 175.122 129.666 175.69 159.668 160.107C174.707 152.297 185.011 132.978 207.53 116.316C273.957 67.1557 356.98 47.1469 350.267 52.0299C343.555 56.9128 295.982 94.704 247.961 160.112C186.534 239.53 182.931 348.222 182.931 348.222L138.83 274.333L111.192 175.122Z" fill="url(#paint1_linear)"/>
</g>
<g filter="url(#filter3_d)">
<path d="M108.958 161.717C108.958 161.717 127.432 162.284 157.434 146.702C172.473 138.892 182.777 119.572 205.296 102.91C271.723 53.7503 356.92 45.2546 350.207 50.1364C343.494 55.0182 293.904 81.6784 245.884 147.085C184.456 226.503 180.697 334.815 180.697 334.815L136.595 260.926L108.958 161.717Z" fill="#3C9ACB"/>
</g>
<path d="M108.958 161.727C108.958 161.727 127.432 162.294 157.434 146.712C172.473 138.902 182.777 119.582 205.296 102.92C271.723 53.7603 356.92 45.2646 350.207 50.1464C344.978 53.9446 287.419 67.6417 271.244 81.9677C255.07 96.2937 247.673 124.482 238.435 136.497C229.196 148.511 206.55 150.36 194.072 170.693C181.595 191.026 196.845 221.522 179.285 241.854C161.725 262.185 180.697 334.823 180.697 334.823L136.595 260.934L108.958 161.727Z" fill="#43AFE8"/>
<g filter="url(#filter4_d)">
<path d="M270.221 472.332C270.221 472.332 208.153 349.849 104.429 275.919C75.5321 254.814 73.8196 251.136 61.0252 226.251C51.6927 195.733 49.9309 198.599 37.2482 134.409C32.5865 112.497 18.7119 98.3256 20.2222 97.2319C21.7326 96.1382 32.791 114.212 61.52 109.967C90.2491 105.722 115.223 127.76 117.671 150.285C120.119 172.811 107.069 175.388 136.906 245.319C152.291 285.878 191.876 330.543 191.876 330.543C191.876 330.543 208.151 353.716 228.294 381.026C248.437 408.336 270.221 472.332 270.221 472.332Z" fill="url(#paint2_linear)"/>
</g>
<path d="M268.484 469.644C257 451.051 233.639 385.164 164.062 315.666C147.12 298.741 124.862 290.484 104.428 275.921C75.5311 254.816 101.532 227.452 87.7044 198.169C73.8766 168.886 49.9289 198.597 37.2473 134.407C32.5855 112.495 18.7109 98.3236 20.2212 97.2299C21.7316 96.1363 32.7899 114.21 61.519 109.965C90.2481 105.72 115.223 127.758 117.67 150.283C120.118 172.809 113.473 174.065 143.31 243.997C158.695 284.556 191.875 330.541 191.875 330.541C191.875 330.541 221.702 371.288 228.293 381.024C234.884 390.76 255.633 425.621 268.484 469.644Z" fill="url(#paint3_linear)"/>
<path d="M314.759 282.437C314.758 279.785 313.705 277.242 311.83 275.367C309.955 273.492 307.412 272.439 304.76 272.438H289.207C281.575 272.438 274.256 275.47 268.86 280.866C263.464 286.263 260.432 293.582 260.432 301.213V322.71C260.432 324.023 260.691 325.324 261.193 326.537C261.696 327.75 262.432 328.853 263.361 329.781C264.29 330.71 265.392 331.446 266.605 331.949C267.819 332.451 269.119 332.71 270.432 332.709C271.745 332.709 273.045 332.451 274.259 331.948C275.472 331.446 276.574 330.709 277.502 329.781C278.431 328.853 279.167 327.75 279.67 326.537C280.172 325.324 280.431 324.024 280.431 322.711V301.102C280.43 299.963 280.655 298.836 281.09 297.785C281.525 296.734 282.164 295.778 282.968 294.973C283.773 294.169 284.728 293.53 285.78 293.095C286.831 292.659 287.958 292.435 289.096 292.435H304.762C307.413 292.435 309.956 291.381 311.831 289.506C313.706 287.631 314.76 285.088 314.76 282.437" fill="#1D99CF"/>
<path d="M319.869 287.284V324.138C319.869 325.183 320.075 326.218 320.475 327.184C320.875 328.15 321.462 329.027 322.201 329.766C322.94 330.506 323.818 331.092 324.784 331.492C325.75 331.892 326.785 332.097 327.83 332.097H331.908C334.018 332.097 336.043 331.258 337.535 329.766C339.027 328.273 339.866 326.249 339.866 324.138V287.284C339.866 286.238 339.66 285.203 339.26 284.237C338.86 283.271 338.274 282.394 337.535 281.655C336.795 280.915 335.918 280.329 334.952 279.929C333.986 279.529 332.951 279.323 331.905 279.323H327.83C325.719 279.323 323.694 280.162 322.201 281.655C320.708 283.148 319.869 285.173 319.869 287.284" fill="#1D99CF"/>
<path d="M213.882 303.597C213.882 311.171 216.891 318.434 222.246 323.789C227.601 329.145 234.865 332.153 242.438 332.153H246.49C247.817 332.153 249.13 331.89 250.353 331.377C251.577 330.865 252.686 330.114 253.617 329.169C254.548 328.223 255.281 327.102 255.774 325.87C256.267 324.639 256.509 323.322 256.488 321.995C256.385 319.329 255.245 316.808 253.31 314.97C251.375 313.132 248.799 312.123 246.13 312.157H242.519C241.384 312.157 240.26 311.933 239.212 311.499C238.164 311.065 237.211 310.429 236.409 309.626C235.607 308.824 234.97 307.872 234.536 306.823C234.102 305.775 233.879 304.651 233.879 303.517V292.524C233.879 292.517 233.882 292.509 233.888 292.504C233.894 292.498 233.901 292.495 233.909 292.495H246.13C248.799 292.529 251.375 291.52 253.31 289.682C255.245 287.844 256.385 285.323 256.488 282.657C256.509 281.33 256.267 280.013 255.774 278.782C255.281 277.55 254.548 276.429 253.617 275.483C252.686 274.538 251.577 273.787 250.353 273.275C249.13 272.762 247.817 272.499 246.49 272.499H233.91C233.902 272.499 233.895 272.496 233.889 272.49C233.884 272.485 233.88 272.478 233.88 272.47V262.416C233.914 259.747 232.905 257.171 231.067 255.236C229.229 253.301 226.708 252.161 224.041 252.058C222.716 252.037 221.399 252.279 220.168 252.772C218.937 253.265 217.816 253.997 216.87 254.927C215.925 255.857 215.174 256.965 214.661 258.188C214.148 259.411 213.883 260.723 213.882 262.049" fill="#1D99CF"/>
<path d="M339.396 261.675C339.396 264.323 338.344 266.862 336.472 268.734C334.6 270.607 332.061 271.659 329.413 271.66C328.102 271.66 326.803 271.402 325.592 270.9C324.38 270.398 323.279 269.663 322.352 268.736C321.425 267.808 320.689 266.708 320.187 265.496C319.685 264.285 319.427 262.986 319.427 261.675C319.427 259.027 320.48 256.487 322.352 254.614C324.225 252.742 326.765 251.69 329.413 251.69C332.061 251.691 334.6 252.743 336.472 254.615C338.344 256.488 339.396 259.027 339.396 261.675" fill="#1D99CF"/>
<path d="M374.364 313.211H366.312C366.005 313.212 365.701 313.151 365.418 313.034C365.135 312.917 364.878 312.745 364.661 312.529C364.444 312.312 364.272 312.055 364.155 311.772C364.037 311.489 363.977 311.185 363.977 310.879V302.823C363.977 300.068 365.071 297.425 367.02 295.477C368.968 293.528 371.611 292.434 374.366 292.434C377.121 292.434 379.764 293.528 381.712 295.477C383.661 297.425 384.755 300.068 384.755 302.823C384.755 305.578 383.661 308.221 381.712 310.169C379.764 312.118 377.121 313.212 374.366 313.212L374.364 313.211ZM375.755 273.108H372.086C364.75 273.108 357.714 276.022 352.526 281.209C347.338 286.396 344.423 293.431 344.423 300.768V342.101C344.423 344.753 345.476 347.296 347.351 349.171C349.226 351.046 351.769 352.099 354.421 352.099C357.073 352.099 359.616 351.046 361.491 349.171C363.366 347.296 364.42 344.753 364.42 342.101V332.098H375.752C383.089 332.098 390.125 329.183 395.313 323.995C400.501 318.807 403.416 311.771 403.416 304.434V300.768C403.415 293.431 400.501 286.395 395.313 281.207C390.125 276.019 383.089 273.105 375.752 273.104" fill="#1D99CF"/>
<path d="M316.022 190.322C316.022 187.67 314.968 185.127 313.093 183.252C311.218 181.378 308.675 180.324 306.024 180.324H290.47C282.839 180.324 275.52 183.355 270.123 188.752C264.727 194.148 261.695 201.467 261.695 209.099V230.595C261.695 231.909 261.954 233.209 262.457 234.422C262.959 235.636 263.696 236.738 264.624 237.666C265.553 238.595 266.656 239.331 267.869 239.834C269.082 240.336 270.383 240.595 271.696 240.595C274.348 240.594 276.891 239.541 278.766 237.666C280.641 235.79 281.694 233.247 281.694 230.595V208.987C281.694 207.849 281.918 206.722 282.354 205.67C282.789 204.619 283.428 203.664 284.233 202.859C285.037 202.054 285.993 201.416 287.044 200.981C288.096 200.545 289.223 200.321 290.361 200.321H306.026C308.678 200.321 311.221 199.267 313.096 197.392C314.971 195.517 316.024 192.974 316.024 190.322" fill="#1D99CF"/>
<path d="M320.688 195.169V232.023C320.688 234.134 321.527 236.159 323.02 237.651C324.512 239.144 326.537 239.983 328.648 239.983H332.726C334.837 239.982 336.861 239.144 338.354 237.651C339.846 236.158 340.685 234.134 340.685 232.023V195.169C340.685 194.124 340.479 193.089 340.079 192.123C339.679 191.157 339.093 190.28 338.354 189.54C337.615 188.801 336.737 188.215 335.771 187.815C334.806 187.415 333.771 187.209 332.725 187.209H328.648C327.602 187.209 326.567 187.415 325.602 187.815C324.636 188.215 323.758 188.801 323.019 189.54C322.28 190.28 321.694 191.157 321.294 192.123C320.894 193.089 320.688 194.124 320.688 195.169" fill="#1D99CF"/>
<path d="M340.673 169.561C340.673 172.209 339.621 174.749 337.749 176.621C335.877 178.493 333.338 179.546 330.69 179.546C329.379 179.547 328.08 179.288 326.868 178.787C325.657 178.285 324.556 177.55 323.628 176.623C322.701 175.695 321.965 174.595 321.463 173.383C320.961 172.171 320.703 170.873 320.703 169.561C320.703 168.25 320.961 166.951 321.463 165.74C321.965 164.528 322.701 163.427 323.628 162.5C324.556 161.573 325.657 160.838 326.868 160.336C328.08 159.834 329.379 159.576 330.69 159.577C333.338 159.577 335.877 160.629 337.749 162.502C339.621 164.374 340.673 166.914 340.673 169.561" fill="#1D99CF"/>
<path d="M493.113 218.098C493.113 218.717 492.867 219.31 492.43 219.747C491.992 220.185 491.399 220.431 490.78 220.431H482.726C479.97 220.431 477.328 219.336 475.38 217.388C473.431 215.439 472.337 212.797 472.337 210.041C472.337 207.286 473.431 204.643 475.38 202.695C477.328 200.747 479.97 199.652 482.726 199.652C485.481 199.652 488.124 200.747 490.072 202.695C492.02 204.643 493.115 207.286 493.115 210.041L493.113 218.098ZM484.337 180.988H480.67C477.037 180.988 473.44 181.704 470.083 183.094C466.727 184.485 463.677 186.523 461.108 189.092C458.539 191.661 456.501 194.711 455.111 198.068C453.721 201.424 453.006 205.022 453.006 208.655V212.321C453.006 215.954 453.722 219.551 455.112 222.908C456.502 226.264 458.54 229.313 461.109 231.882C463.678 234.451 466.728 236.488 470.084 237.878C473.44 239.268 477.038 239.984 480.67 239.984H502.335C503.604 239.984 504.861 239.734 506.033 239.248C507.206 238.762 508.272 238.05 509.169 237.153C510.067 236.255 510.779 235.19 511.264 234.017C511.75 232.844 512 231.588 512 230.318V208.655C512 205.022 511.285 201.425 509.895 198.068C508.505 194.711 506.467 191.661 503.898 189.092C501.33 186.523 498.28 184.485 494.924 183.095C491.567 181.704 487.97 180.989 484.337 180.988" fill="#1D99CF"/>
<path d="M413.31 180.394C406.607 180.638 401.003 182.942 396.79 187.915C392.403 183.025 386.037 180.816 378.353 180.394C377.655 180.35 376.948 180.327 376.231 180.324C368.449 180.339 360.99 183.441 355.493 188.95C349.996 194.458 346.908 201.922 346.908 209.704V229.701C346.876 232.108 347.698 234.448 349.229 236.306C350.759 238.164 352.898 239.42 355.267 239.85C356.699 240.087 358.165 240.009 359.565 239.623C360.964 239.236 362.262 238.549 363.369 237.611C364.477 236.672 365.366 235.504 365.977 234.187C366.587 232.87 366.904 231.436 366.905 229.984V209.264C366.905 206.892 367.847 204.617 369.524 202.94C371.202 201.263 373.477 200.32 375.849 200.32H378.339C379.485 200.32 380.621 200.546 381.68 200.984C382.739 201.423 383.702 202.066 384.513 202.877C385.323 203.688 385.967 204.65 386.405 205.709C386.844 206.769 387.07 207.904 387.07 209.051V229.704C387.038 232.111 387.86 234.451 389.39 236.309C390.921 238.168 393.06 239.423 395.428 239.853C396.861 240.09 398.328 240.013 399.728 239.626C401.127 239.239 402.426 238.553 403.533 237.614C404.641 236.675 405.531 235.506 406.141 234.188C406.752 232.871 407.068 231.436 407.069 229.984V209.514C407.069 208.307 407.307 207.111 407.769 205.996C408.231 204.881 408.908 203.867 409.762 203.013C410.615 202.16 411.629 201.483 412.744 201.021C413.86 200.559 415.055 200.321 416.263 200.321H418.29C420.662 200.321 422.937 201.264 424.614 202.941C426.292 204.618 427.234 206.893 427.234 209.265V229.984C427.235 231.436 427.551 232.87 428.161 234.187C428.772 235.504 429.661 236.673 430.768 237.612C431.876 238.551 433.174 239.237 434.573 239.624C435.972 240.011 437.439 240.089 438.871 239.852C441.24 239.422 443.379 238.166 444.909 236.308C446.439 234.45 447.262 232.11 447.229 229.703V209.706C447.23 201.924 444.142 194.459 438.645 188.951C433.147 183.442 425.689 180.34 417.906 180.325" fill="#1D99CF"/>
</g>
<defs>
<filter id="filter0_d" x="51.2574" y="8.76544" width="294.931" height="326.089" filterUnits="userSpaceOnUse" color-interpolation-filters="sRGB">
<feFlood flood-opacity="0" result="BackgroundImageFix"/>
<feColorMatrix in="SourceAlpha" type="matrix" values="0 0 0 0 0 0 0 0 0 0 0 0 0 0 0 0 0 0 127 0"/>
<feOffset dy="3.00019"/>
<feGaussianBlur stdDeviation="3.00019"/>
<feColorMatrix type="matrix" values="0 0 0 0 0 0 0 0 0 0 0 0 0 0 0 0 0 0 0.161 0"/>
<feBlend mode="normal" in2="BackgroundImageFix" result="effect1_dropShadow"/>
<feBlend mode="normal" in="SourceGraphic" in2="effect1_dropShadow" result="shape"/>
</filter>
<filter id="filter1_d" x="45.1627" y="5.14483" width="302.472" height="324.091" filterUnits="userSpaceOnUse" color-interpolation-filters="sRGB">
<feFlood flood-opacity="0" result="BackgroundImageFix"/>
<feColorMatrix in="SourceAlpha" type="matrix" values="0 0 0 0 0 0 0 0 0 0 0 0 0 0 0 0 0 0 127 0"/>
<feOffset dy="3.00019"/>
<feGaussianBlur stdDeviation="3.00019"/>
<feColorMatrix type="matrix" values="0 0 0 0 0 0 0 0 0 0 0 0 0 0 0 0 0 0 0.161 0"/>
<feBlend mode="normal" in2="BackgroundImageFix" result="effect1_dropShadow"/>
<feBlend mode="normal" in="SourceGraphic" in2="effect1_dropShadow" result="shape"/>
</filter>
<filter id="filter2_d" x="99.1919" y="39.3154" width="263.458" height="320.906" filterUnits="userSpaceOnUse" color-interpolation-filters="sRGB">
<feFlood flood-opacity="0" result="BackgroundImageFix"/>
<feColorMatrix in="SourceAlpha" type="matrix" values="0 0 0 0 0 0 0 0 0 0 0 0 0 0 0 0 0 0 127 0"/>
<feOffset/>
<feGaussianBlur stdDeviation="6"/>
<feColorMatrix type="matrix" values="0 0 0 0 0 0 0 0 0 0 0 0 0 0 0 0 0 0 0.322 0"/>
<feBlend mode="normal" in2="BackgroundImageFix" result="effect1_dropShadow"/>
<feBlend mode="normal" in="SourceGraphic" in2="effect1_dropShadow" result="shape"/>
</filter>
<filter id="filter3_d" x="96.9578" y="36.9319" width="265.623" height="309.883" filterUnits="userSpaceOnUse" color-interpolation-filters="sRGB">
<feFlood flood-opacity="0" result="BackgroundImageFix"/>
<feColorMatrix in="SourceAlpha" type="matrix" values="0 0 0 0 0 0 0 0 0 0 0 0 0 0 0 0 0 0 127 0"/>
<feOffset/>
<feGaussianBlur stdDeviation="6"/>
<feColorMatrix type="matrix" values="0 0 0 0 0 0 0 0 0 0 0 0 0 0 0 0 0 0 0.322 0"/>
<feBlend mode="normal" in2="BackgroundImageFix" result="effect1_dropShadow"/>
<feBlend mode="normal" in="SourceGraphic" in2="effect1_dropShadow" result="shape"/>
</filter>
<filter id="filter4_d" x="10.1079" y="84.1841" width="282.113" height="407.148" filterUnits="userSpaceOnUse" color-interpolation-filters="sRGB">
<feFlood flood-opacity="0" result="BackgroundImageFix"/>
<feColorMatrix in="SourceAlpha" type="matrix" values="0 0 0 0 0 0 0 0 0 0 0 0 0 0 0 0 0 0 127 0"/>
<feOffset dx="6" dy="3"/>
<feGaussianBlur stdDeviation="8"/>
<feColorMatrix type="matrix" values="0 0 0 0 0 0 0 0 0 0 0 0 0 0 0 0 0 0 0.231 0"/>
<feBlend mode="normal" in2="BackgroundImageFix" result="effect1_dropShadow"/>
<feBlend mode="normal" in="SourceGraphic" in2="effect1_dropShadow" result="shape"/>
</filter>
<linearGradient id="paint0_linear" x1="258.064" y1="27.1005" x2="130.025" y2="170.682" gradientUnits="userSpaceOnUse">
<stop stop-color="#55F6AE"/>
<stop offset="1" stop-color="#EBFF20"/>
</linearGradient>
<linearGradient id="paint1_linear" x1="230.921" y1="51.3154" x2="230.921" y2="348.222" gradientUnits="userSpaceOnUse">
<stop stop-color="#5CFFB3"/>
<stop offset="1" stop-color="#FFF352"/>
</linearGradient>
<linearGradient id="paint2_linear" x1="60.8763" y1="132.073" x2="333.44" y2="331.51" gradientUnits="userSpaceOnUse">
<stop stop-color="#53FFAF"/>
<stop offset="1" stop-color="#E9FF4D"/>
</linearGradient>
<linearGradient id="paint3_linear" x1="134.112" y1="107.984" x2="342.869" y2="402.478" gradientUnits="userSpaceOnUse">
<stop stop-color="#32B3F6"/>
<stop offset="1" stop-color="#2078A5"/>
</linearGradient>
<clipPath id="clip0">
<rect width="512" height="502.494" fill="white"/>
</clipPath>
</defs>
</svg>
