<svg width="512" height="322" viewBox="0 0 512 322" fill="none" xmlns="http://www.w3.org/2000/svg">
<path d="M201.359 160.2C220.41 132.357 239.447 112.919 257.014 99.6216C295.929 70.1646 339.138 102.7 354.936 148.879C355.764 151.3 352.011 153.902 349.811 152.595C328.771 140.086 281.733 131.835 206.431 166.011C202.749 167.682 199.076 163.537 201.359 160.2Z" fill="#C5EDFD"/>
<path d="M170.383 165.49C169.327 130.043 173.596 101.978 180.408 80.1931C194.978 33.6026 249.061 34.9642 288.769 63.3568C290.851 64.8451 289.31 69.1443 286.76 69.3591C262.005 71.4447 218.008 92.6562 176.008 166.804C174.514 169.443 170.473 168.521 170.383 165.49Z" fill="#A4DBF0"/>
<path d="M149.94 180.367C129.85 155.324 117.188 132.516 109.634 112.63C92.2988 66.9966 135.661 34.6472 184.426 32.4323C186.983 32.3162 188.428 36.6486 186.556 38.3932C168.897 54.8496 148.114 96.7269 158.688 176.371C159.353 181.381 153.102 184.309 149.94 180.367Z" fill="#7DCCEA"/>
<path d="M145.158 214.616C113.853 207.489 89.757 197.495 71.4777 186.615C29.5307 161.647 43.3859 109.351 80.2063 77.3013C82.1365 75.6212 85.9616 78.1164 85.5798 80.6466C81.9782 104.514 91.7324 150.236 149.526 206.047C153.161 209.558 150.086 215.738 145.158 214.616Z" fill="#2DC1D1"/>
<path d="M176.15 241.4C148.266 257.313 123.753 266.239 102.929 270.58C55.1405 280.541 29.9947 232.64 35.4578 184.132C35.7442 181.589 40.2496 180.841 41.6789 182.964C55.1611 202.986 93.2594 230.081 173.576 232.133C178.629 232.262 180.54 238.895 176.15 241.4Z" fill="#10989B"/>
<path d="M256.892 245.558C255.296 245.558 253.867 245.48 252.606 245.326C251.37 245.172 250.225 244.901 249.169 244.515C248.14 244.103 247.187 243.563 246.312 242.893C245.437 242.224 244.587 241.375 243.764 240.345C242.502 241.169 240.971 241.98 239.169 242.778C237.393 243.576 235.501 244.284 233.493 244.901C231.511 245.519 229.503 246.021 227.47 246.407C225.436 246.793 223.544 246.986 221.794 246.986C219.709 246.986 217.868 246.78 216.272 246.369C214.676 245.931 213.26 245.365 212.025 244.67L214.959 238.144C216.478 239.045 218.756 239.496 221.794 239.496C223.312 239.496 224.934 239.354 226.659 239.071C228.383 238.762 230.082 238.376 231.756 237.913C233.454 237.449 235.038 236.922 236.505 236.329C237.998 235.712 239.246 235.094 240.25 234.476C239.092 232.159 237.985 229.946 236.929 227.835C235.9 225.698 234.896 223.626 233.918 221.618C232.965 219.611 232.026 217.654 231.099 215.749C230.172 213.819 229.233 211.901 228.28 209.996L233.609 206.676L245.077 230.19C245.875 231.812 246.634 233.138 247.355 234.167C248.101 235.197 248.912 236.008 249.787 236.6C250.688 237.192 251.692 237.604 252.799 237.835C253.932 238.041 255.296 238.144 256.892 238.144V245.558Z" fill="#2DC1D1"/>
<path d="M271.178 232.816C271.178 231.117 270.869 229.006 270.251 226.483C269.659 223.961 268.784 220.846 267.626 217.139L273.804 216.599C274.447 218.632 274.988 220.421 275.425 221.966C275.863 223.485 276.211 224.862 276.468 226.097C276.751 227.333 276.944 228.491 277.047 229.572C277.176 230.628 277.24 231.709 277.24 232.816C277.24 234.515 276.828 236.136 276.005 237.681C275.181 239.225 274.01 240.59 272.491 241.774C270.998 242.932 269.196 243.859 267.085 244.554C265 245.223 262.671 245.558 260.097 245.558H256.93C256.004 245.558 255.103 245.403 254.228 245.094V238.144H260.097C261.77 238.144 263.288 238.003 264.653 237.72C266.017 237.411 267.175 237.012 268.128 236.523C269.106 236.033 269.852 235.467 270.367 234.824C270.908 234.18 271.178 233.511 271.178 232.816ZM264.962 263.396H257.239V255.674H264.962V263.396ZM276.352 263.396H268.63V255.674H276.352V263.396Z" fill="#2DC1D1"/>
<path d="M332.609 245.558C329.572 245.558 327.114 245.3 325.235 244.785C323.356 244.271 321.785 243.537 320.524 242.585C320.138 244.541 319.404 246.369 318.323 248.067C317.242 249.766 315.916 251.349 314.346 252.817C312.776 254.31 311.013 255.687 309.056 256.948C307.1 258.235 305.054 259.445 302.917 260.578C300.781 261.71 298.605 262.779 296.392 263.782C294.178 264.786 292.028 265.739 289.943 266.64L287.434 260.037C289.467 259.033 291.565 258.029 293.727 257.025C295.89 256.047 297.988 255.03 300.021 253.975C302.055 252.945 303.972 251.851 305.774 250.693C307.602 249.56 309.185 248.363 310.524 247.102C311.888 245.815 312.969 244.438 313.767 242.971C314.565 241.503 314.964 239.92 314.964 238.221C314.964 236.934 314.9 235.647 314.771 234.36C314.642 233.073 314.462 231.838 314.23 230.654C314.024 229.444 313.767 228.298 313.458 227.217C313.175 226.136 312.866 225.158 312.531 224.283L318.285 222.043L320.756 230.692C321.065 231.773 321.425 232.764 321.837 233.665C322.249 234.566 322.866 235.351 323.69 236.021C324.514 236.69 325.621 237.218 327.011 237.604C328.427 237.964 330.293 238.144 332.609 238.144V245.558Z" fill="#2DC1D1"/>
<path d="M385.315 231.928H380.488C379.51 231.928 378.609 232.031 377.785 232.237C376.962 232.417 376.189 232.674 375.469 233.009C374.748 233.344 374.066 233.743 373.422 234.206C372.804 234.643 372.199 235.107 371.607 235.596C370.99 236.085 370.204 236.677 369.252 237.372C368.3 238.041 367.218 238.749 366.009 239.496C364.799 240.242 363.499 240.976 362.109 241.697C360.745 242.417 359.329 243.061 357.862 243.627C356.394 244.193 354.914 244.657 353.421 245.017C351.954 245.378 350.538 245.558 349.174 245.558H332.609C331.683 245.558 330.782 245.403 329.907 245.094V238.144H332.609H349.174C350.796 238.144 352.495 237.848 354.271 237.256C356.073 236.664 357.81 235.956 359.483 235.133C361.182 234.283 362.74 233.395 364.155 232.468C365.571 231.542 366.717 230.744 367.592 230.074C367.231 229.946 366.858 229.791 366.472 229.611C366.086 229.405 365.751 229.225 365.468 229.07L352.147 221.271C351.349 220.808 350.706 220.499 350.216 220.344C349.753 220.19 349.316 220.113 348.904 220.113C348.569 220.113 348.183 220.216 347.745 220.421C347.333 220.602 346.999 220.833 346.741 221.116L341.722 226.638L338.015 223.047L342.764 215.942C343.485 214.887 344.425 214.089 345.583 213.549C346.767 212.982 347.874 212.699 348.904 212.699C349.727 212.699 350.641 212.866 351.645 213.201C352.675 213.51 353.807 214.025 355.043 214.746L368.325 222.545C369.072 222.983 369.87 223.343 370.719 223.626C371.569 223.884 372.547 224.077 373.654 224.205C374.761 224.334 376.035 224.424 377.476 224.476C378.944 224.501 380.643 224.514 382.573 224.514H385.315V231.928ZM363.344 201.231H355.622V193.509H363.344V201.231Z" fill="#2DC1D1"/>
<path d="M464.507 245.558C464.044 245.558 463.297 245.558 462.268 245.558C461.238 245.558 460.093 245.545 458.831 245.519C457.596 245.493 456.334 245.468 455.047 245.442C453.786 245.416 452.692 245.365 451.765 245.287C451.148 247.141 450.234 248.994 449.024 250.848C447.84 252.727 446.205 254.567 444.12 256.369C442.035 258.197 439.435 259.986 436.321 261.736C433.232 263.512 429.486 265.25 425.085 266.949L423 259.96C426.449 258.647 429.422 257.334 431.919 256.021C434.442 254.734 436.578 253.447 438.329 252.16C440.105 250.873 441.546 249.599 442.653 248.338C443.76 247.076 444.622 245.815 445.24 244.554C443.232 244.219 441.25 243.769 439.294 243.202C437.363 242.636 435.639 241.915 434.12 241.04C432.601 240.139 431.378 239.045 430.452 237.758C429.525 236.471 429.062 234.952 429.062 233.202C429.062 232.121 429.216 230.95 429.525 229.688C429.86 228.401 430.31 227.114 430.876 225.827C431.443 224.54 432.099 223.304 432.846 222.12C433.618 220.911 434.429 219.842 435.278 218.916C436.153 217.989 437.054 217.255 437.981 216.715C438.908 216.148 439.834 215.865 440.761 215.865C442.1 215.865 443.322 216.161 444.429 216.753C445.536 217.345 446.54 218.143 447.441 219.147C448.342 220.125 449.127 221.284 449.796 222.622C450.491 223.961 451.07 225.377 451.534 226.87C451.997 228.363 452.345 229.907 452.576 231.503C452.808 233.073 452.924 234.592 452.924 236.059V238.028C453.722 238.054 454.7 238.08 455.858 238.106C457.017 238.106 458.175 238.119 459.333 238.144C460.492 238.144 461.547 238.144 462.499 238.144C463.452 238.144 464.121 238.144 464.507 238.144V245.558ZM446.9 237.681C446.926 237.449 446.939 237.179 446.939 236.87C446.965 236.561 446.978 236.291 446.978 236.059C446.978 234.643 446.836 233.189 446.553 231.696C446.295 230.177 445.909 228.8 445.394 227.565C444.88 226.303 444.236 225.274 443.464 224.476C442.692 223.678 441.791 223.279 440.761 223.279C440.092 223.279 439.41 223.626 438.715 224.321C438.045 224.99 437.44 225.84 436.9 226.87C436.359 227.874 435.909 228.955 435.548 230.113C435.214 231.246 435.047 232.275 435.047 233.202C435.047 233.871 435.368 234.45 436.012 234.939C436.681 235.429 437.569 235.853 438.676 236.214C439.783 236.574 441.044 236.87 442.46 237.102C443.901 237.333 445.382 237.526 446.9 237.681Z" fill="#2DC1D1"/>
<path d="M491.69 245.558C489.811 245.558 488.138 245.468 486.67 245.287C485.229 245.107 483.942 244.837 482.809 244.477C481.702 244.116 480.737 243.679 479.913 243.164C479.115 242.649 478.433 242.044 477.867 241.349C476.631 242.713 475.023 243.756 473.04 244.477C471.084 245.197 468.703 245.558 465.897 245.558H464.507C463.581 245.558 462.68 245.403 461.804 245.094V238.144H464.507H465.897C469.115 238.144 471.483 237.565 473.002 236.407C474.546 235.248 475.319 233.717 475.319 231.812V223.24H481.265V231.812C481.265 232.79 481.394 233.678 481.651 234.476C481.908 235.248 482.41 235.905 483.157 236.445C483.929 236.986 484.984 237.411 486.323 237.72C487.687 238.003 489.476 238.144 491.69 238.144V245.558ZM472.539 263.396H464.816V255.674H472.539V263.396ZM483.929 263.396H476.207V255.674H483.929V263.396Z" fill="#2DC1D1"/>
<path d="M505.938 232.816C505.938 231.117 505.629 229.006 505.011 226.483C504.419 223.961 503.544 220.846 502.385 217.139L508.563 216.599C509.207 218.632 509.747 220.421 510.185 221.966C510.623 223.485 510.97 224.862 511.228 226.097C511.511 227.333 511.704 228.491 511.807 229.572C511.935 230.628 512 231.709 512 232.816C512 234.515 511.588 236.136 510.764 237.681C509.94 239.225 508.769 240.59 507.251 241.774C505.758 242.932 503.956 243.859 501.845 244.554C499.76 245.223 497.43 245.558 494.856 245.558H491.69C490.763 245.558 489.862 245.403 488.987 245.094V238.144H491.69H494.856C496.529 238.144 498.048 238.003 499.412 237.72C500.777 237.411 501.935 237.012 502.887 236.523C503.866 236.033 504.612 235.467 505.127 234.824C505.667 234.18 505.938 233.511 505.938 232.816ZM505.436 204.706H497.713V196.984H505.436V204.706Z" fill="#2DC1D1"/>
</svg>
