<svg width="67" height="100" viewBox="0 0 67 100" fill="none" xmlns="http://www.w3.org/2000/svg">
<path d="M66.667 16.667C66.6541 12.2506 64.8939 8.0188 61.7711 4.89593C58.6482 1.77306 54.4164 0.012927 50 0L16.667 0C12.2506 0.012927 8.0188 1.77306 4.89593 4.89593C1.77306 8.0188 0.012927 12.2506 0 16.667V83.333C0.012927 87.7494 1.77306 91.9812 4.89593 95.1041C8.0188 98.2269 12.2506 99.9871 16.667 100H50C54.4164 99.9871 58.6482 98.2269 61.7711 95.1041C64.8939 91.9812 66.6541 87.7494 66.667 83.333V16.667ZM37.5 91.667H29.167C28.0732 91.6501 27.0298 91.2036 26.2623 90.4241C25.4948 89.6446 25.0646 88.5945 25.0646 87.5005C25.0646 86.4065 25.4948 85.3564 26.2623 84.5769C27.0298 83.7974 28.0732 83.3509 29.167 83.334H37.5C38.0526 83.3254 38.6014 83.4269 39.1144 83.6324C39.6274 83.838 40.0944 84.1435 40.4882 84.5312C40.882 84.919 41.1947 85.3812 41.4082 85.891C41.6216 86.4007 41.7316 86.9479 41.7316 87.5005C41.7316 88.0532 41.6216 88.6003 41.4082 89.11C41.1947 89.6198 40.882 90.082 40.4882 90.4697C40.0944 90.8575 39.6274 91.163 39.1144 91.3686C38.6014 91.5741 38.0526 91.6756 37.5 91.667ZM58.333 70.833C58.3665 71.3889 58.2818 71.9455 58.0843 72.4662C57.8868 72.9869 57.5811 73.4598 57.1874 73.8536C56.7936 74.2475 56.3208 74.5533 55.8002 74.7509C55.2795 74.9485 54.7229 75.0334 54.167 75H12.5C11.944 75.0335 11.3873 74.9487 10.8665 74.7512C10.3457 74.5537 9.87281 74.2479 9.47897 73.854C9.08513 73.4602 8.77934 72.9873 8.58179 72.4665C8.38425 71.9457 8.29945 71.389 8.333 70.833V20.833C8.2996 20.2771 8.3845 19.7205 8.58211 19.1998C8.77972 18.6792 9.08554 18.2064 9.47937 17.8126C9.87319 17.4189 10.3461 17.1132 10.8668 16.9157C11.3875 16.7182 11.9441 16.6335 12.5 16.667H54.167C54.723 16.6334 55.2797 16.7182 55.8005 16.9158C56.3213 17.1133 56.7942 17.4191 57.188 17.813C57.5819 18.2068 57.8877 18.6797 58.0852 19.2005C58.2828 19.7213 58.3675 20.278 58.334 20.834L58.333 70.833Z" fill="#ADADAD"/>
</svg>
