<svg width="63" height="100" viewBox="0 0 63 100" fill="none" xmlns="http://www.w3.org/2000/svg">
<g clip-path="url(#clip0)">
<path d="M31.068 0C26.9759 0.0111453 22.9261 0.828379 19.1499 2.40502C15.3738 3.98166 11.9452 6.28682 9.06012 9.18881C6.17503 12.0908 3.88993 15.5328 2.33537 19.3181C0.780813 23.1034 -0.0127578 27.1579 -1.20205e-06 31.25C-1.20205e-06 61.094 31.068 100 31.068 100C31.068 100 62.136 61.094 62.136 31.25C62.1488 27.1579 61.3552 23.1034 59.8006 19.3181C58.2461 15.5328 55.961 12.0908 53.0759 9.18881C50.1908 6.28682 46.7622 3.98166 42.9861 2.40502C39.2099 0.828379 35.1601 0.0111453 31.068 0V0ZM31.068 46.406C28.1406 46.424 25.2739 45.5723 22.8312 43.9587C20.3886 42.3452 18.4802 40.0426 17.348 37.343C16.2158 34.6434 15.9109 31.6683 16.4719 28.7952C17.0329 25.922 18.4345 23.2801 20.499 21.2047C22.5636 19.1292 25.1979 17.7136 28.0681 17.1374C30.9383 16.5612 33.9149 16.8504 36.6205 17.9682C39.3261 19.0861 41.6387 20.9823 43.2652 23.4163C44.8916 25.8503 45.7585 28.7126 45.756 31.64C45.7619 33.5742 45.3866 35.4906 44.6515 37.2797C43.9164 39.0688 42.836 40.6954 41.4719 42.0668C40.1079 43.4381 38.4869 44.5271 36.7018 45.2717C34.9166 46.0162 33.0022 46.4017 31.068 46.406V46.406Z" fill="#D92646"/>
</g>
<defs>
<clipPath id="clip0">
<rect width="62.135" height="100" fill="white"/>
</clipPath>
</defs>
</svg>
