<svg width="110" height="68" viewBox="0 0 110 68" fill="none" xmlns="http://www.w3.org/2000/svg">
<g clip-path="url(#clip0)">
<path fill-rule="evenodd" clip-rule="evenodd" d="M68.533 37.248L107.383 66.062C105.844 67.2774 103.936 67.9311 101.975 67.915H7.89999C5.93554 67.9371 4.02238 67.288 2.47699 66.075L41.342 37.248L54.939 47.54L68.533 37.248ZM54.94 40.748L2.5 1.853C4.03703 0.639455 5.94169 -0.0141273 7.89999 -3.35183e-06H101.971C103.937 -0.0233223 105.853 0.625859 107.4 1.84L54.94 40.748ZM109.879 62.383L71.946 34.493L109.878 5.945V62.384L109.879 62.383ZM0 62.384V5.964L37.932 34.493L0 62.384Z" fill="#ADADAD"/>
</g>
<defs>
<clipPath id="clip0">
<rect width="109.878" height="67.915" fill="white"/>
</clipPath>
</defs>
</svg>
