<svg width="100" height="100" viewBox="0 0 100 100" fill="none" xmlns="http://www.w3.org/2000/svg">
<path d="M1.00471e-05 78.977C0.0554406 80.6667 0.293499 82.3455 0.710017 83.984C1.05948 85.6473 1.55851 87.2755 2.20101 88.849C3.19568 91.2163 6.08401 93.7257 10.866 96.377C15.9723 99.3743 21.9399 100.563 27.805 99.751C29.1849 99.5481 30.5494 99.2514 31.889 98.863C33.4044 98.437 34.529 98.0937 35.263 97.833C35.997 97.5723 37.311 97.087 39.205 96.377C41.099 95.667 42.259 95.241 42.685 95.099C47.0268 93.5839 51.1936 91.6076 55.114 89.204C61.9437 84.8421 68.2474 79.7068 73.9 73.9C79.7054 68.2472 84.8394 61.9435 89.2 55.114C91.6036 51.1936 93.5799 47.0268 95.095 42.685C95.237 42.259 95.663 41.099 96.373 39.205C97.083 37.311 97.5684 35.997 97.829 35.263C98.0897 34.5297 98.433 33.405 98.859 31.889C99.2474 30.5494 99.5441 29.1849 99.747 27.805C100.559 21.9399 99.3704 15.9723 96.373 10.866C93.7217 6.08399 91.2123 3.19567 88.845 2.201C87.2716 1.55815 85.6433 1.05878 83.98 0.708997C82.3415 0.292479 80.6627 0.0544284 78.973 -0.00100217C78.467 -0.0255946 77.9609 0.046706 77.482 0.212003C76.63 0.496003 75.3753 2.296 73.718 5.612C73.1973 6.51133 72.487 7.78967 71.587 9.447C70.687 11.1043 69.8584 12.6077 69.101 13.957C68.3437 15.3063 67.6103 16.573 66.901 17.757C66.759 17.9463 66.3447 18.5383 65.658 19.533C65.0872 20.3343 64.5768 21.177 64.131 22.054C63.8127 22.6819 63.6417 23.3741 63.631 24.078C63.631 25.0247 64.3057 26.2083 65.655 27.629C67.0082 29.0535 68.4802 30.3602 70.055 31.535C71.605 32.6888 73.075 33.9464 74.455 35.299C75.8043 36.625 76.479 37.714 76.479 38.566C76.4533 39.1157 76.3332 39.657 76.124 40.166C75.9488 40.6612 75.7486 41.1471 75.524 41.622C75.358 41.9553 75.0267 42.522 74.53 43.322C74.0333 44.122 73.761 44.5717 73.713 44.671C67.1339 57.0265 57.0205 67.1399 44.665 73.719C44.5703 73.7663 44.1207 74.0387 43.316 74.536C42.5113 75.0333 41.9447 75.3647 41.616 75.53C41.1411 75.7545 40.6552 75.9548 40.16 76.13C39.651 76.3392 39.1097 76.4593 38.56 76.485C37.708 76.485 36.619 75.8103 35.293 74.461C33.9404 73.081 32.6829 71.611 31.529 70.061C30.3542 68.4862 29.0475 67.0142 27.623 65.661C26.2023 64.3117 25.0187 63.637 24.072 63.637C23.3681 63.6477 22.6759 63.8187 22.048 64.137C21.171 64.5828 20.3283 65.0932 19.527 65.664C18.533 66.3507 17.941 66.765 17.751 66.907C16.567 67.617 15.3003 68.3503 13.951 69.107C12.6017 69.8637 11.0983 70.6923 9.441 71.593C7.78367 72.4923 6.50535 73.2027 5.60601 73.724C2.29135 75.3813 0.491337 76.636 0.206004 77.488C0.0433332 77.9667 -0.0265751 78.4721 1.00471e-05 78.977Z" fill="#ADADAD"/>
</svg>
