<?xml version="1.0" encoding="UTF-8"?>
<svg width="582px" height="424px" viewBox="0 0 582 424" version="1.1" xmlns="http://www.w3.org/2000/svg" xmlns:xlink="http://www.w3.org/1999/xlink">
    <!-- Generator: Sketch 53 (72520) - https://sketchapp.com -->
    <title>Group 41</title>
    <desc>Created with Sketch.</desc>
    <defs>
        <path d="M35,30 L459,30 C461.761424,30 464,32.2385763 464,35 L464,305 C464,307.761424 461.761424,310 459,310 L35,310 C32.2385763,310 30,307.761424 30,305 L30,35 C30,32.2385763 32.2385763,30 35,30 Z" id="path-1"></path>
        <filter x="-17.6%" y="-16.6%" width="135.3%" height="154.6%" filterUnits="objectBoundingBox" id="filter-2">
            <feOffset dx="0" dy="30" in="SourceAlpha" result="shadowOffsetOuter1"></feOffset>
            <feGaussianBlur stdDeviation="20.5" in="shadowOffsetOuter1" result="shadowBlurOuter1"></feGaussianBlur>
            <feComposite in="shadowBlurOuter1" in2="SourceAlpha" operator="out" result="shadowBlurOuter1"></feComposite>
            <feColorMatrix values="0 0 0 0 0   0 0 0 0 0   0 0 0 0 0  0 0 0 0.07 0" type="matrix" in="shadowBlurOuter1"></feColorMatrix>
        </filter>
        <linearGradient x1="29.1883455%" y1="0%" x2="70.227654%" y2="98.5969388%" id="linearGradient-3">
            <stop stop-color="#81FBB8" offset="0%"></stop>
            <stop stop-color="#28C76F" offset="100%"></stop>
        </linearGradient>
        <linearGradient x1="0%" y1="29.7520661%" x2="98.5969388%" y2="69.6797521%" id="linearGradient-4">
            <stop stop-color="#81FBB8" offset="0%"></stop>
            <stop stop-color="#28C76F" offset="100%"></stop>
        </linearGradient>
        <linearGradient x1="11.0726644%" y1="0%" x2="87.8349869%" y2="98.5969388%" id="linearGradient-5">
            <stop stop-color="#81FBB8" offset="0%"></stop>
            <stop stop-color="#28C76F" offset="100%"></stop>
        </linearGradient>
        <linearGradient x1="50%" y1="0%" x2="50%" y2="100%" id="linearGradient-6">
            <stop stop-color="#D7CBFF" offset="0%"></stop>
            <stop stop-color="#5F58FF" offset="100%"></stop>
        </linearGradient>
        <path d="M35,30 L459,30 C461.761424,30 464,32.2385763 464,35 L464,68 L30,68 L30,35 C30,32.2385763 32.2385763,30 35,30 Z" id="path-7"></path>
        <filter x="-0.1%" y="-1.3%" width="100.2%" height="105.3%" filterUnits="objectBoundingBox" id="filter-8">
            <feOffset dx="0" dy="1" in="SourceAlpha" result="shadowOffsetOuter1"></feOffset>
            <feColorMatrix values="0 0 0 0 0   0 0 0 0 0   0 0 0 0 0  0 0 0 0.0564424819 0" type="matrix" in="shadowOffsetOuter1"></feColorMatrix>
        </filter>
        <linearGradient x1="0%" y1="40.9096007%" x2="100%" y2="59.0903993%" id="linearGradient-9">
            <stop stop-color="#FFD3A5" offset="0%"></stop>
            <stop stop-color="#FD6585" offset="100%"></stop>
        </linearGradient>
        <path d="M348,109 L423,109 C424.656854,109 426,110.343146 426,112 L426,275 C426,276.656854 424.656854,278 423,278 L348,278 C346.343146,278 345,276.656854 345,275 L345,112 C345,110.343146 346.343146,109 348,109 Z" id="path-10"></path>
        <filter x="-26.5%" y="-6.8%" width="153.1%" height="125.4%" filterUnits="objectBoundingBox" id="filter-11">
            <feOffset dx="0" dy="10" in="SourceAlpha" result="shadowOffsetOuter1"></feOffset>
            <feGaussianBlur stdDeviation="5.5" in="shadowOffsetOuter1" result="shadowBlurOuter1"></feGaussianBlur>
            <feComposite in="shadowBlurOuter1" in2="SourceAlpha" operator="out" result="shadowBlurOuter1"></feComposite>
            <feColorMatrix values="0 0 0 0 0   0 0 0 0 0   0 0 0 0 0  0 0 0 0.02 0" type="matrix" in="shadowBlurOuter1"></feColorMatrix>
        </filter>
        <polygon id="path-12" points="0.407927897 0.404775921 11.0634657 0.404775921 11.0634657 5.25465839 0.407927897 5.25465839"></polygon>
        <polygon id="path-14" points="0.755846877 0.400991279 14.7138298 0.400991279 14.7138298 5.25465839 0.755846877 5.25465839"></polygon>
        <polygon id="path-16" points="0.588514712 0.0863988581 33.767622 0.0863988581 33.767622 24.492313 0.588514712 24.492313"></polygon>
        <linearGradient x1="95.6551065%" y1="22.946068%" x2="66.0519584%" y2="54.6672299%" id="linearGradient-18">
            <stop stop-color="#FFD8BA" offset="0%"></stop>
            <stop stop-color="#FFAF84" offset="100%"></stop>
        </linearGradient>
        <linearGradient x1="64.3254581%" y1="13.3819886%" x2="47.5881997%" y2="79.6519531%" id="linearGradient-19">
            <stop stop-color="#FFD8BA" offset="0%"></stop>
            <stop stop-color="#FFAF84" offset="100%"></stop>
        </linearGradient>
        <linearGradient x1="50%" y1="4.66943642%" x2="50%" y2="100%" id="linearGradient-20">
            <stop stop-color="#687E9E" offset="0%"></stop>
            <stop stop-color="#293549" offset="100%"></stop>
        </linearGradient>
        <linearGradient x1="6.40831296%" y1="44.954323%" x2="43.5655464%" y2="61.4992899%" id="linearGradient-21">
            <stop stop-color="#FFD8BA" offset="0%"></stop>
            <stop stop-color="#FFAF84" offset="100%"></stop>
        </linearGradient>
        <linearGradient x1="42.2477528%" y1="15.955363%" x2="42.2477528%" y2="96.8485133%" id="linearGradient-22">
            <stop stop-color="#00C6FB" offset="0%"></stop>
            <stop stop-color="#005BEA" offset="100%"></stop>
        </linearGradient>
        <linearGradient x1="60.3369236%" y1="5.96585225%" x2="32.4354574%" y2="75.6322431%" id="linearGradient-23">
            <stop stop-color="#FCBD64" offset="0%"></stop>
            <stop stop-color="#F78834" offset="100%"></stop>
        </linearGradient>
        <linearGradient x1="0%" y1="4.29899771%" x2="100%" y2="95.7010023%" id="linearGradient-24">
            <stop stop-color="#ABDCFF" offset="0%"></stop>
            <stop stop-color="#0396FF" offset="100%"></stop>
        </linearGradient>
        <path d="M0,0 L51,0 C73.09139,-4.05812251e-15 91,17.90861 91,40 L91,47 C91,69.09139 73.09139,87 51,87 L40,87 C17.90861,87 2.705415e-15,69.09139 0,47 L0,0 Z" id="path-25"></path>
        <filter x="-84.6%" y="-46.0%" width="275.8%" height="283.9%" filterUnits="objectBoundingBox" id="filter-26">
            <feOffset dx="3" dy="40" in="SourceAlpha" result="shadowOffsetOuter1"></feOffset>
            <feGaussianBlur stdDeviation="20" in="shadowOffsetOuter1" result="shadowBlurOuter1"></feGaussianBlur>
            <feColorMatrix values="0 0 0 0 0.231372549   0 0 0 0 0.501960784   0 0 0 0 0.956862745  0 0 0 0.269474638 0" type="matrix" in="shadowBlurOuter1"></feColorMatrix>
        </filter>
        <linearGradient x1="14.5524094%" y1="16.9322153%" x2="82.7722259%" y2="83.014308%" id="linearGradient-27">
            <stop stop-color="#F9769D" offset="0%"></stop>
            <stop stop-color="#BB6DF7" offset="100%"></stop>
        </linearGradient>
        <path d="M40,6.39488462e-14 L53,6.39488462e-14 C75.09139,5.98907237e-14 93,17.90861 93,40 L93,90 L40,90 C17.90861,90 -1.39403132e-13,72.09139 -1.42108547e-13,50 L-1.49213975e-13,40 C-1.5191939e-13,17.90861 17.90861,6.80069687e-14 40,6.39488462e-14 Z" id="path-28"></path>
        <filter x="-77.4%" y="-50.0%" width="261.3%" height="266.7%" filterUnits="objectBoundingBox" id="filter-29">
            <feOffset dx="3" dy="30" in="SourceAlpha" result="shadowOffsetOuter1"></feOffset>
            <feGaussianBlur stdDeviation="20" in="shadowOffsetOuter1" result="shadowBlurOuter1"></feGaussianBlur>
            <feColorMatrix values="0 0 0 0 0.450980392   0 0 0 0 0.0431372549   0 0 0 0 0.811764706  0 0 0 0.2 0" type="matrix" in="shadowBlurOuter1"></feColorMatrix>
        </filter>
    </defs>
    <g id="Page-1" stroke="none" stroke-width="1" fill="none" fill-rule="evenodd">
        <g id="Home-Page-Design-for-Dokan" transform="translate(-920.000000, -5101.000000)">
            <g id="Dokan-Overview" transform="translate(378.000000, 4411.000000)">
                <g id="2" transform="translate(85.000000, 699.000000)">
                    <g id="Group-41" transform="translate(493.000000, 0.000000)">
                        <g id="Mask-Copy-32">
                            <use fill="black" fill-opacity="1" filter="url(#filter-2)" xlink:href="#path-1"></use>
                            <path stroke-opacity="0.0705955616" stroke="#979797" stroke-width="0.5" d="M35,30.25 C32.3766474,30.25 30.25,32.3766474 30.25,35 L30.25,305 C30.25,307.623353 32.3766474,309.75 35,309.75 L459,309.75 C461.623353,309.75 463.75,307.623353 463.75,305 L463.75,35 C463.75,32.3766474 461.623353,30.25 459,30.25 L35,30.25 Z" stroke-linejoin="square" fill="#F5F5F5" fill-rule="evenodd"></path>
                        </g>
                        <g id="Group-10" transform="translate(13.000000, 263.000000)">
                            <path d="M0.351412999,0.155509183 C0.233208019,0.103849403 0.119539122,0.0513948578 0,0 C0.52111586,0.224918734 0.86078841,3.09216897 0.954978834,3.54571535 C1.70743491,7.17143712 2.02042462,10.8872324 2.11568236,14.5831585 C2.21174058,18.3132595 1.77547616,21.7739349 3.51839925,25.2340804 C4.94513069,28.0666259 7.47439706,30.4156888 10.7131601,30.9031452 C11.5411287,31.0279234 12.3845732,31.0284533 13.2146764,30.9259285 C13.855865,30.8469817 14.6456771,30.7778371 15.216423,30.4707926 C15.9261865,30.089305 16.6247433,29.6516539 17.214434,29.097967 C17.5695826,28.7644303 17.8478847,28.2751195 18.0995038,27.8629009 C18.659043,26.946271 19.0806319,25.9467205 19.397624,24.9238568 C20.1255319,22.5750588 20.1919721,20.0567108 19.6065506,17.6697641 C18.7847192,14.3182365 16.7592248,11.3921736 14.3204133,8.98668231 C10.3849612,5.10478101 5.38913314,2.36018963 0.351412999,0.155509183" id="Fill-1" fill="url(#linearGradient-3)"></path>
                            <path d="M5.12927585,36.6129821 C5.08584122,36.6236631 5.04369164,36.6331021 5,36.64428 C5.19044415,36.5963395 5.90056182,37.2871286 6.02392645,37.3882257 C7.00981548,38.1950156 7.89547074,39.1168128 8.71713059,40.0781049 C9.54675775,41.0483393 10.1730903,42.0573235 11.3936291,42.6157175 C12.3926256,43.0730143 13.5882345,43.1736147 14.5764366,42.6338504 C14.8290771,42.4959906 15.0591008,42.3216167 15.2634234,42.1231484 C15.7609941,41.6390248 16.0308543,41.3603246 15.997186,40.6402248 C15.9637747,39.9310545 15.6993118,39.2084709 15.3341011,38.5974169 C13.3286548,35.2460594 8.37787785,35.8119053 5.12927585,36.6129821" id="Fill-4" fill="url(#linearGradient-4)"></path>
                            <path d="M32.7674459,25.0464956 C28.3713892,25.9039604 23.4360452,27.3561359 20.3251271,30.7922126 C18.6590762,32.6323018 17.7559326,35.0489901 18.057522,37.5332592 C18.2998222,39.5268919 19.0351153,40.9915023 20.9946337,41.6732571 C21.4835657,41.8432904 21.9938852,41.9538525 22.5109728,41.9884538 C24.5341118,42.1236154 26.369096,41.0574612 27.5998186,39.5590603 C29.1028921,37.7281621 29.2875276,35.6107215 29.8292513,33.4029929 C30.366102,31.2152682 31.0372329,29.0445739 31.9625761,26.9852527 C32.078447,26.7276348 32.6559066,25.0654182 33,25 C32.9209479,25.0151381 32.8456859,25.0310872 32.7674459,25.0464956" id="Fill-6" fill="url(#linearGradient-5)"></path>
                            <path d="M24.2768214,66.8188395 L11.9076793,67 C9.92739034,67 8.30766526,65.4111111 8.30766526,63.4691358 L6,48.5308642 C6,46.5888889 7.61972508,45 9.59973281,45 L26.3999859,45 C28.3799937,45 30,46.5888889 30,48.5308642 L27.8768355,63.2879753 C27.8768355,65.2299506 26.2568291,66.8188395 24.2768214,66.8188395" id="Fill-8" fill="url(#linearGradient-6)"></path>
                        </g>
                        <g id="Mask-Copy-32">
                            <use fill="black" fill-opacity="1" filter="url(#filter-8)" xlink:href="#path-7"></use>
                            <use fill="#FFFFFF" fill-rule="evenodd" xlink:href="#path-7"></use>
                        </g>
                        <rect id="Rectangle" fill="#FFFFFF" fill-rule="nonzero" transform="translate(92.600572, 212.220786) rotate(-28.000000) translate(-92.600572, -212.220786) " x="63.1005724" y="181.220786" width="59" height="62" rx="3"></rect>
                        <rect id="Rectangle" fill="#E0E0E0" fill-rule="nonzero" transform="translate(92.082718, 212.289456) rotate(-28.000000) translate(-92.082718, -212.289456) " x="82.5827178" y="202.289456" width="19" height="20" rx="3"></rect>
                        <path d="M159.983966,119.916922 L277.153438,99.2567829 L302.434235,127.450139 L302.434408,127.451124 L145.869672,155.057711 L159.983966,119.916922 Z M271.232438,133.59981 C272.427711,140.490386 267.822208,147.055402 260.928564,148.270938 L254.619885,149.383328 C247.727224,150.59869 241.153118,146.00494 239.919589,139.121109 C241.11486,146.011686 236.508377,152.576876 229.615715,153.792238 L223.307037,154.904628 C216.414375,156.11999 209.839288,151.526413 208.605756,144.642583 C209.80103,151.533159 205.195528,158.098176 198.302866,159.313538 L191.994188,160.425928 C185.101526,161.64129 178.526439,157.047713 177.292907,150.163883 C178.488181,157.054459 173.882679,163.619476 166.990017,164.834838 L160.681339,165.947228 C153.775867,167.164849 147.19103,162.553234 145.973756,155.649731 L145.869394,155.057862 L177.182341,149.536544 L208.495091,144.015262 L239.809023,138.49377 L271.121774,132.972488 L302.434721,127.45117 L302.539084,128.04304 C303.756357,134.946542 299.146885,141.532017 292.241413,142.749638 L285.932734,143.862028 C279.040073,145.07739 272.465968,140.48364 271.232438,133.59981 Z" id="Combined-Shape" fill="url(#linearGradient-9)" transform="translate(224.301716, 132.699500) rotate(9.000000) translate(-224.301716, -132.699500) "></path>
                        <g id="Rectangle">
                            <use fill="black" fill-opacity="1" filter="url(#filter-11)" xlink:href="#path-10"></use>
                            <path stroke-opacity="0.13" stroke="#979797" stroke-width="0.5" d="M348,109.25 C346.481217,109.25 345.25,110.481217 345.25,112 L345.25,275 C345.25,276.518783 346.481217,277.75 348,277.75 L423,277.75 C424.518783,277.75 425.75,276.518783 425.75,275 L425.75,112 C425.75,110.481217 424.518783,109.25 423,109.25 L348,109.25 Z" stroke-linejoin="square" fill="#FFFFFF" fill-rule="evenodd"></path>
                        </g>
                        <path d="M361,122 L410,122 C411.656854,122 413,123.343146 413,125 L413,169 C413,170.656854 411.656854,172 410,172 L361,172 C359.343146,172 358,170.656854 358,169 L358,125 C358,123.343146 359.343146,122 361,122 Z" id="Rectangle" fill="#EFEFEF" fill-rule="nonzero"></path>
                        <path d="M361,209 L410,209 C411.656854,209 413,210.343146 413,212 L413,260 C413,261.656854 411.656854,263 410,263 L361,263 C359.343146,263 358,261.656854 358,260 L358,212 C358,210.343146 359.343146,209 361,209 Z" id="Rectangle-Copy-35" fill="#EFEFEF" fill-rule="nonzero"></path>
                        <path d="M360.5,178 L402.5,178 C403.880712,178 405,179.119288 405,180.5 L405,180.5 C405,181.880712 403.880712,183 402.5,183 L360.5,183 C359.119288,183 358,181.880712 358,180.5 L358,180.5 C358,179.119288 359.119288,178 360.5,178 Z" id="Rectangle-Copy-34" fill="#EFEFEF" fill-rule="nonzero"></path>
                        <path d="M360.5,188 L392.5,188 C393.880712,188 395,189.119288 395,190.5 L395,190.5 C395,191.880712 393.880712,193 392.5,193 L360.5,193 C359.119288,193 358,191.880712 358,190.5 L358,190.5 C358,189.119288 359.119288,188 360.5,188 Z" id="Rectangle-Copy-34" fill="#F1F1F1" fill-rule="nonzero"></path>
                        <rect id="Rectangle-Copy-29" fill="#FFFFFF" fill-rule="nonzero" x="153" y="170" width="41" height="37" rx="3"></rect>
                        <rect id="Rectangle-Copy-29" fill="#E6E6E6" fill-rule="nonzero" x="166" y="182" width="15" height="13" rx="3"></rect>
                        <rect id="Rectangle-Copy-32" fill="#FFFFFF" fill-rule="nonzero" x="153" y="214" width="41" height="37" rx="3"></rect>
                        <rect id="Rectangle-Copy-30" fill="#FFFFFF" fill-rule="nonzero" x="202" y="170" width="41" height="37" rx="3"></rect>
                        <rect id="Rectangle-Copy-33" fill="#FFFFFF" fill-rule="nonzero" x="202" y="214" width="41" height="37" rx="3"></rect>
                        <rect id="Rectangle-Copy-31" fill="#FFFFFF" fill-rule="nonzero" x="251" y="170" width="41" height="37" rx="3"></rect>
                        <g id="Group-43" transform="translate(118.000000, 195.000000)">
                            <g id="Group-4" transform="translate(19.619798, 134.869565)">
                                <mask id="mask-13" fill="white">
                                    <use xlink:href="#path-12"></use>
                                </mask>
                                <g id="Clip-3"></g>
                                <path d="M5.10516693,0.834702484 C5.3241973,0.865354658 5.53179235,0.945926087 5.69892396,1.08342298 C6.85916918,2.04239814 8.29650101,3.13361553 9.33623555,3.52683913 C11.0911174,4.19242919 12.1114999,5.25474596 9.37933791,5.25474596 C6.64805557,5.25474596 5.81943465,5.16891988 4.99521192,5.1496528 C3.77691046,5.12075217 4.32492621,5.25474596 1.28401057,5.25474596 C-0.212257143,5.25474596 0.489695613,2.45664037 1.31215906,1.09918696 C1.56197683,0.685820497 1.64642227,0.342516149 2.14693746,0.414329814 L5.10516693,0.834702484 Z" id="Fill-2" fill="#D84835" mask="url(#mask-13)"></path>
                            </g>
                            <polygon id="Fill-5" fill="#D6DDEA" points="30.6255899 136.95295 32.174636 129.80136 35.5832412 130.165683 33.26451 137.464403"></polygon>
                            <g id="Group-9" transform="translate(27.536558, 134.869565)">
                                <mask id="mask-15" fill="white">
                                    <use xlink:href="#path-14"></use>
                                </mask>
                                <g id="Clip-8"></g>
                                <path d="M6.20471699,0.834702484 C6.42374736,0.865354658 6.63134241,0.945926087 6.79847402,1.08342298 C7.95871924,2.04239814 11.4887147,3.7580441 13.2998936,4.01902547 C15.2412592,4.29752236 15.3406585,5.25474596 12.6084965,5.25474596 C9.87721417,5.25474596 7.87339415,5.0121559 6.65597233,5.04280807 C5.43767087,5.07346025 4.97322092,5.25474596 1.97716693,5.25474596 C-0.321332508,5.25474596 1.17933341,2.33578323 2.00267649,0.978329814 C2.25249426,0.564963354 2.74597233,0.342516149 3.24648751,0.414329814 L6.20471699,0.834702484 Z" id="Fill-7" fill="#F25F46" mask="url(#mask-15)"></path>
                            </g>
                            <g id="Group-12" transform="translate(33.694038, 7.006211)">
                                <mask id="mask-17" fill="white">
                                    <use xlink:href="#path-16"></use>
                                </mask>
                                <g id="Clip-11"></g>
                                <path d="M32.5088571,0.693965217 C31.6415321,1.36043106 30.6827244,1.91129441 29.8752148,2.36407081 C29.329838,2.44289068 28.745757,2.68460497 28.2584364,3.00951801 C27.6514848,3.41237516 24.7134871,5.47044969 23.921811,8.08902112 C23.5347694,8.91225093 23.1389314,9.73548075 22.7255006,10.541195 C22.6375366,10.7163503 22.5495726,10.8915056 22.4616085,11.0666609 C22.3736445,11.2330584 22.2944769,11.3906981 22.2153093,11.5483379 C21.8018785,12.3277789 21.3972441,13.0809466 20.9926097,13.7903255 C19.4532396,16.5402634 18.0546119,18.6246112 17.4036783,19.0362261 C15.0286502,20.227282 7.8683802,19.4303255 3.54934758,18.4757292 C2.23868391,18.1954807 0.936816648,19.0187106 0.646535433,20.3236174 C0.356254218,21.6285242 1.18311586,22.9246733 2.50257593,23.2136795 C3.8132396,23.5018099 8.62487064,24.492313 13.1462205,24.492313 C15.574027,24.492313 17.9226659,24.2033068 19.593982,23.3625615 C21.3356693,22.4867851 23.0157818,18.9136174 24.2648706,15.6469714 C24.5463555,14.927959 24.8014511,14.2194559 25.0301575,13.5626236 C25.2060855,13.0634311 25.3732171,12.5992696 25.5227559,12.1701391 C25.5315523,12.1342323 25.5491451,12.0992012 25.5579415,12.065046 C25.8042407,11.3031205 26.0241507,10.6813193 26.1736895,10.2609466 C26.4806839,9.41144348 26.666288,9.06113292 26.9477728,8.42181615 C27.2204612,7.78249938 29.8681777,7.77286584 30.950135,7.04597143 C32.0760742,6.30243727 31.9441282,4.39324472 31.4867154,3.14964224 C31.4541687,3.06118882 31.40227,2.99813292 31.358288,2.92544348 C31.5623645,2.79670435 31.7690799,2.66183478 31.9819528,2.51995901 C33.5345174,1.49004596 34.816153,-1.07860621 32.5088571,0.693965217" id="Fill-10" fill="url(#linearGradient-18)" mask="url(#mask-17)"></path>
                            </g>
                            <path d="M38.2494301,12.8672571 C38.2494301,7.83854907 34.4924875,3.81085342 29.4415944,3.81085342 C24.3907012,3.81085342 20.2959768,7.88759255 20.2959768,12.9171764 C20.2959768,16.4124 22.1669712,20.2684435 25.0697834,21.7949217 C24.9536709,24.0325304 25.1867755,26.4917106 26.5854031,28.6995429 C28.0711152,31.0457478 28.3596371,31.5186671 28.384267,31.5598286 C28.9226067,32.4574994 29.8752569,32.9549404 30.8551759,32.9549404 C31.3556911,32.9549404 31.8641231,32.8244497 32.3268137,32.5503317 C33.6893762,31.7402385 34.1362333,29.9816795 33.3234459,28.6233503 C33.3234459,28.6233503 33.088582,28.2301267 31.4515719,25.6448348 C31.0451782,25.0020149 30.7724898,24.3031453 30.7997586,22.7197416 C36.6273739,23.8179652 38.2494301,17.3976484 38.2494301,12.8672571" id="Fill-13" fill="url(#linearGradient-19)"></path>
                            <path d="M42.3006511,76.2749246 C42.4413319,78.8315812 43.2162593,94.1796211 43.3592592,101.542858 C43.5448632,111.119473 35.6580106,132.026007 34.6587395,134.695373 L30.1954459,134.39323 C34.7766112,114.187317 35.3052749,108.50528 35.1742085,101.700498 C35.0615328,95.9119656 32.7664308,84.8206095 31.6368475,79.6317639 C31.4584157,85.4773106 31.0054705,98.7256745 30.4697177,105.376394 C29.8486918,113.10512 25.6747998,134.09135 25.6598459,134.326058 L21.1077087,134.326058 C21.1226625,134.090475 21.6838729,112.509593 22.309297,104.725692 C22.8986838,97.4019852 22.2500538,81.1081093 22.0750758,77.3999805 C21.44471,74.974741 20.5920252,70.1076011 21.7018175,64.072677 L42.1824767,64.072677 C42.1824767,64.072677 42.7010045,69.8621135 42.3006511,76.2749246 Z" id="Combined-Shape" fill="url(#linearGradient-20)"></path>
                            <path d="M23.2396922,27.9076658 C23.2396922,27.9076658 19.9058565,43.7417031 19.281312,46.6667963 C19.0429296,47.7781565 18.225744,48.6197776 17.1429071,48.8387217 C16.9229971,48.8912683 16.6951703,48.9350571 16.4224819,48.9350571 C15.4539982,48.9350571 14.4872738,47.4637528 11.5659892,43.1549329 C11.4789048,43.0235665 11.3821444,42.8834422 11.285384,42.743318 C10.9423244,42.2441255 10.5807924,41.7099019 10.1946304,41.1318894 C10.09787,40.9830075 9.99143352,40.8341255 9.88587672,40.6852435 C9.20943352,39.7043739 8.44414668,38.6096534 7.59969224,37.401082 C6.7640342,37.698846 4.24826367,39.0562994 3.25339078,39.0562994 C1.90842115,39.0562994 0.254697863,38.9249329 0.78248189,37.6900882 C1.34457188,36.3851814 2.64731879,35.509405 3.92279685,35.1415789 C4.60011969,34.9401503 5.84041215,34.6073553 6.33213093,34.3183491 C6.36731654,34.3008335 6.41217818,34.2920758 6.44736378,34.2658025 C6.51685534,34.2307714 6.59690259,34.1957404 6.67607019,34.1694671 C6.74644139,34.134436 6.825609,34.1169205 6.8959802,34.0906472 C6.97514781,34.0731317 7.05431541,34.0556161 7.12468661,34.0381006 C7.21177098,34.0293429 7.29181822,34.0118273 7.37098583,34.0118273 C7.44135703,34.0030696 7.52052463,34.0030696 7.59089584,34.0030696 C7.67006344,34.0030696 7.75714781,34.0118273 7.83631541,34.0205851 C7.90668661,34.0293429 7.97705782,34.0381006 8.04742902,34.0556161 C8.13627267,34.0731317 8.21544027,34.0906472 8.28581147,34.1169205 C8.36497908,34.134436 8.42655388,34.1607093 8.49604544,34.1957404 C8.57609269,34.2220137 8.64646389,34.2570447 8.71595546,34.3008335 C8.78632666,34.3358646 8.8487811,34.3708957 8.91035591,34.4146845 C8.98072711,34.4584733 9.04142227,34.5110199 9.10387672,34.5635665 C9.16545152,34.6073553 9.22614668,34.6599019 9.27980472,34.7212062 C9.33170349,34.7737528 9.39415793,34.8438149 9.44605669,34.9051193 C9.47332553,34.9401503 9.49971474,34.9664236 9.52610394,35.0014547 C10.4664391,36.288846 11.505294,37.6638149 12.5247969,38.9424484 C12.6400297,39.0825727 12.7543829,39.2314547 12.8687361,39.3715789 C13.2900837,39.8970447 13.7043942,40.404995 14.0993525,40.8779143 C14.2137057,41.0092807 14.3192625,41.1406472 14.4248193,41.2720137 C14.7159802,41.6135665 14.9886686,41.928846 15.2525606,42.2178522 C15.4108958,41.4646845 15.5868238,40.6414547 15.7627519,39.7831938 C15.7882614,39.6693429 15.8155303,39.5467342 15.8419195,39.4241255 C17.0030443,33.8892186 18.4808396,26.9180385 18.4808396,26.9180385 L23.2396922,27.9076658 Z" id="Fill-21" fill="url(#linearGradient-21)"></path>
                            <path d="M14.4252592,41.2717509 L11.566429,43.1546702 C11.478465,43.0233037 11.3817046,42.8831795 11.2858238,42.7430553 C10.9418846,42.2438627 10.5812322,41.7096391 10.1941906,41.1316267 C10.0974301,40.9827447 9.99187334,40.8338627 9.88631654,40.6849807 L12.5252367,38.9421857 C12.6404695,39.0823099 12.7548227,39.2311919 12.8682963,39.3713161 C13.2905235,39.896782 13.704834,40.4047323 14.0997924,40.8776516 C14.2141456,41.009018 14.3197024,41.1403845 14.4252592,41.2717509" id="Fill-23" fill="#ED8C62"></path>
                            <path d="M55.3113683,18.7556273 C52.3733705,24.3605963 51.0539105,25.5341366 50.8515933,25.6917764 C48.6621692,26.7278199 43.4441444,26.2890559 39.2808081,25.4491863 C38.24987,25.1584286 37.4027766,24.9622547 37.0509206,24.9622547 L20.097618,24.9622547 C19.1247361,24.9622547 18.3400972,25.6392298 18.1307429,26.515882 L18.1281039,26.5150062 C18.1281039,26.5150062 16.2280814,35.5267453 15.0062614,41.2981118 C14.7159802,40.956559 14.3896337,40.5712174 14.0289813,40.1333292 L9.56128954,43.6977391 C12.9742929,47.857677 14.733573,49.3289814 16.4831771,49.3377391 L16.5016495,49.3377391 C16.7655415,49.3377391 17.0382299,49.3027081 17.3109183,49.2422795 C17.6363852,49.1625839 17.9354628,49.0399752 18.2072715,48.8735776 C18.9558452,48.4269317 19.501222,47.6746398 19.6947429,46.7541988 C19.8266889,46.1376522 20.0809048,44.9343354 20.4019735,43.4183665 C21.3352715,51.2749565 22.773483,52.8697453 21.7020814,64.072677 L42.1827406,64.072677 C42.1827406,64.072677 41.4033795,43.2773665 39.9581309,32.140118 C41.9760252,32.4475155 44.8744391,32.5447267 47.457942,32.2986335 C49.9446844,32.0612981 51.7488261,31.6207826 53.481717,30.753764 C54.307699,30.3421491 55.3307204,29.8517143 59.5529926,21.7945714 L55.3113683,18.7556273 Z" id="Fill-25" fill="url(#linearGradient-22)"></path>
                            <path d="M14.0292452,40.1334168 L9.56155343,43.6978267 C9.33196738,43.4175783 9.09534421,43.1198143 8.84816535,42.8132925 L13.3167368,39.2576404 C13.5718324,39.5729199 13.8093352,39.8619261 14.0292452,40.1334168" id="Fill-27" fill="#FFFFFF"></path>
                            <path d="M59.2517159,19.0711696 C59.2429195,19.1062006 59.2262063,19.1412317 59.2165303,19.1762627 C59.0669915,19.6053932 58.9007395,20.0695547 58.7239318,20.5687472 L55.9090837,18.5544615 C55.9882513,18.3968217 56.0674189,18.239182 56.1553829,18.0727845 C56.2433469,17.8976292 56.3321906,17.7224739 56.4192749,17.5473186 L59.2517159,19.0711696 Z" id="Fill-29" fill="#ED8C62"></path>
                            <path d="M60.0282621,20.8839391 C59.8699269,21.1992186 59.7115917,21.4969826 59.5532565,21.7947466 L55.3116322,18.7558025 C55.461171,18.4667963 55.6186265,18.1602745 55.7866378,17.8362373 L60.0282621,20.8839391 Z" id="Fill-31" fill="#FFFFFF"></path>
                            <path d="M20.4066355,43.4351814 C20.0820484,44.9415168 19.8269528,46.1325727 19.6941271,46.7543739 C19.5014859,47.6739391 18.9561091,48.4271068 18.2075354,48.872877 L19.2375939,34.5635665 C19.6325523,37.2872311 20.0371867,40.3261752 20.4066355,43.4351814" id="Fill-33" fill="#000000" opacity="0.0985398065"></path>
                            <path d="M38.5879156,2.37160248 C38.5879156,2.37160248 38.4322193,3.76583851 35.2074589,2.31730435 C29.1581744,-0.401981366 22.991018,1.03954658 21.2985906,2.31730435 C19.6413487,3.56791304 19.4205591,4.87019255 19.9307503,5.90448447 C18.5945771,7.10604969 17.7131777,8.74900621 17.7070202,9.96195652 C17.6779921,15.1430497 20.9643273,20.4143478 24.5321474,20.4143478 C30.2295759,20.4143478 32.739189,13.5062236 32.4181204,9.52406832 C32.3899719,9.17025466 32.3600641,8.81206211 32.3257582,8.45474534 C32.5087233,8.48890062 32.6899291,8.52218012 32.8746535,8.5563354 C39.5581586,9.81570186 38.5879156,2.37160248 38.5879156,2.37160248" id="Fill-35" fill="url(#linearGradient-23)"></path>
                            <path d="M29.2889768,13.2982267 C29.2889768,14.252823 29.7200004,15.106705 30.3999622,15.678587 C31.1951568,16.3476801 32.4187361,15.7442702 32.4187361,14.7073509 L32.4187361,11.8899783 C32.4187361,10.853059 31.1951568,10.2487733 30.3999622,10.9178665 C29.7200004,11.4897484 29.2889768,12.3436304 29.2889768,13.2982267" id="Fill-37" fill="#FFAF84"></path>
                        </g>
                        <g id="Group-21" transform="translate(413.000000, 249.000000)">
                            <g id="Mask-Copy-32">
                                <use fill="black" fill-opacity="1" filter="url(#filter-26)" xlink:href="#path-25"></use>
                                <use fill="url(#linearGradient-24)" fill-rule="evenodd" xlink:href="#path-25"></use>
                            </g>
                            <path d="M44.3509088,46.4489796 L50.2317131,61.8157104 C50.2697506,61.905954 50.3162966,61.9890355 50.3673469,62.0673422 C48.3803858,62.7343814 46.2432766,63.1020408 44.0165789,63.1020408 C42.1387255,63.1020408 40.3264368,62.837517 38.6122449,62.3581274 L44.3509088,46.4489796 Z M24.8979592,44.2786352 C24.8979592,41.5623953 25.4937362,38.9834382 26.5542293,36.6530612 L35.6734694,61.1428571 C29.2960041,58.1059636 24.8979592,51.6963237 24.8979592,44.2786352 Z M57.2190777,42.7592514 C57.2190777,44.3692681 56.6011132,46.2386792 55.7888047,48.8404977 L53.9132627,55.1102602 L47.1171291,34.8888242 C48.249244,34.8287747 49.2691807,34.7091678 49.2691807,34.7091678 C50.2827212,34.5895609 50.1641468,33.1006277 49.1496223,33.1606772 C49.1496223,33.1606772 46.1035886,33.3993988 44.1370248,33.3993988 C42.2905114,33.3993988 39.1844525,33.1606772 39.1844525,33.1606772 C38.171404,33.1006277 38.0533216,34.6501027 39.0658781,34.7091678 C39.0658781,34.7091678 40.0248055,34.8287747 41.037362,34.8888242 L43.9677733,42.918235 L39.853094,55.2653061 L33.0067754,34.8893164 C34.1398743,34.8292669 35.158827,34.70966 35.158827,34.70966 C36.1708915,34.5900531 36.0528091,33.1001355 35.0382845,33.1611694 C35.0382845,33.1611694 31.9932349,33.399891 30.026179,33.399891 C29.6719319,33.399891 29.2571675,33.390539 28.8163265,33.3772493 C32.1772466,28.2695931 37.9568876,24.8979592 44.5271887,24.8979592 C49.4231798,24.8979592 53.8798061,26.7703235 57.2244898,29.835311 C57.1428161,29.8313733 57.0640945,29.8210369 56.9804529,29.8210369 C55.1334475,29.8210369 53.8227329,31.4305614 53.8227329,33.1596928 C53.8227329,34.70966 54.716223,36.0213979 55.6697383,37.5708729 C56.3851208,38.8250222 57.2190777,40.4345467 57.2190777,42.7592514 Z M60.9292703,34.6938776 C62.3143882,37.392532 63.1025045,40.4903076 63.1020406,43.7854128 C63.1020406,50.7747443 59.5557492,56.8780762 54.2857143,60.1632653 L59.7014046,43.4294264 C60.7135704,40.7268055 61.0489489,38.5651055 61.0489489,36.6423824 C61.0489489,35.9457795 61.0053451,35.2967737 60.9292703,34.6938776 Z M44,20 C57.254965,20 68,30.7453083 68,44 C68,57.2546917 57.254965,68 44,68 C30.745035,68 20,57.2546917 20,44 C20,30.7453083 30.745035,20 44,20 Z M44.0009899,65.0387296 C55.6008167,65.0387296 65.0386686,55.6005774 65.0381736,43.9990101 C65.0381736,32.3989276 55.6013116,22.9612704 44.0009899,22.9612704 C32.3986884,22.9612704 22.9618264,32.3984327 22.9618264,43.9990101 C22.9618264,55.6015673 32.3991833,65.0387296 44.0009899,65.0387296 Z" id="Combined-Shape" fill="#FFFFFF"></path>
                        </g>
                        <g id="Group-23">
                            <g id="Mask-Copy-45">
                                <use fill="black" fill-opacity="1" filter="url(#filter-29)" xlink:href="#path-28"></use>
                                <use fill="url(#linearGradient-27)" fill-rule="evenodd" xlink:href="#path-28"></use>
                            </g>
                            <g id="Group-19" transform="translate(23.000000, 33.000000)">
                                <path d="M47.1481434,0 L4.85185658,0 C2.17208966,0 0,2.25597986 0,5.03884975 L0,21.5782848 C0,24.3613314 2.17242993,26.6171345 4.85185658,26.6171345 L24.9809876,26.6171345 L33.9020884,32 L32.1204543,26.6171345 L47.1481434,26.6171345 C49.8279103,26.6171345 52,24.3611547 52,21.5782848 L52,5.03884975 C52.0001701,2.25580317 49.8277402,0 47.1481434,0 Z" id="Path" fill="#FFFFFF"></path>
                                <g id="Group" transform="translate(3.000000, 2.000000)">
                                    <path d="M5.27864493,21.9872727 C5.27132246,21.9872727 5.26434058,21.9872727 5.25718841,21.9870909 C4.67343478,21.9796364 4.13003986,21.6681818 3.80172101,21.1527273 C3.28318841,20.3385455 2.52301449,18.4614545 1.23732609,11.1118182 C0.548163043,7.17254545 0.0301413043,3.46272727 0.0250326087,3.42581818 C-0.120054348,2.384 0.553442029,1.41418182 1.5292029,1.25927273 C2.50428261,1.10418182 3.41328986,1.82327273 3.55837681,2.86527273 C3.56331522,2.90145455 4.06975725,6.52636364 4.7435942,10.3825455 C5.13287681,12.61 5.46579348,14.2716364 5.7423442,15.508 C7.42651087,12.1941818 9.48225,7.73781818 10.3871703,5.72527273 C10.7185543,4.98854545 11.4525036,4.55909091 12.2130181,4.65781818 C12.973192,4.75654545 13.589471,5.36145455 13.7457971,6.16163636 C14.0415906,7.67218182 14.8078949,10.8176364 15.896558,13.6725455 C16.2981014,9.61345455 17.0751341,4.46218182 18.5564855,1.21981818 C18.9888514,0.273272727 20.0582717,-0.119818182 20.9448007,0.342 C21.8313297,0.803818182 22.1994964,1.94545455 21.7669601,2.892 C19.4115109,8.04763636 19.0588406,19.792 19.0554348,19.9101818 C19.0343188,20.6709091 18.5915652,21.3452727 17.9291377,21.6258182 C17.2665399,21.9065455 16.5113043,21.74 16.0072464,21.2018182 C14.4070326,19.4932727 12.9483297,16.5489091 11.6713261,12.4505455 C11.6161522,12.2732727 11.5625109,12.0978182 11.5102319,11.9245455 C9.94458696,15.2514545 7.88646377,19.4667273 6.7310471,21.1907273 C6.39523551,21.6907273 5.85422464,21.9872727 5.27864493,21.9872727 Z" id="Path" fill="#DB72C8"></path>
                                    <path d="M33.0054094,5.89436364 C32.2615833,4.28145455 30.9840688,3.16618182 29.315058,2.67036364 C27.4112174,2.10618182 25.348837,2.85654545 23.7973261,4.68036364 C21.9556413,6.84036364 20.6122246,10.8889091 22.3631449,15.7676364 C23.5624964,19.1112727 25.4486268,19.7249091 26.6673913,19.7249091 C26.7990254,19.7249091 26.9218043,19.7172727 27.0357283,19.706 C30.2794094,19.3772727 33.0037065,14.7949091 33.5285399,11.6527273 C33.9057319,9.40145455 33.7296522,7.46363636 33.0054094,5.89436364 Z M30.0125652,10.982 C29.8470435,11.9641818 29.2723152,13.2636364 28.5446667,14.2914545 C27.7972645,15.3496364 27.0641667,15.8721818 26.6994058,15.9081818 C26.4770072,15.9309091 26.0642246,15.4218182 25.6994638,14.4034545 C24.9663659,12.3630909 24.720808,9.26254545 26.4397138,7.24490909 C26.9521159,6.64272727 27.5483007,6.30254545 28.0607029,6.30254545 C28.1638986,6.30254545 28.2635181,6.31581818 28.3578587,6.34436364 C30.2705543,6.91254545 30.3131268,9.17909091 30.0125652,10.982 Z" id="Shape" fill="#CB6FE0" fill-rule="nonzero"></path>
                                    <path d="M46.2740543,5.89436364 C45.9004384,5.08890909 45.3950181,4.40490909 44.7758442,3.86345455 C44.1530942,3.322 43.4164203,2.91927273 42.5818297,2.67036364 C40.679692,2.10618182 38.6174819,2.85654545 37.0640978,4.68036364 C35.2242862,6.84036364 33.8808696,10.8889091 35.6299167,15.7676364 C36.8292681,19.1112727 38.7153986,19.7249091 39.934163,19.7249091 C40.0657971,19.7249091 40.1904493,19.7172727 40.3042029,19.706 C43.5461812,19.3772727 46.270308,14.7949091 46.7953116,11.6527273 C47.1726739,9.40145455 46.9964239,7.46363636 46.2740543,5.89436364 Z M43.279337,10.982 C43.1156884,11.9641818 42.539087,13.2636364 41.8131413,14.2914545 C41.0640362,15.3496364 40.3309384,15.8721818 39.9661775,15.9081818 C39.7454819,15.9309091 39.3309964,15.4218182 38.9662355,14.4034545 C38.2348406,12.3630909 37.9894529,9.26254545 39.7064855,7.24490909 C40.2207609,6.64272727 40.8167754,6.30254545 41.3274746,6.30254545 C41.4306703,6.30254545 41.5302899,6.31581818 41.6263333,6.34436364 C43.5391993,6.91254545 43.5800688,9.17909091 43.279337,10.982 Z" id="Shape" fill="#CB6FE0" fill-rule="nonzero"></path>
                                </g>
                            </g>
                        </g>
                        <rect id="Rectangle-Copy-36" fill="#E6E6E6" fill-rule="nonzero" x="215" y="182" width="15" height="13" rx="3"></rect>
                        <rect id="Rectangle-Copy-38" fill="#E6E6E6" fill-rule="nonzero" x="166" y="226" width="15" height="13" rx="3"></rect>
                        <rect id="Rectangle-Copy-37" fill="#E6E6E6" fill-rule="nonzero" x="264" y="182" width="15" height="13" rx="3"></rect>
                        <rect id="Rectangle-Copy-39" fill="#E6E6E6" fill-rule="nonzero" x="215" y="226" width="15" height="13" rx="3"></rect>
                        <path d="M382,153 C380.9,153 380,153.9 380,155 C380,156.1 380.9,157 382,157 C383.1,157 384,156.1 384,155 C384,153.9 383.1,153 382,153 Z M376,138 L376,139.866667 L377.9,139.866667 L381.32,146.96 L379.99,149.2 C379.895,149.48 379.8,149.853333 379.8,150.133333 C379.8,151.16 380.655,152 381.7,152 L393.1,152 L393.1,150.133333 L382.08,150.133333 C381.985,150.133333 381.89,150.04 381.89,149.946667 L381.89,149.853297 L382.745,148.26663 L389.775,148.26663 C390.535,148.26663 391.105,147.893297 391.39,147.333297 L394.81,141.266667 C395,141.08 395,140.986667 395,140.8 C395,140.24 394.62,139.866667 394.05,139.866667 L379.99,139.866667 L379.135,138 L376,138 Z M391,153 C389.9,153 389,153.9 389,155 C389,156.1 389.9,157 391,157 C392.1,157 393,156.1 393,155 C393,153.9 392.1,153 391,153 Z" id="Shape" fill="#D1D1D1" fill-rule="nonzero"></path>
                    </g>
                </g>
            </g>
        </g>
    </g>
</svg>