<svg width="512" height="512" viewBox="0 0 512 512" fill="none" xmlns="http://www.w3.org/2000/svg">
<rect width="512" height="512" fill="white"/>
<path d="M183.589 161.77C180.72 156.189 176.389 151.511 171.068 148.246C165.747 144.981 159.64 143.254 153.415 143.254C147.189 143.254 141.082 144.981 135.761 148.246C130.44 151.511 126.109 156.189 123.24 161.77L53.3409 301.513C51.6684 304.957 50.8966 308.776 51.099 312.607C51.3015 316.437 52.4714 320.152 54.4974 323.396C56.5234 326.641 59.338 329.307 62.6732 331.142C66.0084 332.977 69.7531 333.919 73.5507 333.878C77.7202 333.912 81.8172 332.777 85.3854 330.598C88.9536 328.419 91.853 325.282 93.7606 321.538L153.419 202.228L213.073 321.123C214.401 323.772 216.234 326.129 218.467 328.059C220.701 329.989 223.29 331.454 226.085 332.37C228.907 333.327 231.888 333.711 234.858 333.499C237.827 333.287 240.725 332.484 243.385 331.136C246.028 329.853 248.393 328.054 250.341 325.841C252.29 323.628 253.784 321.046 254.736 318.245C255.704 315.478 256.094 312.537 255.879 309.61C255.664 306.682 254.85 303.832 253.488 301.238L183.589 161.77Z" fill="#91C242"/>
<path d="M151.847 246.921C149.845 246.915 147.862 247.309 146.012 248.079C144.162 248.85 142.481 249.983 141.065 251.412C139.65 252.842 138.529 254.54 137.766 256.408C137.003 258.277 136.613 260.28 136.619 262.302V346.743C136.686 350.776 138.32 354.622 141.168 357.45C144.016 360.279 147.85 361.864 151.845 361.864C155.839 361.864 159.673 360.279 162.521 357.45C165.369 354.622 167.003 350.776 167.07 346.743V262.302C167.059 258.227 165.451 254.322 162.599 251.44C159.747 248.559 155.881 246.934 151.847 246.921V246.921Z" fill="#91C242"/>
<path d="M441.408 190.721C438.87 187.313 435.334 184.8 431.301 183.538C427.269 182.276 422.945 182.33 418.945 183.692C414.944 185.054 411.471 187.655 409.018 191.125C406.564 194.595 405.256 198.758 405.279 203.022V203.022C405.302 207.427 406.762 211.702 409.433 215.184C417.801 227.01 422.257 241.203 422.165 255.739C422.165 291.933 395.311 321.446 362.23 321.446C329.15 321.446 302.296 291.946 302.296 255.739C302.217 241.49 306.521 227.567 314.614 215.895C317.126 212.399 318.485 208.192 318.499 203.872V203.872C318.518 199.609 317.203 195.448 314.742 191.983C312.281 188.519 308.8 185.928 304.795 184.579C300.79 183.231 296.466 183.195 292.439 184.475C288.412 185.756 284.889 188.288 282.371 191.71C269.098 210.36 261.979 232.758 262.023 255.726C262.023 314.303 306.868 361.975 362.097 361.975C417.325 361.975 462.17 314.303 462.17 255.726C462.381 232.361 455.097 209.556 441.408 190.721Z" fill="#3C3C3B"/>
<path d="M363.487 292.84C365.489 292.846 367.472 292.453 369.322 291.682C371.172 290.911 372.854 289.779 374.269 288.349C375.684 286.92 376.806 285.222 377.569 283.353C378.332 281.484 378.721 279.481 378.715 277.459V173.038C378.721 171.016 378.332 169.013 377.569 167.144C376.806 165.276 375.684 163.578 374.269 162.148C372.854 160.719 371.172 159.586 369.322 158.815C367.472 158.045 365.489 157.651 363.487 157.657C361.486 157.651 359.503 158.045 357.653 158.815C355.802 159.586 354.121 160.719 352.706 162.148C351.291 163.578 350.169 165.276 349.406 167.144C348.643 169.013 348.254 171.016 348.26 173.038V277.468C348.255 279.489 348.645 281.491 349.409 283.359C350.172 285.227 351.294 286.924 352.709 288.352C354.124 289.781 355.805 290.913 357.655 291.683C359.504 292.453 361.487 292.846 363.487 292.84Z" fill="#3C3C3B"/>
</svg>
