<svg width="512" height="512" viewBox="0 0 512 512" fill="none" xmlns="http://www.w3.org/2000/svg">
<rect width="512" height="512" fill="#00679A"/>
<path d="M217.946 186.808L217.945 186.787C217.939 186.588 217.921 186.126 217.873 185.441C217.778 184.059 217.571 181.845 217.13 179.095C216.217 173.408 214.463 166.433 211.336 159.939C208.265 153.562 204.323 148.551 199.314 145.084C194.615 141.831 186.77 138.378 172.973 138.378C159.176 138.378 151.331 141.831 146.632 145.084C141.623 148.551 137.681 153.562 134.61 159.939C131.483 166.433 129.729 173.408 128.816 179.095C128.375 181.845 128.168 184.059 128.072 185.441C128.025 186.126 128.007 186.588 128.001 186.787L128 186.808V418.595C128 439.611 110.963 456.649 89.9459 456.649C68.9292 456.649 51.8918 439.611 51.8918 418.595V183.075H51.9807C51.9811 183.065 51.9816 183.055 51.982 183.045C51.8919 183.043 51.8919 183.038 51.8919 183.038L51.8919 182.999L51.8922 182.915L51.8933 182.721C51.8943 182.581 51.8961 182.419 51.899 182.236C51.9047 181.87 51.9146 181.418 51.9317 180.885C51.9659 179.822 52.0287 178.431 52.1437 176.759C52.3729 173.427 52.8143 168.905 53.6701 163.573C55.3518 153.096 58.7868 138.518 66.0383 123.46C73.3457 108.285 84.972 91.7429 103.314 79.0461C121.966 66.1348 145.257 58.8108 172.973 58.8108C200.689 58.8108 223.98 66.1348 242.632 79.0461C247.557 82.4551 251.997 86.1413 256 90.0037C260.003 86.1413 264.443 82.4551 269.368 79.0461C288.02 66.1348 311.311 58.8108 339.027 58.8108C366.743 58.8108 390.034 66.1348 408.686 79.0461C427.028 91.7429 438.654 108.285 445.962 123.46C453.213 138.518 456.648 153.096 458.33 163.573C459.186 168.905 459.627 173.427 459.856 176.759C459.971 178.431 460.034 179.822 460.068 180.885C460.085 181.418 460.095 181.87 460.101 182.236L460.105 182.501L460.107 182.721L460.108 182.915L460.108 182.999L460.108 183.038C460.108 183.038 460.108 183.043 460.018 183.045C460.018 183.055 460.019 183.065 460.019 183.075H460.108V418.595C460.108 439.611 443.071 456.649 422.054 456.649C401.037 456.649 384 439.611 384 418.595V186.809L383.999 186.787C383.993 186.588 383.975 186.126 383.928 185.441C383.832 184.059 383.625 181.845 383.184 179.095C382.271 173.408 380.517 166.433 377.39 159.939C374.319 153.562 370.377 148.551 365.368 145.084C360.669 141.831 352.824 138.378 339.027 138.378C325.23 138.378 317.385 141.831 312.686 145.084C307.677 148.551 303.735 153.562 300.664 159.939C297.537 166.433 295.783 173.408 294.87 179.095C294.429 181.845 294.222 184.059 294.126 185.441C294.079 186.126 294.061 186.588 294.055 186.787L294.054 186.808V418.595C294.054 439.611 277.017 456.649 256 456.649C234.983 456.649 217.946 439.611 217.946 418.595V186.808Z" fill="white"/>
</svg>
