<svg width="570" height="578" viewBox="0 0 570 578" fill="none" xmlns="http://www.w3.org/2000/svg">
<g filter="url(#filter0_d)">
<path d="M62.8163 441.783C63.3492 448.266 68.3222 454.926 77.469 460.254L134.393 503.502C152.242 513.803 179.061 514.869 194.513 505.988L497.513 335.573C503.996 331.843 507.37 326.959 507.903 321.808C507.37 315.414 475.756 282.912 466.609 277.673L436.327 260.178C418.477 249.877 391.57 248.811 376.207 257.692L359.6 267.283L301.078 301.117L73.2953 428.196C72.2296 428.817 71.3415 429.35 70.4535 430.061C65.6581 433.258 63.1716 437.432 62.8163 441.783Z" fill="#C4C4C4" fill-opacity="0.01"/>
</g>
<path d="M264.153 264.062L302.506 286.364C303.065 287.706 303.641 289.023 304.232 290.317L304.591 291.083C305.191 292.281 305.79 293.479 306.437 294.628C306.437 294.844 306.653 295.036 306.773 295.251C307.372 296.329 307.995 297.359 308.642 298.365L308.906 298.844C309.529 299.803 310.153 300.713 310.8 301.623L311.303 302.294C311.815 303.013 312.342 303.707 312.885 304.378L313.46 305.097C314.156 305.959 314.851 306.797 315.594 307.492L315.738 307.66C316.433 308.402 317.128 309.121 317.847 309.84L318.494 310.486C319.118 311.085 319.765 311.66 320.412 312.235L320.915 312.69C321.706 313.361 322.545 314.032 323.312 314.678L323.912 315.11L325.949 316.571L326.692 317.074C327.579 317.649 328.466 318.2 329.377 318.727L291.024 296.425C290.113 295.898 289.226 295.323 288.339 294.748L287.596 294.245C286.925 293.79 286.23 293.311 285.559 292.808L284.983 292.353C284.144 291.73 283.329 291.059 282.586 290.365L282.083 289.909C281.436 289.358 280.813 288.76 280.189 288.161C279.954 287.966 279.73 287.758 279.518 287.538C278.799 286.819 278.104 286.101 277.409 285.358L277.265 285.19C276.546 284.376 275.827 283.562 275.132 282.795L274.556 282.076L272.974 279.992C272.801 279.779 272.641 279.555 272.495 279.322C271.848 278.411 271.2 277.477 270.601 276.519V276.399C270.601 276.399 270.481 276.16 270.409 276.064C269.762 275.058 269.163 274.004 268.564 272.95L268.204 272.327C267.557 271.153 266.958 269.931 266.382 268.758C266.382 268.758 266.262 268.566 266.215 268.446C266.167 268.326 266.214 268.135 266.023 267.991C265.423 266.697 264.824 265.404 264.273 264.062H264.153Z" fill="#EC9E21"/>
<path d="M245.192 274.314L271.919 304.065L233.494 281.764L206.767 252.012L245.192 274.314Z" fill="#EC9E21"/>
<path d="M194.136 303.778L219.784 332.308L181.359 310.006L155.711 281.453L194.136 303.778Z" fill="#EC9E21"/>
<path d="M24.0621 352.765L24.057 352.908V352.909C24.0365 353.504 24.0167 354.079 23.7504 354.634V357.772C23.7386 357.987 23.7386 358.203 23.7504 358.418V362.059L23.8943 362.97V363.592C23.8943 363.648 23.8863 363.686 23.8782 363.723C23.8622 363.797 23.8463 363.872 23.8943 364.096C23.902 364.132 23.9103 364.17 23.9189 364.209L23.94 364.305C24.0079 364.613 24.0861 364.966 24.0861 365.102V365.629C24.0752 365.78 24.0752 365.932 24.0861 366.084L24.3737 367.234L24.5175 367.761C24.5074 367.872 24.5074 367.984 24.5175 368.096L24.9489 369.437C25.0156 369.601 25.0717 369.769 25.1168 369.94V370.132C25.3731 370.851 25.6692 371.554 26.0037 372.24V372.384C26.4268 373.264 26.8991 374.12 27.4179 374.947V375.091C27.8403 375.745 28.2964 376.376 28.7844 376.983L29.1198 377.414L29.1809 377.485C29.6381 378.01 30.0762 378.514 30.5582 378.995H30.678C31.2085 379.514 31.7688 380.002 32.356 380.456L32.7634 380.768C33.3542 381.211 33.9706 381.619 34.6091 381.99L73.7697 403.387L128.384 331.422L307.325 191.589L501.362 32.6296L465.841 9.98459C465.841 9.98459 420.944 -22.233 353.059 29.0775C285.174 80.388 262.925 169.149 262.925 169.149L64.1649 283.129L63.7574 283.369C63.705 283.401 63.6528 283.432 63.6008 283.464L63.4866 283.533C63.0323 283.808 62.5919 284.075 62.1514 284.375H62.0076L60.2338 285.549C60.1884 285.602 60.1308 285.643 60.066 285.668C59.8522 285.842 59.628 286.002 59.3948 286.148L58.4361 286.842L58.1244 287.082C57.8367 287.273 57.5731 287.489 57.3333 287.681L56.5903 288.232L56.1588 288.591L55.3198 289.286L54.7445 289.741L54.2172 290.196L53.3543 290.962L52.8989 291.37C52.6879 291.541 52.4877 291.725 52.2997 291.921L51.4365 292.711L51.0531 293.07L50.3819 293.741L49.591 294.508L49.3033 294.819L48.5122 295.634L47.7931 296.376L47.6013 296.592L46.5705 297.742L46.067 298.293C45.8825 298.511 45.695 298.729 45.5066 298.948C45.1567 299.354 44.8038 299.765 44.4611 300.185C44.4091 300.261 44.3541 300.335 44.2963 300.406C44.2718 300.437 44.2468 300.467 44.2213 300.496C43.7658 301.047 43.3104 301.598 42.8789 302.173C41.4407 303.994 40.0504 305.91 38.732 307.874C38.6307 307.992 38.5423 308.121 38.4684 308.258C38.4068 308.333 38.3507 308.413 38.3006 308.497C37.3657 309.934 36.4309 311.396 35.568 312.881C35.4958 312.971 35.4317 313.067 35.3763 313.168C35.3116 313.259 35.2554 313.355 35.2085 313.456C34.5852 314.51 33.9859 315.588 33.4106 316.666V316.833C33.2188 317.169 33.051 317.504 32.8832 317.839L32.2359 319.085V319.349C32.0364 319.729 31.8506 320.124 31.6681 320.511C31.6095 320.635 31.5511 320.759 31.4928 320.882L31.2052 321.457C30.9816 321.904 30.7793 322.35 30.5769 322.797L30.5721 322.808C30.4724 323.028 30.3728 323.248 30.2705 323.469C30.2749 323.504 30.2771 323.539 30.2772 323.575C30.2773 323.611 30.275 323.648 30.2705 323.684C30.2435 323.765 30.2029 323.843 30.1628 323.919C30.0962 324.047 30.0307 324.172 30.0307 324.307L29.5274 325.457C29.4373 325.644 29.3572 325.836 29.2876 326.032L28.976 326.822C28.8737 327.04 28.7857 327.264 28.7124 327.493C28.6243 327.698 28.5363 327.94 28.4591 328.151L28.4585 328.153C28.41 328.286 28.3659 328.407 28.3289 328.499C28.3001 328.571 28.2649 328.643 28.2296 328.715C28.1473 328.883 28.0651 329.05 28.0651 329.218C28.0148 329.317 27.9746 329.422 27.9453 329.529C27.7056 330.152 27.4899 330.775 27.2742 331.422V331.613L27.2691 331.629L27.2688 331.629C27.0309 332.343 26.793 333.056 26.5789 333.769V333.985L26.3633 334.775L26.0037 335.973C26.0146 336.124 26.0146 336.277 26.0037 336.428C25.977 336.544 25.937 336.656 25.8972 336.768C25.8302 336.957 25.764 337.143 25.764 337.338L25.5482 338.177C25.3804 338.416 25.3804 338.656 25.3804 338.895L25.1648 339.806C25.1784 339.989 25.1784 340.173 25.1648 340.357L24.9489 341.387C24.9306 341.497 24.9017 341.603 24.873 341.709L24.873 341.709C24.8268 341.88 24.7811 342.048 24.7811 342.225V342.537L24.4935 344.285C24.4837 344.389 24.4837 344.493 24.4935 344.597C24.4615 344.828 24.4189 345.06 24.3763 345.291C24.2911 345.754 24.2058 346.217 24.2058 346.681C24.1953 346.76 24.1953 346.841 24.2058 346.92V347.567L24.0621 348.741V352.765Z" fill="#FFD96A"/>
<path d="M482.523 178.664C482.547 192.965 472.504 210.38 460.039 217.566C452.605 221.852 444.213 221.554 440.084 217.566L431.207 209.794C439.625 201.181 453.659 195.141 453.659 178.664V77.9197C458.312 75.9254 466.107 72.6682 474.277 75.5942C479.157 77.532 482.26 82.8335 482.26 90.7752L482.523 178.664Z" fill="#EBA214"/>
<path d="M143.102 333.219L168.727 361.773L130.326 339.447L104.677 310.917L143.102 333.219Z" fill="#EC9E21"/>
<path d="M104.005 305.048L302.313 190.617C319.093 129.318 362.24 67.6349 413.057 38.3146C478.521 0.562279 531.784 30.8647 531.999 106.058C532.215 181.251 479.264 272.805 413.824 310.581C363.103 339.878 319.596 328.284 302.577 286.363L271.895 304.066L245.167 274.314L219.783 332.308L194.134 303.754L168.725 361.82L143.077 333.29L116.589 393.728L104.268 400.914C81.2327 414.209 62.5116 403.549 62.4397 377.103C62.3678 350.657 80.9689 318.319 104.005 305.048ZM437.411 204.679C437.411 219.051 447.575 224.752 460.04 217.566C472.504 210.38 482.548 192.965 482.524 178.664L482.26 90.7749C482.26 76.4022 472.097 70.6771 459.632 77.8874C447.167 85.0977 437.124 102.489 437.148 116.789L437.411 204.679Z" fill="#FBCA2B"/>
<path d="M300.012 204.224L113.497 311.851C113.497 322.583 121.047 326.943 130.276 321.577L296.32 225.759C297.187 218.523 298.419 211.335 300.012 204.224Z" fill="#F37422"/>
<defs>
<filter id="filter0_d" x="0.816406" y="193.68" width="569.087" height="384.32" filterUnits="userSpaceOnUse" color-interpolation-filters="sRGB">
<feFlood flood-opacity="0" result="BackgroundImageFix"/>
<feColorMatrix in="SourceAlpha" type="matrix" values="0 0 0 0 0 0 0 0 0 0 0 0 0 0 0 0 0 0 127 0"/>
<feOffset dy="4"/>
<feGaussianBlur stdDeviation="31"/>
<feColorMatrix type="matrix" values="0 0 0 0 0 0 0 0 0 0 0 0 0 0 0 0 0 0 0.09 0"/>
<feBlend mode="normal" in2="BackgroundImageFix" result="effect1_dropShadow"/>
<feBlend mode="normal" in="SourceGraphic" in2="effect1_dropShadow" result="shape"/>
</filter>
</defs>
</svg>
