<svg width="594" height="411" viewBox="0 0 594 411" fill="none" xmlns="http://www.w3.org/2000/svg">
<g filter="url(#filter0_d)">
<path d="M62.0146 271.054C62.3885 277.91 67.4027 284.896 76.8213 290.417L135.15 335.457C153.533 346.129 181.561 346.906 197.979 337.302L519.808 152.917C526.696 148.883 530.365 143.668 531.068 138.208C530.692 131.446 498.537 97.4506 489.116 92.0235L457.93 73.8991C439.547 63.2271 411.426 62.4514 395.102 72.0542L315.272 119.012L73.3627 256.532C72.2302 257.204 71.286 257.78 70.3368 258.544C65.2292 261.991 62.5095 266.443 62.0146 271.054Z" fill="#C4C4C4" fill-opacity="0.01"/>
</g>
<g filter="url(#filter1_d)">
<mask id="path-2-inside-1" fill="white">
<path fill-rule="evenodd" clip-rule="evenodd" d="M500.015 25.2593C502.58 26.7404 502.722 29.0599 500.451 30.6135L520.463 42.1675L372.933 124.788L353.295 135.786L438.58 184.963L419.708 195.519L483.776 232.508L529.497 206.903C525.428 204.261 525.614 200.255 530.038 197.778C534.628 195.207 542.044 195.255 546.601 197.886C551.157 200.517 551.13 204.734 546.539 207.304C542.115 209.782 535.068 209.827 530.484 207.473L483.768 233.635L418.713 196.075L377.497 219.129L418.458 242.778L398.478 253.967L432.637 273.689L452.616 262.499L501.057 290.467C501.122 290.429 501.188 290.392 501.255 290.354C509.08 285.972 521.72 286.055 529.488 290.539C537.255 295.024 537.208 302.212 529.382 306.594C521.557 310.976 508.917 310.894 501.15 306.409C493.781 302.155 493.445 295.468 500.111 291.051L452.609 263.626L432.629 274.815L396.498 253.954L416.477 242.765L376.502 219.685L320.678 250.91L422.29 309.576L371.306 338.192C371.46 338.271 371.612 338.354 371.76 338.44C375.878 340.817 375.853 344.628 371.704 346.952C367.555 349.276 360.853 349.232 356.735 346.854C352.616 344.476 352.641 340.665 356.79 338.342C360.447 336.293 366.088 336.085 370.195 337.692L420.31 309.563L319.683 251.466L289.919 268.114L273.974 258.92L216.763 290.959L251.178 310.829L234.305 320.278L267.305 339.331C271.096 337.37 276.991 337.459 280.647 339.57C284.394 341.733 284.371 345.2 280.596 347.314C276.821 349.429 270.724 349.389 266.977 347.225C263.472 345.202 263.265 342.037 266.343 339.906L233.311 320.835L198.988 340.056C201.962 342.225 201.69 345.353 198.187 347.314C194.412 349.429 188.314 349.389 184.567 347.225C180.82 345.062 180.843 341.595 184.618 339.48C188.329 337.402 194.285 337.406 198.046 339.462L249.197 310.816L214.783 290.946L272.987 258.351L142.36 183.027L175.3 164.603L117.512 131.239L106.781 137.249L89.3401 127.61C86.3607 129.004 81.9309 128.889 79.1504 127.283C76.209 125.585 76.2268 122.863 79.1902 121.203C82.1535 119.544 86.9402 119.575 89.8816 121.273C92.651 122.872 92.7971 125.379 90.3312 127.052L106.789 136.122L117.52 130.112L176.295 164.046L261.933 116.147L155.926 55.3747L170.647 47.1302C168.339 45.7375 168.385 43.5524 170.777 42.2131C173.201 40.8553 177.118 40.8809 179.524 42.2703C181.931 43.6598 181.916 45.8868 179.492 47.2447C177.374 48.4307 174.118 48.5612 171.724 47.6493L157.907 55.3876L262.927 115.59L291.021 99.8765L352.308 135.217L370.929 124.788L518.482 42.1545L499.457 31.1702C496.69 32.438 492.614 32.3221 490.048 30.841C487.316 29.2638 487.333 26.7357 490.085 25.1944C492.837 23.653 497.283 23.6821 500.015 25.2593ZM144.667 183.042L291.013 101.187L436.273 184.948L289.927 266.804L144.667 183.042Z"/>
<path d="M106.726 70.9661C109.686 68.9893 109.528 66.0067 106.239 64.1075C102.763 62.1006 97.1059 62.0635 93.6037 64.0248C90.1016 65.9861 90.0806 69.203 93.5567 71.21C96.8875 73.133 102.221 73.2474 105.742 71.5282L212.88 132.953L213.874 132.396L106.726 70.9661Z"/>
<path d="M213.521 224.293L212.534 223.723L71.2156 302.866C63.5525 298.651 51.3806 298.636 43.8017 302.881C36.1066 307.19 36.0604 314.259 43.6984 318.668C51.3364 323.078 63.7663 323.159 71.4614 318.85C78.9399 314.662 79.1941 307.868 72.1918 303.441L213.521 224.293Z"/>
<path d="M517.46 113.985C517.289 114.091 517.111 114.196 516.928 114.298C510.925 117.66 501.227 117.597 495.268 114.156C489.309 110.716 489.345 105.201 495.349 101.839C501.352 98.4771 511.05 98.5405 517.009 101.981C522.449 105.122 522.893 109.992 518.36 113.374L548.698 130.889L488.828 164.418L462.456 149.192L418.557 173.084L417.584 172.507L462.477 148.074L488.835 163.291L546.717 130.876L517.46 113.985Z"/>
</mask>
<path fill-rule="evenodd" clip-rule="evenodd" d="M500.015 25.2593C502.58 26.7404 502.722 29.0599 500.451 30.6135L520.463 42.1675L372.933 124.788L353.295 135.786L438.58 184.963L419.708 195.519L483.776 232.508L529.497 206.903C525.428 204.261 525.614 200.255 530.038 197.778C534.628 195.207 542.044 195.255 546.601 197.886C551.157 200.517 551.13 204.734 546.539 207.304C542.115 209.782 535.068 209.827 530.484 207.473L483.768 233.635L418.713 196.075L377.497 219.129L418.458 242.778L398.478 253.967L432.637 273.689L452.616 262.499L501.057 290.467C501.122 290.429 501.188 290.392 501.255 290.354C509.08 285.972 521.72 286.055 529.488 290.539C537.255 295.024 537.208 302.212 529.382 306.594C521.557 310.976 508.917 310.894 501.15 306.409C493.781 302.155 493.445 295.468 500.111 291.051L452.609 263.626L432.629 274.815L396.498 253.954L416.477 242.765L376.502 219.685L320.678 250.91L422.29 309.576L371.306 338.192C371.46 338.271 371.612 338.354 371.76 338.44C375.878 340.817 375.853 344.628 371.704 346.952C367.555 349.276 360.853 349.232 356.735 346.854C352.616 344.476 352.641 340.665 356.79 338.342C360.447 336.293 366.088 336.085 370.195 337.692L420.31 309.563L319.683 251.466L289.919 268.114L273.974 258.92L216.763 290.959L251.178 310.829L234.305 320.278L267.305 339.331C271.096 337.37 276.991 337.459 280.647 339.57C284.394 341.733 284.371 345.2 280.596 347.314C276.821 349.429 270.724 349.389 266.977 347.225C263.472 345.202 263.265 342.037 266.343 339.906L233.311 320.835L198.988 340.056C201.962 342.225 201.69 345.353 198.187 347.314C194.412 349.429 188.314 349.389 184.567 347.225C180.82 345.062 180.843 341.595 184.618 339.48C188.329 337.402 194.285 337.406 198.046 339.462L249.197 310.816L214.783 290.946L272.987 258.351L142.36 183.027L175.3 164.603L117.512 131.239L106.781 137.249L89.3401 127.61C86.3607 129.004 81.9309 128.889 79.1504 127.283C76.209 125.585 76.2268 122.863 79.1902 121.203C82.1535 119.544 86.9402 119.575 89.8816 121.273C92.651 122.872 92.7971 125.379 90.3312 127.052L106.789 136.122L117.52 130.112L176.295 164.046L261.933 116.147L155.926 55.3747L170.647 47.1302C168.339 45.7375 168.385 43.5524 170.777 42.2131C173.201 40.8553 177.118 40.8809 179.524 42.2703C181.931 43.6598 181.916 45.8868 179.492 47.2447C177.374 48.4307 174.118 48.5612 171.724 47.6493L157.907 55.3876L262.927 115.59L291.021 99.8765L352.308 135.217L370.929 124.788L518.482 42.1545L499.457 31.1702C496.69 32.438 492.614 32.3221 490.048 30.841C487.316 29.2638 487.333 26.7357 490.085 25.1944C492.837 23.653 497.283 23.6821 500.015 25.2593ZM144.667 183.042L291.013 101.187L436.273 184.948L289.927 266.804L144.667 183.042Z" fill="#EEC43B"/>
<path d="M106.726 70.9661C109.686 68.9893 109.528 66.0067 106.239 64.1075C102.763 62.1006 97.1059 62.0635 93.6037 64.0248C90.1016 65.9861 90.0806 69.203 93.5567 71.21C96.8875 73.133 102.221 73.2474 105.742 71.5282L212.88 132.953L213.874 132.396L106.726 70.9661Z" fill="#EEC43B"/>
<path d="M213.521 224.293L212.534 223.723L71.2156 302.866C63.5525 298.651 51.3806 298.636 43.8017 302.881C36.1066 307.19 36.0604 314.259 43.6984 318.668C51.3364 323.078 63.7663 323.159 71.4614 318.85C78.9399 314.662 79.1941 307.868 72.1918 303.441L213.521 224.293Z" fill="#EEC43B"/>
<path d="M517.46 113.985C517.289 114.091 517.111 114.196 516.928 114.298C510.925 117.66 501.227 117.597 495.268 114.156C489.309 110.716 489.345 105.201 495.349 101.839C501.352 98.4771 511.05 98.5405 517.009 101.981C522.449 105.122 522.893 109.992 518.36 113.374L548.698 130.889L488.828 164.418L462.456 149.192L418.557 173.084L417.584 172.507L462.477 148.074L488.835 163.291L546.717 130.876L517.46 113.985Z" fill="#EEC43B"/>
<path d="M180.792 204.242L179.805 203.672L178.805 205.404L179.792 205.974L180.792 204.242ZM370.929 125.788H372.933V123.788H370.929V125.788ZM500.451 30.6135L499.322 28.9627L496.699 30.7568L499.451 32.3455L500.451 30.6135ZM500.015 25.2593L501.015 23.5273L501.015 23.5273L500.015 25.2593ZM520.463 42.1675L521.44 43.9125L524.509 42.194L521.463 40.4355L520.463 42.1675ZM353.295 135.786L352.318 134.041L349.248 135.76L352.296 137.518L353.295 135.786ZM438.58 184.963L439.556 186.709L442.629 184.99L439.579 183.231L438.58 184.963ZM419.708 195.519L418.732 193.773L415.66 195.491L418.708 197.251L419.708 195.519ZM483.776 232.508L482.776 234.24L483.761 234.809L484.753 234.253L483.776 232.508ZM529.497 206.903L530.475 208.648L533.365 207.029L530.586 205.225L529.497 206.903ZM530.038 197.778L531.015 199.523L531.015 199.523L530.038 197.778ZM546.601 197.886L547.601 196.154L546.601 197.886ZM546.539 207.304L545.562 205.559L545.562 205.559L546.539 207.304ZM530.484 207.473L531.398 205.694L530.443 205.203L529.507 205.728L530.484 207.473ZM483.768 233.635L482.768 235.367L483.753 235.935L484.746 235.38L483.768 233.635ZM418.713 196.075L419.713 194.343L418.729 193.775L417.737 194.33L418.713 196.075ZM377.497 219.129L376.52 217.384L373.449 219.101L376.497 220.861L377.497 219.129ZM418.458 242.778L419.435 244.523L422.504 242.805L419.458 241.046L418.458 242.778ZM398.478 253.967L397.501 252.222L394.432 253.941L397.478 255.699L398.478 253.967ZM432.637 273.689L431.637 275.421L432.622 275.989L433.614 275.434L432.637 273.689ZM452.616 262.499L453.616 260.767L452.631 260.199L451.639 260.754L452.616 262.499ZM501.057 290.467L500.057 292.199L501.056 292.775L502.055 292.2L501.057 290.467ZM501.255 290.354L500.277 288.609L500.277 288.609L501.255 290.354ZM529.488 290.539L530.488 288.807L530.488 288.807L529.488 290.539ZM529.382 306.594L528.405 304.849L528.405 304.849L529.382 306.594ZM501.15 306.409L502.15 304.677L502.15 304.677L501.15 306.409ZM500.111 291.051L501.215 292.718L503.908 290.934L501.111 289.319L500.111 291.051ZM452.609 263.626L453.609 261.894L452.624 261.325L451.632 261.881L452.609 263.626ZM432.629 274.815L431.629 276.547L432.614 277.116L433.607 276.56L432.629 274.815ZM396.498 253.954L395.52 252.209L392.452 253.928L395.498 255.686L396.498 253.954ZM416.477 242.765L417.455 244.51L420.523 242.792L417.477 241.033L416.477 242.765ZM376.502 219.685L377.502 217.953L376.518 217.385L375.526 217.94L376.502 219.685ZM320.678 250.91L319.701 249.164L316.63 250.882L319.678 252.642L320.678 250.91ZM422.29 309.576L423.269 311.32L426.332 309.6L423.29 307.844L422.29 309.576ZM371.306 338.192L370.327 336.448L367.082 338.269L370.391 339.971L371.306 338.192ZM371.76 338.44L372.76 336.707L372.76 336.707L371.76 338.44ZM356.79 338.342L355.813 336.597L355.813 336.597L356.79 338.342ZM370.195 337.692L369.465 339.555L370.347 339.9L371.173 339.436L370.195 337.692ZM420.31 309.563L421.289 311.307L424.353 309.588L421.31 307.831L420.31 309.563ZM319.683 251.466L320.683 249.734L319.699 249.166L318.707 249.721L319.683 251.466ZM289.919 268.114L288.92 269.847L289.904 270.414L290.895 269.86L289.919 268.114ZM273.974 258.92L274.973 257.187L273.988 256.62L272.997 257.175L273.974 258.92ZM216.763 290.959L215.786 289.214L212.718 290.933L215.763 292.691L216.763 290.959ZM251.178 310.829L252.155 312.574L255.224 310.855L252.178 309.097L251.178 310.829ZM234.305 320.278L233.328 318.533L230.259 320.252L233.305 322.01L234.305 320.278ZM267.305 339.331L266.305 341.063L267.253 341.61L268.224 341.107L267.305 339.331ZM280.647 339.57L279.647 341.302L279.647 341.302L280.647 339.57ZM280.596 347.314L279.619 345.569L279.619 345.569L280.596 347.314ZM266.977 347.225L265.977 348.957L265.977 348.957L266.977 347.225ZM266.343 339.906L267.482 341.551L270.078 339.753L267.343 338.174L266.343 339.906ZM233.311 320.835L234.311 319.103L233.326 318.534L232.334 319.09L233.311 320.835ZM198.988 340.056L198.011 338.311L195.291 339.835L197.81 341.672L198.988 340.056ZM198.187 347.314L197.209 345.569L197.209 345.569L198.187 347.314ZM184.567 347.225L183.567 348.957L183.567 348.957L184.567 347.225ZM184.618 339.48L185.595 341.225L185.595 341.225L184.618 339.48ZM198.046 339.462L197.086 341.217L198.057 341.748L199.023 341.207L198.046 339.462ZM249.197 310.816L250.175 312.561L253.243 310.842L250.197 309.084L249.197 310.816ZM214.783 290.946L213.805 289.201L210.737 290.92L213.783 292.679L214.783 290.946ZM272.987 258.351L273.964 260.096L277.035 258.376L273.986 256.618L272.987 258.351ZM142.36 183.027L141.384 181.282L138.31 183.001L141.361 184.76L142.36 183.027ZM175.3 164.603L176.277 166.348L179.348 164.63L176.3 162.871L175.3 164.603ZM117.512 131.239L118.512 129.507L117.528 128.938L116.535 129.494L117.512 131.239ZM106.781 137.249L105.814 138.999L106.788 139.537L107.759 138.994L106.781 137.249ZM89.3401 127.61L90.3075 125.86L89.4155 125.367L88.4925 125.799L89.3401 127.61ZM79.1504 127.283L80.1504 125.551L80.1504 125.551L79.1504 127.283ZM79.1902 121.203L80.1674 122.948L80.1674 122.948L79.1902 121.203ZM89.8816 121.273L88.8816 123.005L88.8816 123.005L89.8816 121.273ZM90.3312 127.052L89.2084 125.397L86.5082 127.228L89.3658 128.803L90.3312 127.052ZM106.789 136.122L105.823 137.874L106.796 138.41L107.766 137.867L106.789 136.122ZM117.52 130.112L118.52 128.38L117.535 127.812L116.543 128.367L117.52 130.112ZM176.295 164.046L175.295 165.778L176.279 166.347L177.271 165.792L176.295 164.046ZM261.933 116.147L262.909 117.892L265.991 116.168L262.927 114.411L261.933 116.147ZM155.926 55.3747L154.949 53.6297L151.869 55.3543L154.931 57.1098L155.926 55.3747ZM170.647 47.1302L171.625 48.8752L174.626 47.1944L171.681 45.4176L170.647 47.1302ZM170.777 42.2131L169.8 40.4681L169.8 40.4681L170.777 42.2131ZM179.492 47.2447L178.515 45.4997L178.515 45.4997L179.492 47.2447ZM171.724 47.6493L172.436 45.7803L171.563 45.4475L170.747 45.9043L171.724 47.6493ZM157.907 55.3876L156.929 53.6427L153.85 55.3674L156.912 57.1228L157.907 55.3876ZM262.927 115.59L261.933 117.325L262.915 117.889L263.904 117.336L262.927 115.59ZM291.021 99.8765L292.02 98.1439L291.036 97.5765L290.045 98.131L291.021 99.8765ZM352.308 135.217L351.309 136.949L352.294 137.517L353.285 136.962L352.308 135.217ZM518.482 42.1545L519.46 43.8995L522.528 42.181L519.482 40.4225L518.482 42.1545ZM499.457 31.1702L500.457 29.4381L499.562 28.9218L498.624 29.352L499.457 31.1702ZM490.048 30.841L491.048 29.1089L491.048 29.1089L490.048 30.841ZM490.085 25.1944L491.062 26.9393L491.062 26.9393L490.085 25.1944ZM106.239 64.1075L107.239 62.3755L107.239 62.3755L106.239 64.1075ZM106.726 70.9661L105.616 69.3029L102.931 71.0957L105.731 72.7012L106.726 70.9661ZM93.6037 64.0248L92.6265 62.2798L92.6265 62.2798L93.6037 64.0248ZM93.5567 71.21L94.5567 69.4779L94.5567 69.4779L93.5567 71.21ZM105.742 71.5282L106.736 69.7932L105.817 69.2659L104.864 69.731L105.742 71.5282ZM212.88 132.953L211.885 134.688L212.868 135.252L213.857 134.698L212.88 132.953ZM213.874 132.396L214.851 134.141L217.93 132.417L214.868 130.661L213.874 132.396ZM291.013 101.187L292.012 99.4541L291.028 98.8867L290.036 99.4412L291.013 101.187ZM144.667 183.042L143.69 181.297L140.617 183.016L143.668 184.775L144.667 183.042ZM436.273 184.948L437.249 186.694L440.322 184.975L437.272 183.216L436.273 184.948ZM289.927 266.804L288.928 268.537L289.912 269.104L290.904 268.549L289.927 266.804ZM213.521 224.293L214.498 226.038L217.567 224.319L214.521 222.561L213.521 224.293ZM212.534 223.723L213.534 221.991L212.55 221.423L211.557 221.978L212.534 223.723ZM71.2156 302.866L70.2517 304.618L71.2243 305.153L72.1928 304.611L71.2156 302.866ZM43.8017 302.881L42.8245 301.136L42.8245 301.136L43.8017 302.881ZM71.4614 318.85L70.4842 317.105L70.4842 317.105L71.4614 318.85ZM72.1918 303.441L71.2145 301.696L68.2845 303.337L71.123 305.132L72.1918 303.441ZM516.928 114.298L515.951 112.553L515.951 112.553L516.928 114.298ZM517.46 113.985L518.46 112.253L517.425 111.655L516.408 112.284L517.46 113.985ZM495.349 101.839L496.326 103.584L496.326 103.584L495.349 101.839ZM517.009 101.981L516.009 103.713L516.009 103.713L517.009 101.981ZM518.36 113.374L517.164 111.771L514.73 113.588L517.36 115.106L518.36 113.374ZM548.698 130.889L549.675 132.634L552.743 130.916L549.698 129.157L548.698 130.889ZM488.828 164.418L487.828 166.15L488.813 166.718L489.805 166.163L488.828 164.418ZM462.456 149.192L463.456 147.46L462.485 146.899L461.5 147.435L462.456 149.192ZM418.557 173.084L417.535 174.804L418.513 175.385L419.513 174.841L418.557 173.084ZM417.584 172.507L416.628 170.75L413.54 172.431L416.563 174.226L417.584 172.507ZM462.477 148.074L463.477 146.342L462.506 145.781L461.521 146.317L462.477 148.074ZM488.835 163.291L487.835 165.023L488.82 165.592L489.812 165.036L488.835 163.291ZM546.717 130.876L547.694 132.621L550.763 130.903L547.717 129.144L546.717 130.876ZM370.929 124.788L369.952 123.043L369.952 123.043L370.929 124.788ZM372.933 124.788L373.91 126.533L373.91 126.533L372.933 124.788ZM501.58 32.2642C503.095 31.2277 504.183 29.651 504.041 27.759C503.901 25.9088 502.634 24.4621 501.015 23.5273L499.015 26.9914C499.961 27.5376 500.047 27.9912 500.052 28.0594C500.054 28.0858 500.078 28.4457 499.322 28.9627L501.58 32.2642ZM484.776 230.776L420.708 193.787L418.708 197.251L482.776 234.24L484.776 230.776ZM528.52 205.158L482.798 230.763L484.753 234.253L530.475 208.648L528.52 205.158ZM529.061 196.033C526.502 197.466 524.728 199.599 524.586 202.168C524.442 204.764 526.004 207.02 528.408 208.58L530.586 205.225C528.921 204.144 528.541 203.076 528.579 202.389C528.619 201.675 529.15 200.567 531.015 199.523L529.061 196.033ZM547.601 196.154C544.95 194.624 541.596 193.902 538.345 193.881C535.094 193.86 531.73 194.537 529.061 196.033L531.015 199.523C532.936 198.447 535.575 197.863 538.319 197.881C541.063 197.899 543.694 198.517 545.601 199.618L547.601 196.154ZM547.516 209.049C550.17 207.563 551.982 205.317 552 202.631C552.017 199.945 550.235 197.675 547.601 196.154L545.601 199.618C547.523 200.728 548.005 201.882 548 202.605C547.995 203.327 547.498 204.475 545.562 205.559L547.516 209.049ZM529.57 209.252C532.211 210.608 535.453 211.229 538.59 211.2C541.724 211.171 544.942 210.491 547.516 209.049L545.562 205.559C543.712 206.595 541.195 207.176 538.553 207.201C535.914 207.225 533.341 206.692 531.398 205.694L529.57 209.252ZM378.473 220.875L419.69 197.821L417.737 194.33L376.52 217.384L378.473 220.875ZM433.637 271.957L399.478 252.235L397.478 255.699L431.637 275.421L433.637 271.957ZM500.277 288.609C500.204 288.65 500.132 288.692 500.059 288.733L502.055 292.2C502.113 292.166 502.172 292.133 502.232 292.099L500.277 288.609ZM530.488 288.807C526.232 286.35 520.768 285.157 515.406 285.122C510.043 285.087 504.565 286.208 500.277 288.609L502.232 292.099C505.77 290.118 510.524 289.09 515.38 289.122C520.236 289.153 524.976 290.244 528.488 292.271L530.488 288.807ZM530.36 308.339C534.631 305.947 537.257 302.505 537.282 298.618C537.308 294.731 534.727 291.255 530.488 288.807L528.488 292.271C532.015 294.308 533.295 296.668 533.282 298.592C533.27 300.515 531.959 302.859 528.405 304.849L530.36 308.339ZM500.15 308.141C504.405 310.598 509.869 311.792 515.231 311.827C520.594 311.862 526.073 310.74 530.36 308.339L528.405 304.849C524.867 306.83 520.113 307.859 515.257 307.827C510.402 307.795 505.661 306.705 502.15 304.677L500.15 308.141ZM499.006 289.384C495.296 291.842 493.141 295.218 493.371 298.916C493.6 302.577 496.126 305.818 500.15 308.141L502.15 304.677C498.805 302.746 497.479 300.517 497.363 298.667C497.25 296.853 498.26 294.677 501.215 292.718L499.006 289.384ZM451.609 265.358L499.111 292.783L501.111 289.319L453.609 261.894L451.609 265.358ZM375.502 221.417L415.477 244.497L417.477 241.033L377.502 217.953L375.502 221.417ZM321.654 252.655L377.478 221.431L375.526 217.94L319.701 249.164L321.654 252.655ZM372.76 336.707C372.583 336.605 372.403 336.507 372.22 336.413L370.391 339.971C370.518 340.036 370.641 340.103 370.76 340.172L372.76 336.707ZM372.681 348.697C375.115 347.334 376.816 345.251 376.832 342.729C376.849 340.207 375.175 338.102 372.76 336.707L370.76 340.172C372.463 341.155 372.836 342.144 372.832 342.703C372.829 343.262 372.443 344.246 370.727 345.207L372.681 348.697ZM355.735 348.586C358.166 349.99 361.232 350.647 364.195 350.666C367.157 350.685 370.232 350.069 372.681 348.697L370.727 345.207C369.027 346.159 366.676 346.682 364.221 346.666C361.765 346.65 359.422 346.096 357.735 345.122L355.735 348.586ZM355.813 336.597C353.38 337.959 351.679 340.042 351.662 342.564C351.646 345.087 353.319 347.192 355.735 348.586L357.735 345.122C356.032 344.139 355.658 343.149 355.662 342.591C355.666 342.032 356.052 341.047 357.768 340.086L355.813 336.597ZM370.924 335.83C366.326 334.03 360.052 334.223 355.813 336.597L357.768 340.086C360.843 338.364 365.85 338.139 369.465 339.555L370.924 335.83ZM419.331 307.819L369.216 335.948L371.173 339.436L421.289 311.307L419.331 307.819ZM318.683 253.198L419.31 311.295L421.31 307.831L320.683 249.734L318.683 253.198ZM290.895 269.86L320.659 253.212L318.707 249.721L288.942 266.369L290.895 269.86ZM272.975 260.653L288.92 269.847L290.918 266.382L274.973 257.187L272.975 260.653ZM217.741 292.704L274.951 260.665L272.997 257.175L215.786 289.214L217.741 292.704ZM268.305 337.599L235.305 318.546L233.305 322.01L266.305 341.063L268.305 337.599ZM281.647 337.838C279.455 336.572 276.714 335.969 274.061 335.923C271.405 335.878 268.64 336.388 266.386 337.555L268.224 341.107C269.761 340.312 271.838 339.886 273.992 339.923C276.148 339.96 278.183 340.456 279.647 341.302L281.647 337.838ZM281.574 349.059C283.82 347.802 285.427 345.857 285.442 343.474C285.458 341.09 283.877 339.125 281.647 337.838L279.647 341.302C281.164 342.178 281.445 343.028 281.442 343.447C281.44 343.867 281.148 344.713 279.619 345.569L281.574 349.059ZM265.977 348.957C268.222 350.254 271.045 350.856 273.763 350.874C276.481 350.892 279.312 350.326 281.574 349.059L279.619 345.569C278.106 346.417 276 346.888 273.789 346.874C271.578 346.86 269.478 346.36 267.977 345.493L265.977 348.957ZM265.205 338.262C263.285 339.59 262.018 341.526 262.198 343.766C262.374 345.962 263.889 347.752 265.977 348.957L267.977 345.493C266.56 344.675 266.219 343.871 266.185 343.446C266.154 343.065 266.323 342.352 267.482 341.551L265.205 338.262ZM232.311 322.567L265.343 341.638L267.343 338.174L234.311 319.103L232.311 322.567ZM199.966 341.801L234.288 322.58L232.334 319.09L198.011 338.311L199.966 341.801ZM199.164 349.059C201.251 347.891 202.781 346.14 203.005 343.969C203.235 341.75 202.032 339.801 200.167 338.441L197.81 341.672C198.917 342.48 199.066 343.18 199.027 343.557C198.983 343.983 198.625 344.776 197.209 345.569L199.164 349.059ZM183.567 348.957C185.812 350.254 188.635 350.856 191.353 350.874C194.071 350.892 196.902 350.326 199.164 349.059L197.209 345.569C195.696 346.417 193.591 346.888 191.379 346.874C189.168 346.86 187.069 346.36 185.567 345.493L183.567 348.957ZM183.64 337.735C181.394 338.993 179.787 340.938 179.772 343.321C179.756 345.705 181.337 347.67 183.567 348.957L185.567 345.493C184.05 344.617 183.769 343.767 183.772 343.348C183.774 342.928 184.066 342.082 185.595 341.225L183.64 337.735ZM199.005 337.707C196.764 336.482 193.986 335.919 191.312 335.921C188.639 335.923 185.865 336.49 183.64 337.735L185.595 341.225C187.082 340.393 189.142 339.922 191.315 339.921C193.486 339.919 195.567 340.386 197.086 341.217L199.005 337.707ZM248.22 309.071L197.069 337.717L199.023 341.207L250.175 312.561L248.22 309.071ZM116.512 132.971L174.3 166.335L176.3 162.871L118.512 129.507L116.512 132.971ZM78.1503 129.015C79.8945 130.022 82.0402 130.508 84.1102 130.571C86.184 130.633 88.3593 130.277 90.1878 129.422L88.4925 125.799C87.3415 126.337 85.8122 126.62 84.2312 126.572C82.6463 126.524 81.1868 126.15 80.1504 125.551L78.1503 129.015ZM78.2129 119.458C76.3725 120.489 74.9697 122.134 74.956 124.216C74.9424 126.298 76.3236 127.961 78.1504 129.015L80.1504 125.551C79.0358 124.908 78.9552 124.36 78.956 124.242C78.9567 124.123 79.0445 123.577 80.1674 122.948L78.2129 119.458ZM90.8816 119.541C89.0391 118.478 86.7453 117.994 84.5572 117.979C82.3691 117.965 80.0691 118.419 78.2129 119.458L80.1674 122.948C81.2745 122.328 82.8496 121.968 84.531 121.979C86.2124 121.99 87.7826 122.371 88.8816 123.005L90.8816 119.541ZM91.454 128.707C93.0659 127.613 94.2062 125.962 94.0645 123.991C93.9257 122.061 92.6036 120.536 90.8816 119.541L88.8816 123.005C89.929 123.61 90.0647 124.138 90.0748 124.278C90.082 124.379 90.0624 124.817 89.2084 125.397L91.454 128.707ZM107.754 134.371L91.2966 125.3L89.3658 128.803L105.823 137.874L107.754 134.371ZM260.956 114.401L175.319 162.301L177.271 165.792L262.909 117.892L260.956 114.401ZM169.8 40.4681C168.25 41.3362 166.996 42.7526 166.95 44.602C166.904 46.4622 168.099 47.9285 169.614 48.8428L171.681 45.4176C171.297 45.1864 171.105 44.9776 171.018 44.8483C170.976 44.7856 170.96 44.7436 170.954 44.7242C170.951 44.7142 170.95 44.7081 170.949 44.7054C170.949 44.7028 170.949 44.7016 170.949 44.7012C170.949 44.7009 170.949 44.6991 170.95 44.6952C170.951 44.6913 170.952 44.6834 170.957 44.6714C170.965 44.6477 170.986 44.601 171.035 44.5341C171.136 44.3964 171.349 44.1848 171.754 43.9581L169.8 40.4681ZM180.524 40.5383C178.949 39.6289 177.007 39.2235 175.171 39.2115C173.334 39.1995 171.387 39.5794 169.8 40.4681L171.754 43.9581C172.592 43.4889 173.815 43.2027 175.144 43.2114C176.474 43.2201 177.693 43.5223 178.524 44.0024L180.524 40.5383ZM180.469 48.9896C182.04 48.1098 183.307 46.6644 183.32 44.7824C183.332 42.9005 182.084 41.4386 180.524 40.5383L178.524 44.0024C178.932 44.2377 179.142 44.4547 179.24 44.5933C179.287 44.6606 179.306 44.7066 179.314 44.729C179.317 44.7405 179.319 44.7477 179.319 44.7511C179.32 44.7544 179.32 44.7559 179.32 44.7563C179.32 44.7566 179.32 44.7581 179.319 44.7614C179.319 44.7648 179.317 44.772 179.313 44.7834C179.305 44.8057 179.286 44.8515 179.238 44.9181C179.138 45.0554 178.925 45.2697 178.515 45.4997L180.469 48.9896ZM171.012 49.5183C173.89 50.6144 177.773 50.4998 180.469 48.9896L178.515 45.4997C176.976 46.3615 174.346 46.5079 172.436 45.7803L171.012 49.5183ZM158.884 57.1326L172.702 49.3943L170.747 45.9043L156.929 53.6427L158.884 57.1326ZM263.922 113.855L158.901 53.6525L156.912 57.1228L261.933 117.325L263.922 113.855ZM290.045 98.131L261.951 113.845L263.904 117.336L291.998 101.622L290.045 98.131ZM353.307 133.484L292.02 98.1439L290.022 101.609L351.309 136.949L353.307 133.484ZM498.457 32.9022L517.482 43.8866L519.482 40.4225L500.457 29.4381L498.457 32.9022ZM489.048 32.573C490.683 33.5167 492.684 33.9718 494.611 34.0354C496.542 34.0991 498.572 33.7757 500.29 32.9883L498.624 29.352C497.575 29.8325 496.183 30.0851 494.743 30.0376C493.299 29.9899 491.979 29.6464 491.048 29.1089L489.048 32.573ZM489.108 23.4494C487.373 24.421 486.023 25.9876 486.01 27.9911C485.997 29.9947 487.326 31.5788 489.048 32.573L491.048 29.1089C490.038 28.5259 490.01 28.0574 490.01 28.0173C490.01 27.9772 490.045 27.5091 491.062 26.9393L489.108 23.4494ZM501.015 23.5273C499.277 22.524 497.121 22.0709 495.071 22.0574C493.02 22.044 490.858 22.4689 489.108 23.4494L491.062 26.9393C492.064 26.3784 493.501 26.0472 495.045 26.0574C496.588 26.0675 498.021 26.4174 499.015 26.9914L501.015 23.5273ZM105.239 65.8396C106.545 66.5935 106.809 67.3104 106.831 67.6385C106.85 67.9289 106.718 68.5667 105.616 69.3029L107.837 72.6293C109.695 71.3887 110.964 69.5468 110.822 67.3769C110.682 65.2447 109.223 63.5207 107.239 62.3755L105.239 65.8396ZM94.581 65.7698C95.9575 64.9989 97.8849 64.5647 99.9181 64.578C101.951 64.5913 103.873 65.0507 105.239 65.8396L107.239 62.3755C105.129 61.1574 102.484 60.5947 99.9442 60.5781C97.4043 60.5615 94.7521 61.0894 92.6265 62.2798L94.581 65.7698ZM94.5567 69.4779C93.1748 68.6801 92.9613 67.9319 92.9633 67.6134C92.9654 67.2948 93.1887 66.5495 94.581 65.7698L92.6265 62.2798C90.5166 63.4614 88.9784 65.3052 88.9634 67.5872C88.9485 69.8692 90.4625 71.7329 92.5567 72.942L94.5567 69.4779ZM104.864 69.731C103.451 70.4212 101.569 70.7835 99.6272 70.7355C97.6825 70.6875 95.864 70.2327 94.5567 69.4779L92.5567 72.942C94.5802 74.1103 97.0937 74.6742 99.5284 74.7343C101.966 74.7945 104.512 74.3545 106.619 73.3255L104.864 69.731ZM213.874 131.218L106.736 69.7932L104.747 73.2633L211.885 134.688L213.874 131.218ZM212.896 130.651L211.902 131.208L213.857 134.698L214.851 134.141L212.896 130.651ZM105.731 72.7012L212.879 134.132L214.868 130.661L107.721 69.2311L105.731 72.7012ZM290.036 99.4412L143.69 181.297L145.643 184.788L291.989 102.932L290.036 99.4412ZM437.272 183.216L292.012 99.4541L290.014 102.919L435.274 186.681L437.272 183.216ZM290.904 268.549L437.249 186.694L435.296 183.203L288.951 265.058L290.904 268.549ZM143.668 184.775L288.928 268.537L290.926 265.071L145.666 181.31L143.668 184.775ZM211.534 225.455L212.521 226.025L214.521 222.561L213.534 221.991L211.534 225.455ZM44.779 304.626C48.1988 302.71 52.7792 301.701 57.4771 301.701C62.1737 301.701 66.7822 302.71 70.2517 304.618L72.1794 301.113C67.9858 298.807 62.6769 297.701 57.4771 297.701C52.2785 297.701 46.9835 298.807 42.8245 301.136L44.779 304.626ZM44.6984 316.936C41.2355 314.937 39.9878 312.625 40.0001 310.75C40.0124 308.875 41.2902 306.579 44.779 304.626L42.8245 301.136C38.6182 303.491 36.0253 306.885 36.0002 310.724C35.9751 314.563 38.5233 317.99 42.6984 320.4L44.6984 316.936ZM70.4842 317.105C67.0112 319.05 62.3423 320.06 57.5716 320.029C52.8009 319.998 48.1456 318.927 44.6984 316.936L42.6984 320.4C46.8892 322.82 52.2679 323.994 57.5454 324.029C62.8229 324.063 68.2166 322.959 72.4387 320.595L70.4842 317.105ZM71.123 305.132C74.2577 307.113 75.3393 309.333 75.2589 311.147C75.1775 312.982 73.8739 315.207 70.4842 317.105L72.4387 320.595C76.5274 318.305 79.0902 315.039 79.2549 311.324C79.4206 307.587 77.1282 304.196 73.2605 301.751L71.123 305.132ZM517.905 116.043C518.113 115.927 518.315 115.808 518.513 115.686L516.408 112.284C516.262 112.375 516.109 112.465 515.951 112.553L517.905 116.043ZM494.268 115.888C497.619 117.823 501.895 118.751 506.068 118.778C510.241 118.805 514.529 117.934 517.905 116.043L515.951 112.553C513.324 114.024 509.761 114.802 506.095 114.778C502.428 114.754 498.876 113.93 496.268 112.424L494.268 115.888ZM494.372 100.094C491.011 101.976 488.844 104.745 488.823 107.955C488.802 111.166 490.933 113.963 494.268 115.888L496.268 112.424C493.645 110.91 492.814 109.229 492.822 107.982C492.831 106.734 493.683 105.064 496.326 103.584L494.372 100.094ZM518.009 100.249C514.658 98.3141 510.382 97.3865 506.209 97.3592C502.036 97.3319 497.748 98.2034 494.372 100.094L496.326 103.584C498.953 102.113 502.516 101.335 506.182 101.359C509.849 101.383 513.401 102.207 516.009 103.713L518.009 100.249ZM519.557 114.977C522.208 112.998 523.737 110.306 523.412 107.368C523.094 104.484 521.057 102.009 518.009 100.249L516.009 103.713C518.401 105.094 519.306 106.625 519.436 107.806C519.561 108.934 519.045 110.368 517.164 111.771L519.557 114.977ZM419.513 174.841L463.412 150.949L461.5 147.435L417.601 171.328L419.513 174.841ZM416.563 174.226L417.535 174.804L419.578 171.365L418.605 170.787L416.563 174.226ZM545.74 129.131L487.858 161.546L489.812 165.036L547.694 132.621L545.74 129.131ZM516.46 115.717L545.717 132.608L547.717 129.144L518.46 112.253L516.46 115.717ZM521.463 40.4355L501.451 28.8814L499.451 32.3455L519.463 43.8996L521.463 40.4355ZM439.579 183.231L354.295 134.053L352.296 137.518L437.581 186.696L439.579 183.231ZM420.684 197.264L439.556 186.709L437.603 183.218L418.732 193.773L420.684 197.264ZM484.746 235.38L531.461 209.218L529.507 205.728L482.791 231.89L484.746 235.38ZM417.713 197.807L482.768 235.367L484.768 231.903L419.713 194.343L417.713 197.807ZM419.458 241.046L378.497 217.397L376.497 220.861L417.458 244.51L419.458 241.046ZM399.456 255.712L419.435 244.523L417.481 241.033L397.501 252.222L399.456 255.712ZM451.639 260.754L431.659 271.944L433.614 275.434L453.594 264.244L451.639 260.754ZM502.057 288.735L453.616 260.767L451.616 264.232L500.057 292.199L502.057 288.735ZM433.607 276.56L453.586 265.371L451.632 261.881L431.652 273.07L433.607 276.56ZM395.498 255.686L431.629 276.547L433.629 273.083L397.498 252.222L395.498 255.686ZM415.5 241.02L395.52 252.209L397.475 255.699L417.455 244.51L415.5 241.02ZM423.29 307.844L321.678 249.178L319.678 252.642L421.29 311.308L423.29 307.844ZM372.285 339.936L423.269 311.32L421.311 307.832L370.327 336.448L372.285 339.936ZM252.178 309.097L217.763 289.227L215.763 292.691L250.178 312.561L252.178 309.097ZM235.282 322.023L252.155 312.574L250.201 309.084L233.328 318.533L235.282 322.023ZM213.783 292.679L248.197 312.548L250.197 309.084L215.783 289.214L213.783 292.679ZM272.009 256.606L213.805 289.201L215.76 292.691L273.964 260.096L272.009 256.606ZM141.361 184.76L271.988 260.083L273.986 256.618L143.359 181.295L141.361 184.76ZM174.324 162.857L141.384 181.282L143.336 184.773L176.277 166.348L174.324 162.857ZM107.759 138.994L118.49 132.984L116.535 129.494L105.804 135.504L107.759 138.994ZM88.3728 129.361L105.814 138.999L107.749 135.498L90.3075 125.86L88.3728 129.361ZM116.543 128.367L105.811 134.377L107.766 137.867L118.497 131.857L116.543 128.367ZM177.295 162.314L118.52 128.38L116.52 131.844L175.295 165.778L177.295 162.314ZM154.931 57.1098L260.938 117.882L262.927 114.411L156.921 53.6396L154.931 57.1098ZM169.67 45.3852L154.949 53.6297L156.903 57.1197L171.625 48.8752L169.67 45.3852ZM212.544 222.548L71.2145 301.696L73.169 305.186L214.498 226.038L212.544 222.548ZM72.1928 304.611L213.512 225.468L211.557 221.978L70.2383 301.121L72.1928 304.611ZM549.698 129.157L519.36 111.642L517.36 115.106L547.698 132.621L549.698 129.157ZM489.805 166.163L549.675 132.634L547.72 129.144L487.851 162.673L489.805 166.163ZM461.456 150.924L487.828 166.15L489.828 162.686L463.456 147.46L461.456 150.924ZM461.521 146.317L416.628 170.75L418.54 174.263L463.433 149.83L461.521 146.317ZM489.835 161.559L463.477 146.342L461.477 149.806L487.835 165.023L489.835 161.559ZM517.505 40.4095L369.952 123.043L371.907 126.533L519.46 43.8995L517.505 40.4095ZM369.952 123.043L351.331 133.472L353.285 136.962L371.907 126.533L369.952 123.043ZM354.273 137.531L373.91 126.533L371.956 123.043L352.318 134.041L354.273 137.531ZM373.91 126.533L521.44 43.9125L519.486 40.4225L371.956 123.043L373.91 126.533Z" fill="#B9B9B9" fill-opacity="0.01" mask="url(#path-2-inside-1)"/>
</g>
<path d="M192.704 305.705L536.542 107.7C541.448 104.875 543.934 101.183 544 97.4805V56L86 219.33V260.162C86.507 263.472 88.9604 266.702 93.36 269.236L156.689 305.705C166.634 311.432 182.759 311.432 192.704 305.705Z" fill="#C8C8C8"/>
<path fill-rule="evenodd" clip-rule="evenodd" d="M108.551 204.293C94.6808 212.301 94.6808 225.285 108.551 233.293L147.49 255.774C161.361 263.782 183.849 263.782 197.72 255.774L523.099 67.9161C536.97 59.908 536.97 46.9243 523.099 38.9161L484.161 16.4348C470.29 8.42669 447.802 8.42667 433.931 16.4348L108.551 204.293ZM129.092 214.141C115.222 222.15 115.222 235.133 129.092 243.141L149.194 254.747C163.064 262.755 185.553 262.755 199.423 254.747L504.262 78.7482C518.132 70.7401 518.132 57.7563 504.262 49.7482L484.16 38.1427C470.29 30.1345 447.801 30.1345 433.931 38.1427L129.092 214.141Z" fill="#A8A8A8"/>
<rect width="415.793" height="89.3797" rx="29" transform="matrix(0.866025 -0.5 0.866025 0.5 96.001 227.933)" fill="#F7F7F7"/>
<path fill-rule="evenodd" clip-rule="evenodd" d="M97.5484 202.837C82.243 211.674 82.243 226.001 97.5483 234.837L143.687 261.475C158.993 270.312 183.807 270.312 199.113 261.475L532.03 69.2657C547.335 60.4291 547.335 46.1022 532.03 37.2657L485.891 10.6274C470.586 1.79085 445.771 1.79087 430.465 10.6274L97.5484 202.837ZM119.12 203.295C105.25 211.303 105.25 224.286 119.12 232.295L148.091 249.021C161.961 257.029 184.45 257.029 198.32 249.021L510.457 68.8083C524.328 60.8001 524.328 47.8164 510.457 39.8082L481.487 23.0821C467.616 15.074 445.128 15.074 431.257 23.0821L119.12 203.295Z" fill="#E2E2E2"/>
<path d="M173.425 227.02L158.814 231.346L156.27 225.735L171.518 222.07L161.198 211.936L167.28 208.374L176.989 219.1L185.61 208.877L191.84 212.376L182.272 222.261L197.991 225.799L195.784 231.512L180.05 227.184L181.032 239.824L173.428 239.999L173.425 227.02Z" fill="#EEC43C"/>
<path d="M208.485 206.482L193.874 210.808L191.33 205.197L206.578 201.533L196.258 191.399L202.34 187.836L212.05 198.563L220.67 188.34L226.9 191.839L217.332 201.723L233.051 205.261L230.844 210.975L215.11 206.647L216.093 219.287L208.488 219.461L208.485 206.482Z" fill="#EEC43C"/>
<path d="M243.546 185.945L228.935 190.271L226.39 184.66L241.639 180.995L231.319 170.861L237.4 167.299L247.11 178.025L255.73 167.802L261.961 171.301L252.393 181.186L268.111 184.724L265.905 190.437L250.17 186.109L251.153 198.749L243.549 198.924L243.546 185.945Z" fill="#EEC43C"/>
<path d="M278.606 165.407L263.995 169.733L261.451 164.122L276.699 160.458L266.379 150.324L272.461 146.761L282.17 157.488L290.791 147.265L297.021 150.764L287.453 160.648L303.172 164.186L300.965 169.9L285.231 165.572L286.213 178.212L278.609 178.386L278.606 165.407Z" fill="#EEC43C"/>
<path d="M313.666 144.87L299.055 149.196L296.511 143.585L311.759 139.92L301.439 129.786L307.521 126.224L317.231 136.95L325.851 126.727L332.082 130.226L322.513 140.111L338.232 143.649L336.025 149.362L320.291 145.034L321.274 157.674L313.669 157.849L313.666 144.87Z" fill="#EEC43C"/>
<path d="M348.727 124.332L334.116 128.658L331.571 123.047L346.82 119.383L336.5 109.249L342.582 105.686L352.291 116.413L360.911 106.19L367.142 109.689L357.574 119.573L373.292 123.111L371.086 128.825L355.351 124.497L356.334 137.137L348.73 137.311L348.727 124.332Z" fill="#EEC43C"/>
<path d="M383.787 103.795L369.176 108.121L366.632 102.51L381.88 98.845L371.56 88.7114L377.642 85.1487L387.351 95.8752L395.972 85.652L402.202 89.1512L392.634 99.0359L408.353 102.574L406.146 108.287L390.412 103.959L391.394 116.599L383.79 116.774L383.787 103.795Z" fill="#EEC43C"/>
<path d="M418.848 83.2574L404.236 87.5834L401.692 81.9721L416.94 78.3075L406.62 68.1739L412.702 64.6112L422.412 75.3377L431.032 65.1145L437.263 68.6137L427.694 78.4984L443.413 82.0363L441.206 87.75L425.472 83.4215L426.455 96.0619L418.851 96.2364L418.848 83.2574Z" fill="#EEC43C"/>
<path d="M453.908 62.7199L439.297 67.0459L436.752 61.4346L452.001 57.77L441.681 47.6364L447.763 44.0737L457.472 54.8002L466.092 44.5771L472.323 48.0762L462.755 57.9609L478.474 61.4988L476.267 67.2125L460.533 62.884L461.515 75.5244L453.911 75.6989L453.908 62.7199Z" fill="#EEC43C"/>
<defs>
<filter id="filter0_d" x="0.0146484" y="7.3418" width="593.054" height="402.673" filterUnits="userSpaceOnUse" color-interpolation-filters="sRGB">
<feFlood flood-opacity="0" result="BackgroundImageFix"/>
<feColorMatrix in="SourceAlpha" type="matrix" values="0 0 0 0 0 0 0 0 0 0 0 0 0 0 0 0 0 0 127 0"/>
<feOffset dy="4"/>
<feGaussianBlur stdDeviation="31"/>
<feColorMatrix type="matrix" values="0 0 0 0 0 0 0 0 0 0 0 0 0 0 0 0 0 0 0.15 0"/>
<feBlend mode="normal" in2="BackgroundImageFix" result="effect1_dropShadow"/>
<feBlend mode="normal" in="SourceGraphic" in2="effect1_dropShadow" result="shape"/>
</filter>
<filter id="filter1_d" x="14" y="0.0571289" width="560" height="372.817" filterUnits="userSpaceOnUse" color-interpolation-filters="sRGB">
<feFlood flood-opacity="0" result="BackgroundImageFix"/>
<feColorMatrix in="SourceAlpha" type="matrix" values="0 0 0 0 0 0 0 0 0 0 0 0 0 0 0 0 0 0 127 0"/>
<feOffset/>
<feGaussianBlur stdDeviation="12"/>
<feColorMatrix type="matrix" values="0 0 0 0 0 0 0 0 0 0 0 0 0 0 0 0 0 0 0.03 0"/>
<feBlend mode="normal" in2="BackgroundImageFix" result="effect1_dropShadow"/>
<feBlend mode="normal" in="SourceGraphic" in2="effect1_dropShadow" result="shape"/>
</filter>
</defs>
</svg>
