<svg width="423" height="578" viewBox="0 0 423 578" fill="none" xmlns="http://www.w3.org/2000/svg">
<g filter="url(#filter0_d)">
<path d="M360.323 468.073C359.798 474.477 354.902 481.057 345.896 486.321L340.038 489.743L316.081 503.604C298.507 513.781 272.102 514.834 256.889 506.061L72.2297 399.115C65.847 395.43 62.5246 390.605 62 385.517C62.5246 379.2 67.4209 372.532 76.4265 367.356L106.241 350.073C123.815 339.896 150.308 338.843 165.434 347.616L181.784 357.091L239.402 390.517L350.005 454.65C351.055 455.264 351.929 455.79 352.803 456.492C357.525 459.65 359.973 463.774 360.323 468.073Z" fill="#C4C4C4" fill-opacity="0.01"/>
</g>
<path d="M76.3643 153.429V342.676C76.3643 347.434 79.2284 352.12 85.3758 355.7L76.3643 153.429ZM76.3643 153.429L345.452 226.3V417.93H345.412L345.374 418.389C344.918 423.936 340.644 429.753 332.562 434.461L76.3643 153.429ZM252.479 452.193L85.3773 355.7L332.56 434.463L305.569 449.976L305.569 449.977C297.695 454.521 287.803 457.037 278.172 457.43C268.536 457.824 259.219 456.089 252.479 452.193L252.228 452.626L252.479 452.193Z" fill="url(#paint0_linear)" stroke="#808080"/>
<path d="M346.03 227.1V240.082C343.655 244.04 339.618 247.76 334.314 250.768L307.321 266.363C298.535 271.429 286.978 274.278 275.658 274.278C266.159 274.278 257.373 272.22 250.961 268.579L83.7791 172.085C80.3753 170.106 77.6839 167.652 75.9424 164.961V151.588L346.03 227.1Z" fill="#505050"/>
<path d="M345.952 226.388C345.477 232.166 341.044 238.103 332.891 242.853L327.587 245.94L305.898 258.447C289.987 267.629 266.081 268.579 252.308 260.663L85.1257 164.17C79.3472 160.845 76.3392 156.491 75.8643 151.9C76.3392 146.201 80.7721 140.185 88.9253 135.514L115.918 119.92C131.829 110.738 155.814 109.788 169.508 117.704L184.311 126.253L236.476 156.412L336.611 214.277C337.561 214.831 338.353 215.306 339.144 215.939C343.419 218.789 345.635 222.509 345.952 226.388Z" fill="#6B6B6B"/>
<path d="M182.252 369.98C180.907 369.98 179.482 369.584 178.057 368.793L162.859 360.006C158.584 357.552 155.26 351.774 155.26 346.866V322.565C155.26 319.477 153.439 314.57 151.143 311.641C142.673 300.875 137.687 288.21 137.687 277.761C137.687 265.492 144.732 257.497 155.576 257.497C160.642 257.497 166.342 259.238 172.041 262.563C189.456 272.616 203.704 295.097 203.704 312.67C203.704 321.536 200.221 328.185 193.81 331.193C192.543 331.826 188.427 334.043 188.427 337.288V362.777C188.427 364.756 187.873 366.497 186.844 367.764C185.735 369.268 184.152 369.98 182.252 369.98Z" fill="#525252"/>
<path d="M174.377 262.746C158.439 253.103 145.522 258.794 145.522 275.55C145.522 285.745 150.357 297.759 157.835 307.717C160.176 310.799 162.292 316.332 162.292 320.284V345.338C162.292 349.29 164.935 354.111 168.259 356.087L182.762 364.86C186.01 366.836 188.729 365.255 188.729 361.303V335.631C189.059 334.615 190.247 333.652 193.413 331.277C198.323 328.827 203.704 329.115 203.704 310.3C203.704 293.465 190.316 272.388 174.377 262.746Z" fill="#272727"/>
<path d="M236.635 156.254H135.629V126.094H184.39L236.635 156.254Z" fill="black" fill-opacity="0.12"/>
<path d="M345.952 226.387C345.477 232.166 341.044 238.103 332.891 242.852L327.588 245.939H291.175V215.859H339.145C343.419 218.788 345.636 222.509 345.952 226.387Z" fill="black" fill-opacity="0.12"/>
<path d="M290.62 245.702C279.538 245.702 270.514 239.448 270.514 228.366V148.575C270.514 118.257 244.233 77.491 213.045 59.5221L193.097 47.965C177.741 39.0993 166.817 39.0993 162.147 41.7906C156.606 45.0361 155.735 53.981 155.735 59.0471V138.918C155.735 150 146.711 156.253 135.629 156.253C124.547 156.253 115.522 150 115.522 138.918V59.0471C115.522 35.2997 124.942 16.8558 142.04 6.96107C161.276 -4.12107 187.24 -1.9046 213.204 13.1354L233.151 24.6134C276.609 49.7065 310.726 104.167 310.726 148.496V228.366C310.726 239.528 301.702 245.702 290.62 245.702Z" fill="url(#paint1_linear)"/>
<defs>
<filter id="filter0_d" x="0" y="283.677" width="422.323" height="294.323" filterUnits="userSpaceOnUse" color-interpolation-filters="sRGB">
<feFlood flood-opacity="0" result="BackgroundImageFix"/>
<feColorMatrix in="SourceAlpha" type="matrix" values="0 0 0 0 0 0 0 0 0 0 0 0 0 0 0 0 0 0 127 0"/>
<feOffset dy="4"/>
<feGaussianBlur stdDeviation="31"/>
<feColorMatrix type="matrix" values="0 0 0 0 0 0 0 0 0 0 0 0 0 0 0 0 0 0 0.14 0"/>
<feBlend mode="normal" in2="BackgroundImageFix" result="effect1_dropShadow"/>
<feBlend mode="normal" in="SourceGraphic" in2="effect1_dropShadow" result="shape"/>
</filter>
<linearGradient id="paint0_linear" x1="75.8723" y1="305.389" x2="345.971" y2="305.389" gradientUnits="userSpaceOnUse">
<stop stop-color="#FBCA2B"/>
<stop offset="0.638116" stop-color="#FAD251"/>
<stop offset="1" stop-color="#FBCA2B"/>
</linearGradient>
<linearGradient id="paint1_linear" x1="115.498" y1="122.864" x2="310.696" y2="122.864" gradientUnits="userSpaceOnUse">
<stop stop-color="#FCD24A"/>
<stop offset="1" stop-color="#F7C92A"/>
</linearGradient>
</defs>
</svg>
