<svg width="423" height="578" viewBox="0 0 423 578" fill="none" xmlns="http://www.w3.org/2000/svg">
<g filter="url(#filter0_d)">
<path d="M360.331 468.073C359.807 474.478 354.91 481.058 345.905 486.322L340.047 489.743L316.09 503.605C298.516 513.782 272.111 514.835 256.898 506.061L72.2384 399.116C65.8558 395.431 62.5334 390.606 62.0088 385.517C62.5334 379.2 67.4297 372.533 76.4353 367.356L106.25 350.073C123.824 339.896 150.316 338.843 165.442 347.617L181.792 357.092L239.411 390.518L350.014 454.65C351.063 455.264 351.938 455.791 352.812 456.493C357.534 459.651 359.982 463.774 360.331 468.073Z" fill="#C4C4C4" fill-opacity="0.01"/>
</g>
<path d="M87.347 376.613L246.73 469.26C261.941 478.102 286.694 478.265 302.018 469.625L333.445 451.905C341.547 447.336 345.392 441.222 344.967 435.166V230.044L76.0002 155V360.622C75.9234 366.379 79.7026 372.169 87.347 376.613Z" fill="url(#paint0_linear)"/>
<path d="M87.347 180.408L246.73 272.314C261.941 281.085 286.694 281.247 302.018 272.676L333.445 255.098C341.547 250.566 345.392 244.5 344.967 238.493V229.444L76.0002 155V164.545C75.9234 170.256 79.7026 176 87.347 180.408Z" fill="#565656"/>
<rect width="246.986" height="100.551" rx="32" transform="matrix(-0.866025 -0.5 0.872496 -0.488621 273.894 277.493)" fill="#6B6B6B"/>
<path d="M188.238 370C186.872 370 185.426 369.602 183.98 368.807L168.555 359.98C164.217 357.515 160.843 351.71 160.843 346.78V322.367C160.843 319.265 158.996 314.335 156.666 311.393C148.07 300.578 143.009 287.854 143.009 277.357C143.009 265.032 150.159 257 161.165 257C166.306 257 172.09 258.749 177.875 262.089C195.548 272.189 210.009 294.773 210.009 312.427C210.009 321.333 206.474 328.013 199.967 331.034C198.681 331.671 194.504 333.897 194.504 337.158V362.764C194.504 364.752 193.942 366.501 192.897 367.773C191.773 369.284 190.166 370 188.238 370Z" fill="#525252"/>
<path d="M179.386 262.746C163.448 253.103 150.531 258.794 150.531 275.55C150.531 285.745 155.366 297.759 162.844 307.717C165.185 310.799 167.3 316.332 167.3 320.284V345.338C167.3 349.29 169.944 354.111 173.268 356.087L187.771 364.86C191.019 366.836 193.738 365.255 193.738 361.303V335.631C194.068 334.615 195.256 333.652 198.422 331.277C203.332 328.827 208.712 329.115 208.712 310.3C208.712 293.465 195.324 272.388 179.386 262.746Z" fill="#272727"/>
<path d="M236.121 156.254H135.115V126.094H183.877L236.121 156.254Z" fill="black" fill-opacity="0.12"/>
<path d="M344.929 227.2C345.662 233.75 339.5 242 331.117 244.716L325.508 246H287V216H337.73C342.251 219.116 344.595 223.074 344.929 227.2Z" fill="black" fill-opacity="0.12"/>
<path d="M192.834 47.5324L192.834 47.532C185.113 43.0745 178.483 40.8321 173.174 40.0493C167.877 39.2682 163.851 39.9351 161.383 41.3574L161.38 41.3592C158.445 43.0784 156.792 46.2765 155.867 49.6022C154.94 52.9388 154.721 56.492 154.721 59.0471V138.918C154.721 144.309 152.532 148.5 149.009 151.353C145.475 154.215 140.567 155.753 135.115 155.753C129.663 155.753 124.755 154.215 121.221 151.353C117.698 148.5 115.509 144.309 115.509 138.918V59.0471C115.509 35.4366 124.866 17.1803 141.777 7.394C160.805 -3.56834 186.57 -1.4174 212.439 13.5681L212.441 13.5688L232.388 25.0464C254.035 37.5458 273.373 57.3716 287.298 79.6067C301.225 101.845 309.713 126.451 309.713 148.496V228.366C309.713 233.798 307.523 237.988 304.001 240.831C300.468 243.682 295.56 245.202 290.106 245.202C284.654 245.202 279.746 243.663 276.212 240.801C272.689 237.948 270.5 233.758 270.5 228.366V148.575C270.5 133.287 263.881 115.421 253.382 99.1467C242.879 82.8664 228.457 68.1205 212.781 59.0888L192.834 47.5324Z" fill="url(#paint1_linear)" stroke="#FFB978"/>
<defs>
<filter id="filter0_d" x="0.00878906" y="283.678" width="422.323" height="294.323" filterUnits="userSpaceOnUse" color-interpolation-filters="sRGB">
<feFlood flood-opacity="0" result="BackgroundImageFix"/>
<feColorMatrix in="SourceAlpha" type="matrix" values="0 0 0 0 0 0 0 0 0 0 0 0 0 0 0 0 0 0 127 0"/>
<feOffset dy="4"/>
<feGaussianBlur stdDeviation="31"/>
<feColorMatrix type="matrix" values="0 0 0 0 0 0 0 0 0 0 0 0 0 0 0 0 0 0 0.16 0"/>
<feBlend mode="normal" in2="BackgroundImageFix" result="effect1_dropShadow"/>
<feBlend mode="normal" in="SourceGraphic" in2="effect1_dropShadow" result="shape"/>
</filter>
<linearGradient id="paint0_linear" x1="76.0071" y1="315.509" x2="345.019" y2="315.509" gradientUnits="userSpaceOnUse">
<stop stop-color="#FBC12B"/>
<stop offset="0.730653" stop-color="#FAD251"/>
<stop offset="1" stop-color="#FBC12B"/>
</linearGradient>
<linearGradient id="paint1_linear" x1="114.984" y1="122.864" x2="310.182" y2="122.864" gradientUnits="userSpaceOnUse">
<stop stop-color="#FCD24A"/>
<stop offset="1" stop-color="#F7BD2A"/>
</linearGradient>
</defs>
</svg>
