<?xml version="1.0" encoding="UTF-8"?>
<svg xmlns="http://www.w3.org/2000/svg" xmlns:xlink="http://www.w3.org/1999/xlink" width="1120px" height="775px" viewBox="0 0 1120 775" version="1.1">
  <!-- Generator: Sketch 61.2 (89653) - https://sketch.com -->
  <title>Hero-Illustration</title>
  <desc>Created with Sketch.</desc>
  <defs>
    <linearGradient x1="50%" y1="0%" x2="50%" y2="100%" id="linearGradient-1">
      <stop stop-color="#B7F6FF" offset="0%"></stop>
      <stop stop-color="#EAFAFF" offset="100%"></stop>
    </linearGradient>
    <linearGradient x1="50%" y1="100%" x2="50%" y2="3.061617e-15%" id="linearGradient-2">
      <stop stop-color="#FAFAFA" stop-opacity="0.532260708" offset="0%"></stop>
      <stop stop-color="#F2F2F2" offset="100%"></stop>
    </linearGradient>
    <linearGradient x1="74.5841437%" y1="7.33647797%" x2="50%" y2="100%" id="linearGradient-3">
      <stop stop-color="#FFE2B0" offset="0%"></stop>
      <stop stop-color="#FFC9B8" offset="100%"></stop>
    </linearGradient>
    <path d="M4.36937436,0.209101515 L273.337582,26.8103528 C274.407964,26.9162148 275.202928,27.8496926 275.136977,28.9232733 L271.43286,89.2205516 L271.43286,89.2205516 L-2.84217094e-13,59.0091228 L2.17399142,2.1230139 C2.21617348,1.01925013 3.14514611,0.158668117 4.24890988,0.200850172 C4.2891386,0.202387575 4.32931173,0.205139277 4.36937436,0.209101515 Z" id="path-4"></path>
    <linearGradient x1="70.9554036%" y1="50%" x2="0%" y2="50%" id="linearGradient-6">
      <stop stop-color="#ECEEF2" offset="0%"></stop>
      <stop stop-color="#C7CAD1" offset="100%"></stop>
    </linearGradient>
    <linearGradient x1="55.1340689%" y1="45.2076023%" x2="58.9496394%" y2="52.3127781%" id="linearGradient-7">
      <stop stop-color="#ECEEF2" offset="0%"></stop>
      <stop stop-color="#C7CAD1" offset="100%"></stop>
    </linearGradient>
    <radialGradient cx="40.2982272%" cy="23.41872%" fx="40.2982272%" fy="23.41872%" r="82.3619277%" id="radialGradient-8">
      <stop stop-color="#738D96" offset="0%"></stop>
      <stop stop-color="#000000" offset="100%"></stop>
    </radialGradient>
    <linearGradient x1="55.1340689%" y1="41.7230992%" x2="58.9496394%" y2="53.9943752%" id="linearGradient-9">
      <stop stop-color="#ECEEF2" offset="0%"></stop>
      <stop stop-color="#C7CAD1" offset="100%"></stop>
    </linearGradient>
    <linearGradient x1="50%" y1="0%" x2="50%" y2="100%" id="linearGradient-10">
      <stop stop-color="#A1F389" offset="0%"></stop>
      <stop stop-color="#51E2A5" offset="100%"></stop>
    </linearGradient>
    <linearGradient x1="50%" y1="0%" x2="50%" y2="100%" id="linearGradient-11">
      <stop stop-color="#A1F389" offset="0%"></stop>
      <stop stop-color="#51E2A5" offset="100%"></stop>
    </linearGradient>
    <linearGradient x1="50%" y1="0%" x2="50%" y2="100%" id="linearGradient-12">
      <stop stop-color="#A1F389" offset="0%"></stop>
      <stop stop-color="#51E2A5" offset="100%"></stop>
    </linearGradient>
    <path d="M11.3415078,3.12763632 C23.2988234,-3.77592305 39.7078717,2.25961973 47.9921429,16.6083984 C56.2764142,30.9571771 53.2988234,48.1856012 41.3415078,55.0891606 C29.3841922,61.9927199 12.975144,55.9571771 4.69087273,41.6083984 C-3.59339852,27.2596197 -0.615807766,10.0311957 11.3415078,3.12763632 Z M17.3415078,13.5199412 C10.1671185,17.6620768 8.38056402,27.9991312 13.3511268,36.6083984 C18.3216895,45.2176657 28.1671185,48.8389913 35.3415078,44.6968557 C42.5158972,40.5547201 44.3024516,30.2176657 39.3318889,21.6083984 C34.3613261,12.9991312 24.5158972,9.37780555 17.3415078,13.5199412 Z" id="path-13"></path>
    <ellipse id="path-15" cx="14" cy="16" rx="10" ry="13"></ellipse>
  </defs>
  <g id="Page-1" stroke="none" stroke-width="1" fill="none" fill-rule="evenodd">
    <g id="Illustrations" transform="translate(-211.000000, -123.000000)">
      <g id="Hero-Illustration" transform="translate(211.000000, 123.000000)">
        <path d="M107.207308,494.64591 C58.402436,491.473566 34,466.98511 34,421.180544 C34,324.767284 172.448371,322.239506 192.718253,240.566712 C212.988135,158.893917 207.240791,38.3927369 312.716246,11.3067853 C418.191702,-15.7791664 493.598287,60.8670043 590.581275,48.0664306 C687.564263,35.2658568 738.36828,-24.5707692 824.228703,11.3067853 C910.089126,47.1843397 867.082184,204.193831 924.859801,236.786345 C943.011246,247.025625 1002.08791,272.270636 1017.34375,338.279775 C1026.14323,376.35345 1012.80794,410.433715 977.337891,440.520569 C829.779297,362.384223 681.666667,328.544034 533,339 C384.333333,349.455966 242.402436,401.337936 107.207308,494.64591 Z" id="Path-32" fill="url(#linearGradient-1)"></path>
        <path d="M1021.48828,657.734176 C1043.36412,649.194429 1084.69967,660.409313 1104.41992,660.759766 C1117.78617,660.9973 1121.24816,650.764789 1119,641.40625 C1103,574.802083 1054,506.314943 972,435.944829 C861.947714,357.884693 727.469743,312 582.275052,312 C432.369536,312 293.887428,360.910442 181.915809,443.643926 C145.42713,470.604647 104.391507,499.745978 81.4176476,534.779397 C40.2246094,597.595703 20.6337891,635.822266 2.58509061,679.275792 C-10.6335664,711.10065 42.3582019,705.258465 68.0748805,688.183742 C88.8175458,674.411542 102.991454,654.192529 129.078239,657.734176 C155.165023,661.275822 182.433024,706.37812 243.055474,694.568077 C303.677924,682.758034 345.897687,644.034213 412.188276,649.225634 C515.885409,657.346477 527.488383,744.722859 605.636668,744.722859 C683.784952,744.722859 688.656928,782.659865 728.454335,773.6027 C768.251742,764.545535 772.165319,717.352538 852.174974,706.76079 C886.709643,702.18906 922.844606,719.598563 943.023437,714.958984 C978.679687,706.76079 984.785156,672.062101 1021.48828,657.734176 Z" id="Oval" fill="url(#linearGradient-2)"></path>
        <path d="M80,525.920899 C80.4339494,528.173979 81.1730145,531.103179 82.2171951,534.708497 C83.783466,540.116476 122.630526,535.591461 131.905462,532.875409 C157.650415,525.336312 192.632339,524.508107 205.644962,544.797076 C218.657585,565.086046 184.42083,602.404396 207.613848,602.404396 C214.728829,602.404396 238.632153,597.774324 259.197511,586.336676 C273.784909,578.223736 283.374648,563.904678 298.907302,557.791524 C332.858487,544.429425 362.581959,546.020681 376.920535,547.130542 C407.067162,549.464008 394.667862,600.175399 434.116893,595.03201 C473.565923,589.888621 496.211382,573.993715 523.131587,551.986885 C538.112335,539.740368 563.201264,555.8984 587.18124,551.986885 C606.292965,548.86946 634.455797,527.529567 643.075749,533.121936 C645.52124,534.708497 645.601807,536.852489 651.056885,538.10259 C656.511963,539.35269 663.482913,539.35269 666.991699,541.727809 C668.340844,542.641053 668.987561,543.875302 668.887695,544.797076 C668.035676,552.661368 655.476934,559.720425 647.92968,568.361151 C643.5793,573.34183 643.004804,581.527648 645.186523,588.016514 C651.963583,608.172833 666.209367,623.571818 681.951357,639.581637 C684.786951,642.465474 690.711275,648.667526 689.718179,654.23301 C688.924492,658.680968 684.510498,670.110352 683.427734,678.269531 C682.344971,686.428711 681.920729,694.722677 681.580811,698.932373 C681.000977,706.113281 684.453325,717.800511 689.087573,729.046602 C692.667494,737.734123 698.844238,746.543173 703.535645,748.052115 C708.227051,749.561057 712.943577,749.507479 714.873535,746.125432 C720.26556,736.676485 722.803429,732.747565 734.58501,712.572567 C750.209824,685.816346 796.713252,663.90822 808.41927,646.684694 C820.125289,629.461168 809.972255,603.295814 808.41927,595.03201 C806.724535,586.013916 759.126388,559.23891 765.459369,552.442041 C783.663759,532.904188 827.62057,577.650191 860.436035,576.218265 C877.322295,575.481421 905.108062,589.560953 912.645263,585.336898 C921.142335,580.574905 910.068911,559.836203 912.645263,551.986885 C916.566069,540.041446 955.684597,537.13582 955.966211,524.671552 C956.011263,522.677552 956.011263,520.384642 955.966211,517.792822 C942.03473,506.631489 927.236365,493.224793 927.750805,487.903954 C928.265245,482.583115 940.798098,474.230478 950.983865,464.447007 C955.808006,459.813399 954.672598,458.067077 954.672598,453.520967 C954.672598,439.090065 925.142617,430.411158 917.930787,422.880802 C911.547531,416.215616 913.76969,410.265278 924.597266,405.029787 C925.014298,402.648933 924.240481,400.922103 922.275815,399.849297 C876.930459,375.088461 824.341458,355.153038 775.50878,342.907358 C767.024729,340.779828 768.253653,346.85967 759.660999,347.11736 C752.996446,347.317227 733.563812,351.356573 727.395085,350.021012 C725.173381,349.540001 721.336787,348.606358 720.72763,347.11736 C719.734283,344.689265 722.513652,341.200463 719.125956,338.881885 C713.378065,334.947961 700.799543,340.832171 691.754913,338.881885 C687.573102,337.980164 686.349701,328.374437 682.951357,327.968098 C587.915635,316.604712 455.665915,322.800367 334.011304,366.936199 C237.771543,401.851619 153.101108,454.846519 80,525.920899 Z" id="Path-2-Copy" fill="#00A66A"></path>
        <path d="M739.276089,421.548898 C729.403546,430.494759 719,431.672792 719,437.241993 C719,442.171258 742.493713,437.372322 752.30036,440.277251 C753.573497,440.65438 754.720738,445.207464 754.492463,446.627703 C754.012289,449.615158 751.923922,453.173005 752.30036,456.97802 C752.731724,461.338214 755.608912,464.442481 775.059036,462.311009 C811.482713,458.319464 792.070729,439.066306 813.988813,439.066306 C822.008824,439.066306 825.770222,435.396153 832.615069,432.198238 C837.396418,429.96439 845.34314,428.097325 848.166014,426.055292 C852.346144,423.031436 849.25313,420.232413 840.188231,420.232413 C835.520987,420.232413 823.278125,423.107259 816.803031,421.548898 C812.166287,420.432973 813.170174,414.73775 809.656533,414.721771 C792.898061,414.645558 783.16625,418.759675 781.490329,414.089956 C781.083382,412.956053 778.288209,410.932152 779.878232,409.710317 C785.299785,405.544186 802.881903,402.576903 802.861261,399.62868 C802.850498,398.091526 788.689347,397.005698 782.480833,396.35949 C780.533046,396.156756 780.152551,391.901791 780.152551,390.719401 C780.152551,389.579331 784.898103,390.331117 784.360655,389.674072 C783.86505,389.068181 782.584239,388.804272 779.878232,389.161397 C775.217288,389.776524 756.345674,392.616436 751.593009,394.519346 C743.204333,397.878073 737.649862,401.056515 734.581316,403.496897 C729.187434,407.786594 740.38207,406.762217 740.345443,412.151443 C740.3384,413.187677 740.570457,420.376025 739.276089,421.548898 Z" id="Path-4-Copy" fill="#F7F7F7"></path>
        <path d="M334.114417,360.120313 C470.484375,311.393359 574.745465,303.288622 668.449171,312.118306 C691.756908,314.31459 658.047321,335.993786 676.831611,340.058579 C681.352406,341.036849 699.542938,335.878928 716.174589,337.592662 C723.313064,338.328213 714.471709,345.841853 720.786689,347.308004 C729.374216,349.301773 753.167358,347.664092 759.715623,347.308004 C774.350393,346.51218 763.669549,336.492038 768.217199,334.835249 C772.764848,333.17846 790.925693,337.742017 797.445824,340.058579 C841.1988,355.603742 882.82083,375.586445 922.311914,400.006687 C913.03303,404.02767 911.584852,409.368652 917.967381,416.029635 C925.86212,424.268802 962.732783,445.152117 953.317372,457.237635 C946.721962,465.703431 925.664407,479.278779 926.144901,483.904314 C926.720819,489.448445 933.180477,494.63884 948.469932,506.881795 C976.51556,529.339194 917.543571,530.251703 912.682459,545.0543 C910.106401,552.898667 921.178563,574.623438 912.682459,579.382428 C905.146117,583.603819 881.510742,569.274688 860.503137,570.333509 C834.968502,571.620501 781.261685,527.26306 763.059369,546.788592 C760.452884,549.584554 774.672084,556.242929 783.866211,562.919335 C797.008531,572.46276 807.471305,582.769558 808.46834,588.072279 C810.021147,596.330871 818.879883,623.925449 812.692221,637.504837 C806.504559,651.084226 747.749505,681.888857 733.929682,709.923031 C728.118318,721.711662 723.76081,729.109375 720.786689,735.294434 C717.812568,741.479492 715.176015,744.32601 711.181152,744.230469 C710.097627,744.205988 706.275933,744.849383 703.134766,742.020511 C701.070978,740.161905 696.287853,733.716987 691.848145,724.370117 C690.388942,721.298073 686.122185,709.138274 685.727051,706.931396 C682.487404,688.837545 682.827246,683.65591 683.790039,674.348101 C685.951575,653.451439 693.235708,644.292161 687.029686,637.504837 C672.58976,621.712364 653.386775,599.526036 646.610488,579.382428 C641.551511,564.343804 665.783107,552.502654 668.449171,540.201019 C669.152556,536.955487 666.91356,535.058848 663.21965,533.506033 C659.933858,532.124779 654.541251,532.677589 650,531.133042 C647.362832,530.236102 645.646131,527.530336 643.143654,526.201247 C631.487309,520.010454 606.36506,541.93884 587.255513,545.0543 C563.278268,548.963347 538.192197,532.815505 523.213156,545.0543 C496.296017,567.047251 473.653138,582.932134 434.208602,588.072279 C394.764066,593.212424 407.161952,542.533014 377.01876,540.201019 C362.681817,539.091858 332.961732,537.501605 299.014414,550.855277 C283.48353,556.964577 273.894883,571.274604 259.309147,579.382428 C238.746131,590.812863 214.845531,595.440015 207.73136,595.440015 C184.540984,595.440015 218.773838,558.145199 205.762698,537.869025 C192.751557,517.59285 156.436764,518.254171 130.694744,525.788513 C121.420865,528.502853 81.8726948,531.615572 80.1320495,525.998783 C78.9716193,522.254257 85.4594495,514.190663 99.5955401,501.808 C158.998665,441.988601 237.171624,394.759372 334.114417,360.120313 Z M776.855487,384.056918 C772.209726,384.670116 753.399586,387.501121 748.662403,389.398064 C740.301053,392.746256 734.764675,395.91473 731.706126,398.347458 C725.296063,403.445934 746.554401,407.780571 738.554454,415.030488 C728.714071,423.948292 716.175566,426.434987 716.175566,431.986721 C716.175566,437.538456 744.417475,433.402505 751.181823,438.559238 C757.946171,443.71597 735.746962,460.956142 772.051989,456.977115 C808.357017,452.998089 789.008267,433.805313 810.854952,433.805313 C818.848839,433.805313 822.597984,430.146671 829.420534,426.958785 C834.186308,424.731943 842.107143,422.870734 844.920822,420.835105 C849.087335,417.820733 846.004396,415.030488 836.969027,415.030488 C832.316986,415.030488 823.208105,417.896318 816.754104,416.342844 C812.132465,415.230419 814.357148,409.553057 810.854952,409.537128 C794.151071,409.461154 780.267613,414.192202 778.597152,409.537128 C776.808468,404.552602 799.790257,398.292287 799.763648,394.491374 C799.752921,392.95904 787.695642,392.547477 781.5994,391.666636 C776.052841,390.865218 787.484479,382.653988 776.855487,384.056918 Z" id="Combined-Shape" fill="#51E2A5"></path>
        <g id="Group-17" transform="translate(427.000000, 484.000000)">
          <path d="M75.8255245,8.53606261 L71.2007255,15.9141382 C73.1293179,16.4831191 74.5341526,17.2569769 75.4152295,18.2357115 L86.7490234,16.033926 C88.8891153,18.1534585 90.095572,18.9848855 90.3355083,21.7131326 L79.6031601,26.6662765 C79.9806809,27.7081969 79.7337136,29.1515845 78.8622584,30.9964393 L88.0487602,32.8282678 C86.6895518,35.7491944 85.1560458,37.2798261 82.0668945,40.144043 L71.1583988,41.0153982 C69.9245739,42.315695 64.4522938,45.1625234 61.9790039,46.4389648 C56.1032382,46.2633967 51.941556,46.0535985 49.4939575,45.8095703 C35.6599962,44.4303094 32.375,44.4303094 28.6264648,43.0603642 C26.1274414,42.1470674 23.743513,40.9381227 21.4746796,39.4335301 C21.3283166,38.1832286 21.6178278,36.7017785 22.3432133,34.9891797 L13,33.0649612 C14.1740189,30.5274109 16.3981987,27.6348392 19.6725395,24.387246 L30.0470728,24.9702209 C31.7383945,23.4209687 33.6093689,22.0926821 35.6599962,20.985361 L33.5625591,14.7045308 C35.7262223,13.4766265 37.9438262,12.4905265 40.215371,11.7462309 C42.4869158,11.0019354 44.6129845,10.3496079 46.5935771,9.78924854 L50.7274854,15.1880177 C52.7370785,14.5438218 54.9966318,14.2223315 57.5061454,14.2235468 L66.4511719,7.52294922 C70.9957905,7.22989692 72.5223241,7.27419965 75.8255245,8.53606261 Z M57.8706487,23.1742108 C50.4148046,22.2537893 40.9476366,25.9593074 36.7251371,31.450717 C32.5026376,36.9421266 35.1237813,42.1399427 42.5796255,43.0603642 C50.0354696,43.9807857 59.5026376,40.2752677 63.7251371,34.783858 C67.9476366,29.2924484 65.3264928,24.0946323 57.8706487,23.1742108 Z" id="Combined-Shape-Copy-5" fill="#1E1F2B" opacity="0.100000001"></path>
          <path d="M65.2437541,10.2931768 L61.7007255,15.9141382 C63.6293179,16.4831191 65.0341526,17.2569769 65.9152295,18.2357115 L75.6812541,9.78924854 C77.821346,11.9087811 79.3751556,19.5251348 79.615092,22.2533819 C76.9311469,23.5073916 74.7147854,24.5379404 72.9660074,25.3450284 L75.0550334,25.966126 L78.5487602,32.8282678 C76.5395508,35.668457 74.1906738,37.690918 70.7561035,40.0056152 L61.282959,40.456543 C60.049134,41.7568398 57.2279286,43.3467278 54.7546387,44.6231692 C53.2638097,44.1545423 51.8155201,43.9407037 50.4097697,43.9816534 C46.2982033,44.1014238 41.5104868,40.1014238 37.2251371,39.9816534 C28.9804618,39.7512245 9.97246819,34.3979548 8.53709564,34.1023423 C7.41774106,33.8718131 5.73870918,33.5260195 3.5,33.0649612 L4.26325641e-14,25.966126 C5.81833456,25.8690282 9.20918107,25.3427349 10.1725395,24.387246 L20.5470728,24.9702209 C22.2383945,23.4209687 24.1093689,22.0926821 26.1599962,20.985361 L24.0625591,14.7045308 C26.2262223,13.4766265 28.4438262,12.4905265 30.715371,11.7462309 C32.9869158,11.0019354 35.1129845,10.3496079 37.0935771,9.78924854 L41.2274854,15.1880177 C43.2370785,14.5438218 45.4966318,14.2223315 48.0061454,14.2235468 L62.8255245,1.53606261 C65.3555705,6.15157527 64.6929729,7.6234991 65.2437541,10.2931768 Z M48.3706487,23.1742108 C40.9148046,22.2537893 31.4476366,25.9593074 27.2251371,31.450717 C23.0026376,36.9421266 50.0026376,40.2752677 54.2251371,34.783858 C58.4476366,29.2924484 55.8264928,24.0946323 48.3706487,23.1742108 Z" id="Combined-Shape-Copy-4" fill="#5E8795"></path>
          <path d="M62.8255245,1.53606261 L58.2007255,8.91413821 C60.1293179,9.48311912 61.5341526,10.2569769 62.4152295,11.2357115 L73.7654659,7.44146311 C75.9055578,9.56099566 77.095572,11.9848855 77.3355083,14.7131326 L66.6031601,19.6662765 C66.9806809,20.7081969 66.7337136,22.1515845 65.8622584,23.9964393 L75.0487602,25.8282678 C73.6895518,28.7491944 71.465372,31.6417661 68.3762207,34.505983 L58.1583988,34.0153982 C56.9245739,35.315695 55.0710164,36.6040642 52.5977265,37.8805056 L54.6048503,44.2746175 C53.3549777,44.9607851 52.2941322,44.6496552 46.1812541,43.2006491 C43.9356566,42.6683491 34.3068287,44.1269606 29.5796255,43.2006491 C26.8946035,42.6745099 15.7456814,40.4618439 10.5777385,37.8805056 C8.7407058,36.9629252 8.03968619,35.1472667 8.47467962,32.4335301 C8.32831657,31.1832286 8.61782779,29.7017785 9.34321329,27.9891797 L3.97903932e-13,26.0649612 C1.17401887,23.5274109 3.39819871,20.6348392 6.67253952,17.387246 L17.0470728,17.9702209 C18.7383945,16.4209687 20.6093689,15.0926821 22.6599962,13.985361 L20.5625591,7.70453085 C22.7262223,6.47662646 24.9438262,5.49052649 27.215371,4.74623095 C29.4869158,4.0019354 31.6129845,3.34960793 33.5935771,2.78924854 L37.7274854,8.18801768 C39.7370785,7.54382177 41.9966318,7.22233149 44.5061454,7.22354683 L51.053796,0.0828466233 C55.5984146,-0.21020568 59.5223241,0.274199647 62.8255245,1.53606261 Z M44.8706487,16.1742108 C37.4148046,15.2537893 27.9476366,18.9593074 23.7251371,24.450717 C19.5026376,29.9421266 22.1237813,35.1399427 29.5796255,36.0603642 C37.0354696,36.9807857 46.5026376,33.2752677 50.7251371,27.783858 C54.9476366,22.2924484 52.3264928,17.0946323 44.8706487,16.1742108 Z" id="Combined-Shape-Copy-3" fill="#EAECF2"></path>
        </g>
        <path d="M262.010516,411.482857 L260.690455,411.857442 C259.096531,412.30974 258.171061,413.968531 258.623359,415.562454 C258.938406,416.672698 259.862391,417.503789 260.999688,417.699876 L604.893555,476.992355 C608.664403,477.642506 612.543393,476.919715 615.827014,474.955071 L713.1079,416.750313 C714.055764,416.183191 714.364416,414.955052 713.797293,414.007188 C713.485374,413.485861 712.953407,413.13457 712.351471,413.052423 L689.984832,410 L689.984832,410 L262.010516,411.482857 Z" id="Path-3" fill="#1E1F2B" opacity="0.100000001"></path>
        <g id="Group-11" transform="translate(575.000000, 86.000000)">
          <path d="M2.76525879,1.25842285 L5.49425573,0.457590815 C6.52330276,0.15561399 7.60256179,0.0636222969 8.66787154,0.187084585 L64.9209822,6.70644457 C68.9559464,7.17406998 72,10.5912836 72,14.6532547 L72,75.508174 C72,77.0469129 71.1173489,78.4492373 69.7299628,79.1147276 L67.3112793,80.2749023 L67.3112793,80.2749023 L2.76525879,1.25842285 Z" id="Rectangle-Copy-7" fill="#C6C8D1"></path>
          <path d="M4.46068208,1.044036 L61.9213642,7.70614407 C65.9561601,8.17394649 69,11.5910856 69,15.65291 L69,77.036292 C69,79.245431 67.209139,81.036292 65,81.036292 C64.8460551,81.036292 64.6922385,81.0274049 64.5393179,81.0096749 L7.07863584,74.3475669 C3.04383993,73.8797644 4.9743002e-16,70.4626253 0,66.400801 L0,5.01741894 C-1.15871992e-15,2.80827994 1.790861,1.01741894 4,1.01741894 C4.15394495,1.01741894 4.30776152,1.02630608 4.46068208,1.044036 Z" id="Rectangle" fill="#F4F6FC"></path>
          <g id="Group-12" transform="translate(14.000000, 19.000000)" fill-rule="nonzero">
            <path d="M23.6975494,14.0058726 L21.8975493,14.0058726 L23.6975494,39.6389225 L21.1377559,40.6710603 L18.5759972,38.61345 L18.5759972,13.9083863 L16.7759972,13.0083863 L11.9428774,15.7125491 L11.9428774,37.6333977 L19.3500008,45.0000018 L21.1377559,45.0000018 L30.4104879,41.2621385 L30.4104879,19.3667455 L23.6975494,14.0058726 Z M21.1377559,0 L19.3500008,0 L1.80000007,7.69616976 L1.80000007,29.6198468 L5.0223834,33.5309845 L6.82238347,32.7742108 L6.82238347,11.6052233 L21.1416864,5.87551753 L35.4742924,17.2837979 L35.5334006,17.328735 L33.7270513,39.1997931 L35.5270514,39.1997931 L40.5000016,37.3067612 L40.5000016,15.3830841 L21.1377559,0 Z" id="Shape-Copy-3" fill="#D15D33"></path>
            <path d="M21.8975493,14.0058726 L21.8975493,39.6389225 L19.3377558,40.6710603 L16.7759972,38.61345 L16.7759972,13.0083863 L10.1428774,15.7125491 L10.1428774,37.6333977 L19.3377558,45.0000018 L28.6104879,41.2621385 L28.6104879,19.3667455 L21.8975493,14.0058726 Z M19.3377558,2.04636316e-13 L0,7.69616976 L0,29.6198468 L5.0223834,33.5309845 L5.0223834,11.6052233 L19.3416863,5.87551753 L33.6742924,17.2837979 L33.7334006,17.328735 L33.7270513,39.1997931 L38.7000015,37.3067612 L38.7000015,15.3830841 L19.3377558,2.04636316e-13 Z" id="Shape" fill="#EC6737"></path>
          </g>
        </g>
        <g id="Group-23" transform="translate(658.000000, 42.000000)">
          <path d="M84.9482422,76.2646484 C93.1564941,59.3676758 94.0786133,58.8486328 103.743164,41.4458008 C110.721404,28.8801745 120.305369,16.5123452 136.616204,7.96533773 C142.895148,4.67512102 147.094291,7.67670039 155.602051,5.72558594 C157.534176,12.356216 157.787682,18.219977 156.362569,23.316869 C152.339735,37.7044608 143.480598,51.6424576 129.785156,65.1308594 C120.600464,74.1767024 110.54541,81.0505371 101.711914,89.0444336 C94.342041,86.6760254 90.9052734,83.3212891 84.9482422,76.2646484 Z" id="Path-62" fill="#DCDEE6"></path>
          <path d="M136.70429,7.91925108 C140.322249,6.02926923 146.310123,3.79342079 154.667911,1.21170577 L154.66791,1.2117042 C156.25096,0.722701348 157.93069,1.60960127 158.419693,3.19265061 C158.519551,3.51592324 158.564005,3.85375917 158.551171,4.19186011 C158.203133,13.3609284 157.466133,19.7625726 156.340171,23.3967925 C151.347262,22.7637309 147.232569,20.9555227 143.996094,17.972168 C140.899414,15.1176758 138.468813,11.7667035 136.70429,7.91925108 Z" id="Path-62-Copy" fill="#00B3F2"></path>
          <circle id="Oval" stroke="#B6B8C6" stroke-width="2" fill="#F0F2F8" cx="131.879883" cy="34" r="10"></circle>
          <path d="M107.358398,83.2568359 C119.876628,68.726237 126.923177,61.9853516 128.498047,63.0341797 C130.860352,64.6074219 130.860352,80.1748047 126.115234,88.2285156 C123.372551,92.8835695 120.595122,96.0502882 117.782947,97.7286715 L117.782967,97.7287056 C117.308706,98.0117579 116.694781,97.8567522 116.411729,97.3824906 C116.349768,97.2786737 116.307146,97.1644817 116.285932,97.0454564 C115.882435,94.781622 115.164078,92.7277328 114.130859,90.8837891 C112.895833,88.6796875 110.638346,86.1373698 107.358398,83.2568359 Z" id="Path-63" fill="#00B3F2"></path>
          <path d="M90.3188477,67.4709473 C97.5485026,57.4133301 101.702311,51.1617839 102.780273,48.7163086 C104.397217,45.0480957 105.322266,42.7456055 102.780273,42.097168 C100.238281,41.4487305 88.6943359,41.8075641 81.2192383,48.7163086 C76.5482148,53.0334305 72.8172422,58.0041527 70.0263205,63.6284752 L70.0263599,63.6284947 C69.9036239,63.8758347 70.0046355,64.1758406 70.2519755,64.2985766 C70.3748146,64.3595323 70.5172991,64.3673557 70.6460734,64.3202154 C74.6365926,62.8594104 77.7218533,62.3956089 79.9018555,62.9288107 C82.2898763,63.5128913 85.762207,65.0269368 90.3188477,67.4709473 Z" id="Path-64" fill="#00B3F2"></path>
          <polygon id="Path-67" fill="#FFFFFF" opacity="0.3" points="84.9482422 81.9472656 -5.35495259e-13 164.956055 29.8720703 186.59668 93.6821289 89.0444336"></polygon>
          <polygon id="Path-65" fill="#313652" points="85.7890625 76.7832031 84.9482422 82.2929688 93.3642578 89.0444336 99.9160156 88.0515137"></polygon>
          <path d="M84.9482422,82.2929688 C68.2294922,102.241536 61.410319,113.554199 64.4907227,116.230957 C67.5711263,118.907715 77.195638,109.84554 93.3642578,89.0444336 L84.9482422,82.2929688 Z" id="Path-66" fill="url(#linearGradient-3)"></path>
          <path d="M147.504081,7.17592326 C148.046579,7.07241403 148.570271,7.4282849 148.67378,7.97078309 C148.77729,8.51328127 148.421419,9.03697376 147.878921,9.14048299 C133.223157,11.9368182 119.293978,24.9000267 106.895194,48.459205 L106.189933,49.8047124 C103.245318,55.3609609 98.1027194,63.7918421 90.7557886,75.1108514 C90.4550999,75.5741059 89.8358015,75.7058915 89.3725471,75.4052027 C88.9092926,75.104514 88.777507,74.4852156 89.0781957,74.0219611 L90.7274001,71.4721551 C97.3021731,61.2695328 101.923195,53.6285179 104.585153,48.5604022 L104.745682,48.2533242 C117.494069,23.7484528 132.000334,10.1340546 147.504081,7.17592326 Z" id="Path-68" fill="#FFFFFF" fill-rule="nonzero" opacity="0.200000003"></path>
        </g>
        <g id="Group-3" transform="translate(246.000000, 183.000000)">
          <path d="M173.953857,1.27114759 L182.827223,0.0900302796 C183.276687,0.0302029057 183.731485,0.0215178214 184.182906,0.0641413609 L457.249802,25.8473496 C460.460356,26.1504929 462.85706,28.9372199 462.676359,32.1569869 L452.501612,213.452471 C452.433484,214.666391 451.998172,215.83097 451.253339,216.791941 L448.095703,220.865874 L448.095703,220.865874 L173.953857,1.27114759 Z" id="Rectangle-Copy-2" fill="#738D96"></path>
          <path d="M176.315338,0.980302536 L453.246844,26.8527961 C456.458671,27.152863 458.858419,29.9387545 458.679483,33.1596014 L448.360751,218.896769 C448.17694,222.205376 445.345775,224.738523 442.037169,224.554711 C441.876397,224.545779 441.71605,224.530379 441.556517,224.508548 L168.386756,187.127423 C165.329778,186.7091 163.088434,184.040461 163.204472,180.957177 L169.76146,6.72864097 C169.886081,3.41727666 172.671498,0.833910981 175.982862,0.958532219 C176.093868,0.962709851 176.204736,0.969969421 176.315338,0.980302536 Z" id="Rectangle" fill="#F0F2F8"></path>
          <path d="M179.114249,7.59938973 L448.085419,34.200934 C449.15461,34.3066782 449.949222,35.2382841 449.885001,36.3107701 L440.129109,199.234162 C440.063086,200.336756 439.115734,201.177063 438.013139,201.111039 C437.961971,201.107975 437.91094,201.102945 437.860158,201.095961 L172.795216,164.637214 C171.776404,164.49708 171.029929,163.607146 171.069202,162.579491 L176.918866,9.51330211 C176.961048,8.40953834 177.89002,7.54895633 178.993784,7.59113839 C179.034013,7.59267579 179.074186,7.59542749 179.114249,7.59938973 Z" id="Rectangle-Copy-3" fill="#FFFFFF"></path>
          <path d="M318.986686,100.230387 L358.129525,104.769613 C359.261935,104.900933 360.116211,105.860001 360.116211,107 C360.116211,107.98388 359.318619,108.781472 358.334739,108.781472 C358.266163,108.781472 358.197644,108.777512 358.129525,108.769613 L318.986686,104.230387 C317.854276,104.099067 317,103.139999 317,102 C317,101.01612 317.797592,100.218528 318.781472,100.218528 C318.850048,100.218528 318.918567,100.222488 318.986686,100.230387 Z" id="Rectangle-Copy-31" fill="#C6C8D1" opacity="0.900000036"></path>
          <path d="M318.986686,110.230387 L358.129525,114.769613 C359.261935,114.900933 360.116211,115.860001 360.116211,117 C360.116211,117.98388 359.318619,118.781472 358.334739,118.781472 C358.266163,118.781472 358.197644,118.777512 358.129525,118.769613 L318.986686,114.230387 C317.854276,114.099067 317,113.139999 317,112 C317,111.01612 317.797592,110.218528 318.781472,110.218528 C318.850048,110.218528 318.918567,110.222488 318.986686,110.230387 Z" id="Rectangle-Copy-30" fill="#C6C8D1" opacity="0.900000036"></path>
          <path d="M318.986686,120.230387 L358.129525,124.769613 C359.261935,124.900933 360.116211,125.860001 360.116211,127 C360.116211,127.98388 359.318619,128.781472 358.334739,128.781472 C358.266163,128.781472 358.197644,128.777512 358.129525,128.769613 L318.986686,124.230387 C317.854276,124.099067 317,123.139999 317,122 C317,121.01612 317.797592,120.218528 318.781472,120.218528 C318.850048,120.218528 318.918567,120.222488 318.986686,120.230387 Z" id="Rectangle-Copy-29" fill="#C6C8D1" opacity="0.900000036"></path>
          <path d="M372.986686,107.230387 L412.129525,111.769613 C413.261935,111.900933 414.116211,112.860001 414.116211,114 C414.116211,114.98388 413.318619,115.781472 412.334739,115.781472 C412.266163,115.781472 412.197644,115.777512 412.129525,115.769613 L372.986686,111.230387 C371.854276,111.099067 371,110.139999 371,109 C371,108.01612 371.797592,107.218528 372.781472,107.218528 C372.850048,107.218528 372.918567,107.222488 372.986686,107.230387 Z" id="Rectangle-Copy-34" fill="#C6C8D1" opacity="0.900000036"></path>
          <path d="M372.986686,117.230387 L412.129525,121.769613 C413.261935,121.900933 414.116211,122.860001 414.116211,124 C414.116211,124.98388 413.318619,125.781472 412.334739,125.781472 C412.266163,125.781472 412.197644,125.777512 412.129525,125.769613 L372.986686,121.230387 C371.854276,121.099067 371,120.139999 371,119 C371,118.01612 371.797592,117.218528 372.781472,117.218528 C372.850048,117.218528 372.918567,117.222488 372.986686,117.230387 Z" id="Rectangle-Copy-33" fill="#C6C8D1" opacity="0.900000036"></path>
          <path d="M372.988089,127.217947 L396.377633,129.782053 C397.509029,129.906084 398.365723,130.861826 398.365723,132 C398.365723,132.990097 397.56309,133.79273 396.572993,133.79273 C396.507727,133.79273 396.44251,133.789166 396.377633,133.782053 L372.988089,131.217947 C371.856693,131.093916 371,130.138174 371,129 C371,128.009903 371.802632,127.20727 372.79273,127.20727 C372.857995,127.20727 372.923212,127.210834 372.988089,127.217947 Z" id="Rectangle-Copy-32" fill="#C6C8D1" opacity="0.900000036"></path>
          <g id="Path-27" transform="translate(174.744874, 7.390288)">
            <mask id="mask-5" fill="white">
              <use xlink:href="#path-4"></use>
            </mask>
            <use id="Mask" fill="#5E8795" xlink:href="#path-4"></use>
            <path d="M133.173482,57.2243015 C133.173482,54.7052589 134.702969,53.0476568 137.116048,52.2814829 C138.540293,51.8292726 140.706022,51.7890786 142.618851,53.1741822 C143.501081,53.8130159 144.193335,54.7624278 144.695614,56.022418 C146.105741,55.2023102 147.241407,54.8503269 148.102611,54.9664679 C150.892261,55.3426771 151.596532,57.3221619 152,57.3221619 L143.577379,62 L131.550014,62 C130.394111,62.0057714 129.621465,61.5551092 129.232076,60.6480135 C128.842687,59.7409178 128.943301,58.7829024 129.533919,57.7739673 C130.637041,56.9052318 131.850229,56.7220099 133.173482,57.2243015 Z" id="Path-30" fill="#FFFFFF" opacity="0.200000003" mask="url(#mask-5)" transform="translate(140.500000, 57.000000) rotate(6.000000) translate(-140.500000, -57.000000) "></path>
            <path d="M217.813231,68.6097118 L167.605236,48.7900225 C165.89398,48.1145013 163.967399,48.2614107 162.378355,49.188593 L80.4371665,97 L80.4371665,97 L190.49145,117.856191 L217.813231,68.6097118 Z" id="Path-28" fill="#00DA8C" mask="url(#mask-5)"></path>
            <path d="M207.207067,48.5898334 L194.686671,48.6097118 C192.966189,46.4906691 192.796509,44.416094 194.177631,42.3859863 C195.558753,40.3558786 198.105691,40.0318803 201.818444,41.4139914 C201.578308,38.4738907 202.798408,36.6072758 205.478744,35.8141466 C207.089431,35.3375335 209.747043,35.6714975 211.079852,37.0567851 C212.141504,38.160239 212.866595,39.3960951 213.255126,40.7643535 L207.207067,48.5898334 Z" id="Path-29" fill="#FFFFFF" opacity="0.5" mask="url(#mask-5)" transform="translate(203.255126, 42.109712) rotate(7.000000) translate(-203.255126, -42.109712) "></path>
            <path d="M171.861571,82.6278245 L216.50532,38.4429563 C218.764723,36.2067778 222.376091,36.120914 224.739215,38.2471873 L282.823073,90.5094342 L282.823073,90.5094342 L171.861571,82.6278245 Z" fill="#00FBA2" mask="url(#mask-5)"></path>
          </g>
          <path d="M331.990705,29.192592 L347.28908,30.6726424 C348.418233,30.781883 349.279785,31.7308088 349.279785,32.8652344 C349.279785,33.8680988 348.466803,34.6810811 347.463938,34.6810811 C347.40555,34.6810811 347.347196,34.6782649 347.28908,34.6726424 L331.990705,33.192592 C330.861552,33.0833514 330,32.1344256 330,31 C330,29.9971356 330.812982,29.1841533 331.815847,29.1841533 C331.874235,29.1841533 331.932589,29.1869695 331.990705,29.192592 Z" id="Rectangle-Copy-37" fill="#FFFFFF" opacity="0.400000006"></path>
          <path d="M354.990705,32.192592 L370.28908,33.6726424 C371.418233,33.781883 372.279785,34.7308088 372.279785,35.8652344 C372.279785,36.8680988 371.466803,37.6810811 370.463938,37.6810811 C370.40555,37.6810811 370.347196,37.6782649 370.28908,37.6726424 L354.990705,36.192592 C353.861552,36.0833514 353,35.1344256 353,34 C353,32.9971356 353.812982,32.1841533 354.815847,32.1841533 C354.874235,32.1841533 354.932589,32.1869695 354.990705,32.192592 Z" id="Rectangle-Copy-38" fill="#FFFFFF" opacity="0.200000003"></path>
          <path d="M378.990705,34.192592 L394.28908,35.6726424 C395.418233,35.781883 396.279785,36.7308088 396.279785,37.8652344 C396.279785,38.8680988 395.466803,39.6810811 394.463938,39.6810811 C394.40555,39.6810811 394.347196,39.6782649 394.28908,39.6726424 L378.990705,38.192592 C377.861552,38.0833514 377,37.1344256 377,36 C377,34.9971356 377.812982,34.1841533 378.815847,34.1841533 C378.874235,34.1841533 378.932589,34.1869695 378.990705,34.192592 Z" id="Rectangle-Copy-39" fill="#FFFFFF" opacity="0.400000006"></path>
          <path d="M401.990705,36.192592 L417.28908,37.6726424 C418.418233,37.781883 419.279785,38.7308088 419.279785,39.8652344 C419.279785,40.8680988 418.466803,41.6810811 417.463938,41.6810811 C417.40555,41.6810811 417.347196,41.6782649 417.28908,41.6726424 L401.990705,40.192592 C400.861552,40.0833514 400,39.1344256 400,38 C400,36.9971356 400.812982,36.1841533 401.815847,36.1841533 C401.874235,36.1841533 401.932589,36.1869695 401.990705,36.192592 Z" id="Rectangle-Copy-40" fill="#FFFFFF" opacity="0.300000012"></path>
          <path d="M163.121129,184.733743 L449.044189,216.197266 L449.044189,216.197266 L449.044189,224.797768 C449.044189,226.306036 448.195791,227.686069 446.849965,228.366967 L351.044602,276.838058 C347.760619,278.499533 344.046254,279.114426 340.402042,278.599877 L15.6792659,232.750215 C13.7554819,232.478584 12.305083,230.863852 12.2407009,228.922053 L11.9437256,219.965117 L11.9437256,219.965117 L156.946927,185.123878 C158.967056,184.638483 161.055969,184.506489 163.121129,184.733743 Z" id="Rectangle-Copy" fill="#738D96"></path>
          <path d="M163.748623,174.896859 L446.477201,213.103423 C448.119131,213.325306 449.270307,214.836224 449.048424,216.478154 C448.916544,217.454068 448.3141,218.30311 447.436496,218.74989 L351.088954,267.799548 C347.777639,269.485309 344.025767,270.104994 340.348244,269.573561 L13.8129723,222.386382 C12.1731515,222.149414 11.035915,220.627976 11.2728833,218.988155 C11.4416315,217.820418 12.2791848,216.860023 13.4131191,216.534016 L156.364567,175.435475 C158.762006,174.746212 161.27654,174.562794 163.748623,174.896859 Z" id="Rectangle" fill="#EAECF2"></path>
          <path d="M90.442547,205.201844 L366.285581,241.842854 C367.736614,242.035599 369.212718,241.826537 370.553159,241.238433 L423.674857,217.931869 C424.180607,217.709977 424.410718,217.120107 424.188826,216.614358 C424.048236,216.293916 423.750375,216.070272 423.403434,216.02466 L164.681249,182.010521 C163.572731,181.864784 162.445973,181.953023 161.373655,182.269547 L90.291122,203.251461 C89.7614312,203.407814 89.4587807,203.963962 89.6151331,204.493653 C89.7269231,204.872375 90.0511089,205.149848 90.442547,205.201844 Z" id="Path-8" fill="#C0C2D1"></path>
          <path d="M126.408254,234.616286 L214.79164,247.040441 C216.216015,247.240667 217.668026,247.053164 218.994812,246.497671 L253.069951,232.231231 C253.579389,232.017942 253.819464,231.432057 253.606175,230.92262 C253.468471,230.593717 253.166056,230.363019 252.812455,230.31713 L167.42688,219.236048 C166.194411,219.076102 164.941626,219.205501 163.767869,219.613985 L126.218778,232.681581 C125.697177,232.863105 125.421491,233.4331 125.603015,233.954701 C125.726218,234.30872 126.03706,234.564107 126.408254,234.616286 Z" id="Path-8-Copy" fill="#DCDEE6"></path>
        </g>
        <path d="M411.49352,217 L550.460916,231.016868 C554.13711,231.387665 556.892081,234.55182 556.753505,238.244067 L552.022502,364.297184 C551.877506,368.160457 548.628162,371.174716 544.764889,371.029721 C544.540465,371.021298 544.316577,371.002079 544.094,370.972132 L408,352.66092 L408,352.66092 L411.49352,217 Z" id="Rectangle" fill="#1E1F2B" opacity="0.08"></path>
        <g id="Group-6" transform="translate(650.000000, 402.000000)">
          <path d="M4.79999971,101.915036 L77.3392993,119.784618 C77.7380631,119.882851 78.1574007,119.855943 78.5403394,119.707552 L141.27242,95.3983805 C141.529906,95.2986027 141.657753,95.0089832 141.557976,94.7514973 C141.48942,94.5745843 141.326639,94.4517153 141.137711,94.4342773 L118.599993,92.3540491 L118.599993,92.3540491 L4.79999971,101.915036 Z" id="Path-49" fill="#1E1F2B" opacity="0.100000001"></path>
          <g id="Group-18-Copy-2" transform="translate(0.000000, 59.000000)">
            <polygon id="Rectangle-Copy-21" fill="#CCCFD6" points="69.2593713 48.9445267 118.599993 29.9150362 118.599993 34.3150359 69.2593713 53.7445264"></polygon>
            <polygon id="Rectangle" fill="#E8EAF5" points="69.2593713 33.3445277 124.459368 12.1445295 124.459368 28.3445285 69.2593713 50.1445267"></polygon>
            <polygon id="Rectangle-Copy-20" fill="#C2C5CC" points="69.2593713 48.9445267 4.79999971 37.5150365 4.79999971 42.9150362 69.2593713 53.7445264"></polygon>
            <polygon id="Rectangle-Copy-19" fill="#D5D8E0" points="69.2593713 33.3445277 -7.91641054e-13 21.1150376 -7.91641054e-13 37.3150366 69.2593713 50.1445267"></polygon>
            <polygon id="Rectangle" fill="#00B3F2" points="113.059369 20.144529 115.459369 19.2295532 115.459369 29.0142822 113.059369 30.0292358"></polygon>
            <polygon id="Rectangle-Copy-16" fill="#00B3F2" points="107.059369 22.1246948 109.459369 21.0794067 109.459369 31.0924286 107.059369 32.1541138"></polygon>
            <polygon id="Rectangle-Copy-17" fill="#00B3F2" points="101.059369 24.4758301 103.459369 23.3121948 103.459369 33.6575651 101.059369 34.7163696"></polygon>
            <polygon id="Rectangle-Copy-18" fill="#00B3F2" points="95.0593698 26.6772461 97.4593696 25.5205688 97.4593696 36.1312954 95.0593698 37.1033936"></polygon>
            <path d="M75.4745325,41.4412112 C76.468645,41.4412112 77.2745324,40.5010092 77.2745324,39.3412113 C77.2745324,38.1814134 76.468645,37.2412114 75.4745325,37.2412114 C74.48042,37.2412114 73.6745326,38.1814134 73.6745326,39.3412113 C73.6745326,40.5010092 74.48042,41.4412112 75.4745325,41.4412112 Z" id="Oval" fill="#313652" transform="translate(75.474532, 39.341211) rotate(-157.000000) translate(-75.474532, -39.341211) "></path>
            <polygon id="Rectangle" fill="#06D7AF" points="79.4268561 36.5313963 89.7431641 32.5123537 89.7431641 34.9123535 79.4268561 38.9313961"></polygon>
            <polygon id="Path-48" fill="#F5F8FA" points="69.2593713 33.3540491 1.36450435e-13 21.1150376 57.5380826 5.49207614e-13 124.459368 12.2371809"></polygon>
          </g>
          <g id="Group-18-Copy" transform="translate(0.000000, 36.000000)">
            <polygon id="Rectangle-Copy-21" fill="#8AABB7" points="69.2593713 48.9445267 118.599993 29.9150362 118.599993 34.3150359 69.2593713 53.7445264"></polygon>
            <polygon id="Rectangle" fill="#E8EAF5" points="69.2593713 33.3445277 124.459368 12.1445295 124.459368 28.3445285 69.2593713 50.1445267"></polygon>
            <polygon id="Rectangle-Copy-20" fill="#738D96" points="69.2593713 48.9445267 4.79999971 37.5150365 4.79999971 42.9150362 69.2593713 53.7445264"></polygon>
            <polygon id="Rectangle-Copy-19" fill="#D5D8E0" points="69.2593713 33.3445277 -7.91641054e-13 21.1150376 -7.91641054e-13 37.3150366 69.2593713 50.1445267"></polygon>
            <polygon id="Rectangle" fill="#00B3F2" points="113.059369 20.144529 115.459369 19.2295532 115.459369 29.0142822 113.059369 30.0292358"></polygon>
            <polygon id="Rectangle-Copy-16" fill="#00B3F2" points="107.059369 22.1246948 109.459369 21.0794067 109.459369 31.0924286 107.059369 32.1541138"></polygon>
            <polygon id="Rectangle-Copy-17" fill="#00B3F2" points="101.059369 24.4758301 103.459369 23.3121948 103.459369 33.6575651 101.059369 34.7163696"></polygon>
            <polygon id="Rectangle-Copy-18" fill="#00B3F2" points="95.0593698 26.6772461 97.4593696 25.5205688 97.4593696 36.1312954 95.0593698 37.1033936"></polygon>
            <path d="M75.4745325,41.4412112 C76.468645,41.4412112 77.2745324,40.5010092 77.2745324,39.3412113 C77.2745324,38.1814134 76.468645,37.2412114 75.4745325,37.2412114 C74.48042,37.2412114 73.6745326,38.1814134 73.6745326,39.3412113 C73.6745326,40.5010092 74.48042,41.4412112 75.4745325,41.4412112 Z" id="Oval" fill="#313652" transform="translate(75.474532, 39.341211) rotate(-157.000000) translate(-75.474532, -39.341211) "></path>
            <polygon id="Rectangle" fill="#06D7AF" points="79.4268561 36.5313963 89.7431641 32.5123537 89.7431641 34.9123535 79.4268561 38.9313961"></polygon>
            <polygon id="Path-48" fill="#F5F8FA" points="69.2593713 33.3540491 1.36450435e-13 21.1150376 57.5380826 5.49207614e-13 124.459368 12.2371809"></polygon>
          </g>
          <g id="Group-18">
            <polygon id="Rectangle-Copy-21" fill="#8AABB7" points="69.2593713 61.9445267 118.599993 42.9150362 118.599993 47.3150359 69.2593713 66.7445264"></polygon>
            <polygon id="Rectangle" fill="#E8EAF5" points="69.2593713 46.3445277 124.459368 25.1445295 124.459368 41.3445285 69.2593713 63.1445267"></polygon>
            <polygon id="Rectangle-Copy-20" fill="#738D96" points="69.2593713 61.9445267 4.79999971 50.5150365 4.79999971 55.9150362 69.2593713 66.7445264"></polygon>
            <polygon id="Rectangle-Copy-19" fill="#D5D8E0" points="69.2593713 46.3445277 -7.91641054e-13 34.1150376 -7.91641054e-13 50.3150366 69.2593713 63.1445267"></polygon>
            <polygon id="Rectangle" fill="#00B3F2" points="113.059369 33.144529 115.459369 32.2295532 115.459369 42.0142822 113.059369 43.0292358"></polygon>
            <polygon id="Rectangle-Copy-16" fill="#00B3F2" points="107.059369 35.1246948 109.459369 34.0794067 109.459369 44.0924286 107.059369 45.1541138"></polygon>
            <polygon id="Rectangle-Copy-17" fill="#00B3F2" points="101.059369 37.4758301 103.459369 36.3121948 103.459369 46.6575651 101.059369 47.7163696"></polygon>
            <polygon id="Rectangle-Copy-18" fill="#00B3F2" points="95.0593698 39.6772461 97.4593696 38.5205688 97.4593696 49.1312954 95.0593698 50.1033936"></polygon>
            <path d="M75.4745325,54.4412112 C76.468645,54.4412112 77.2745324,53.5010092 77.2745324,52.3412113 C77.2745324,51.1814134 76.468645,50.2412114 75.4745325,50.2412114 C74.48042,50.2412114 73.6745326,51.1814134 73.6745326,52.3412113 C73.6745326,53.5010092 74.48042,54.4412112 75.4745325,54.4412112 Z" id="Oval" fill="#313652" transform="translate(75.474532, 52.341211) rotate(-157.000000) translate(-75.474532, -52.341211) "></path>
            <polygon id="Rectangle" fill="#06D7AF" points="79.4268561 49.5313963 89.7431641 45.5123537 89.7431641 47.9123535 79.4268561 51.9313961"></polygon>
            <polygon id="Path-48" fill="#F5F8FA" points="69.2593713 46.3540491 1.36450435e-13 34.1150376 57.5380826 13 124.459368 25.2371809"></polygon>
            <g id="Group-32" transform="translate(45.187046, 0.504395)">
              <path d="M14.8129536,12.4956055 L20.8129536,12.4956055 L20.8129536,31.4956055 C19.8805806,32.1622721 18.9031229,32.4956055 17.8805806,32.4956055 C16.8580382,32.4956055 15.8354959,32.1622721 14.8129536,31.4956055 L14.8129536,12.4956055 Z" id="Rectangle" fill="url(#linearGradient-6)"></path>
              <path d="M16.8224141,9.11928219 L40.2118794,7.46069873e-14 C41.5032205,0.186848958 42.2601785,0.958007812 42.4827534,2.31347656 C42.7053283,3.66894531 42.5172179,4.53641764 41.9184224,4.91589355 L17.8129536,14.8781323 C18.5663716,14.3929435 18.9120543,13.4900504 18.8500019,12.1694531 C18.7879495,10.8488558 18.1120869,9.83213213 16.8224141,9.11928219 Z" id="Rectangle" fill="url(#linearGradient-7)"></path>
              <circle id="Oval" fill="url(#radialGradient-8)" cx="17.8129536" cy="10.9956055" r="6.5"></circle>
              <path d="M2.31148876,14.9223633 L13.3871724,10.4228516 C14.5158752,10.6113281 15.2652241,11.3022461 15.6352192,12.4956055 C16.0052143,13.6889648 15.824713,14.6366781 15.0937153,15.3387451 L3.30202831,20.6812134 C4.05544628,20.1960246 4.40112906,19.2931315 4.33907665,17.9725342 C4.27702424,16.6519368 3.60116161,15.6352132 2.31148876,14.9223633 Z" id="Rectangle-Copy-53" fill="url(#linearGradient-9)"></path>
              <path d="M2.5657307,20.813324 C3.08950389,20.813324 3.35324977,20.6464167 3.62716259,20.4983521 C4.57434257,19.9863502 5.03808178,18.9058325 5.03808178,17.8348389 C5.03808178,16.454127 3.97494091,14.5645447 2.31148876,14.9223633 C0.648036609,15.2801819 -0.122684827,16.6397095 0.0158344606,18.3018188 C0.154353748,19.9639282 1.44478954,20.813324 2.5657307,20.813324 Z" id="Oval" fill="#C7CAD1"></path>
            </g>
          </g>
        </g>
        <g id="Group-8" transform="translate(323.000000, 193.000000)">
          <path d="M10.2192148,0.0918073839 L219.420075,21.8842249 C222.56055,22.2113676 224.91011,24.916487 224.794389,28.0718333 L220.314288,150.2299 C220.249591,151.993983 219.411335,153.640065 218.022677,154.729929 L215.130253,157 L215.130253,157 L5.37304687,0.760253906 L8.46765149,0.166867282 C9.04468162,0.0562224649 9.63483449,0.0309325911 10.2192148,0.0918073839 Z" id="Rectangle-Copy-4" fill="#C6C8D1"></path>
          <path d="M10.2192148,0.0918073839 L219.420075,21.8842249 C222.56055,22.2113676 224.91011,24.916487 224.794389,28.0718333 L224.583161,33.8313612 L224.583161,33.8313612 L221.546942,35.232569 L5.37304687,0.760253906 L8.46765149,0.166867282 C9.04468162,0.0562224649 9.63483449,0.0309325911 10.2192148,0.0918073839 Z" id="Rectangle-Copy-6" fill="#24283E"></path>
          <path d="M221.551398,35.1122552 L217.200937,152.574704 C217.098732,155.334236 214.778836,157.488425 212.019304,157.38622 C211.882334,157.381147 211.74563,157.370444 211.609539,157.354138 L5.36741945,132.643101 C2.31689602,132.2776 0.035351506,129.666801 0.0818967962,126.594811 L1.82122053,11.7994448 L1.82122053,11.7994448 L221.551398,35.1122552 Z" id="Rectangle" fill="#F4F6FC"></path>
          <path d="M73.2276596,140.773821 L5.36741945,132.643101 C2.31689602,132.2776 0.035351506,129.666801 0.0818967962,126.594811 L1.411363,38.850042 L1.411363,38.850042 L67.1598718,47.6846712 C70.6343521,48.1515372 73.2276596,51.1166142 73.2276596,54.6223206 L73.2276596,140.773821 L73.2276596,140.773821 Z" id="Rectangle-Copy-27" fill="#1E1F2B" opacity="0.1"></path>
          <path d="M88.9853161,45.2419094 L139.353063,51.3791844 C140.486362,51.517276 141.338379,52.4794127 141.338379,53.6210937 C141.338379,54.5992419 140.545433,55.3921877 139.567285,55.3921877 C139.49568,55.3921877 139.424142,55.3878453 139.353063,55.3791844 L88.9853161,49.2419094 C87.8520172,49.1038177 87,48.141681 87,47 C87,46.0218518 87.7929458,45.2289061 88.7710939,45.2289061 C88.8426985,45.2289061 88.9142372,45.2332485 88.9853161,45.2419094 Z" id="Rectangle-Copy-14" fill="#D8D8D8" opacity="0.900000036"></path>
          <g id="Group-13" transform="translate(152.000000, 52.000000)">
            <path d="M6.29940906,0.467327072 L42.4855193,4.40059992 C45.5985792,4.738976 47.9279257,7.41448974 47.8344928,10.5444914 L46.1319055,67.5811651 C46.0659904,69.7893205 44.2224921,71.5259494 42.0143366,71.4600343 C41.8812207,71.4560607 41.7483863,71.4454417 41.6163297,71.4282169 L5.38572263,66.7024856 C2.32851383,66.3037192 0.07112608,63.6528394 0.164510657,60.5711483 L1.86900762,4.32274842 C1.93592051,2.11462302 3.78020345,0.378827317 5.98832885,0.445740208 C6.09226342,0.44888974 6.19603566,0.456090832 6.29940906,0.467327072 Z" id="Rectangle" fill="#00B3F2"></path>
            <path d="M8.13288024,32.764459 L16.6060627,22.4278385 C17.3057567,21.5742665 18.5646423,21.4488455 19.4189915,22.1475902 L24.482319,26.2887228 C24.8968182,26.6277284 25.504799,26.5800625 25.8614023,26.1806024 L29.2615793,22.3717891 C29.9971739,21.5477901 31.2614744,21.4761242 32.0854734,22.2117188 C32.3091008,22.4113539 32.4849911,22.6587057 32.6001365,22.9354818 L38.4236406,36.9334888 C38.6357785,37.4434064 38.3943803,38.0287481 37.8844627,38.2408859 C37.720244,38.3092048 37.5407754,38.3324882 37.3645599,38.3083356 L8.77045923,34.3891485 C8.22329018,34.3141519 7.84051872,33.8097871 7.91551523,33.262618 C7.94058899,33.0796818 8.01582309,32.9072596 8.13288024,32.764459 Z" id="Path-69" fill="#FFFFFF" opacity="0.300000012"></path>
            <path d="M9.60371853,45.7078804 L30.8684494,49.0811821 C32.0061559,49.2616606 32.84375,50.2425988 32.84375,51.3945313 C32.84375,52.3376906 32.0791683,53.1022722 31.136009,53.1022722 C31.0464073,53.1022722 30.9569446,53.0952204 30.8684494,53.0811821 L9.60371853,49.7078804 C8.4660121,49.5274019 7.62841797,48.5464637 7.62841797,47.3945313 C7.62841797,46.4513719 8.39299965,45.6867903 9.33615896,45.6867903 C9.42576066,45.6867903 9.51522339,45.6938421 9.60371853,45.7078804 Z" id="Rectangle-Copy-24" fill="#FFFFFF" opacity="0.900000036"></path>
            <path d="M9.60007289,53.730056 L18.7436536,55.2860573 C19.8823382,55.479832 20.7153085,56.4665273 20.7153085,57.621582 C20.7153085,58.5540619 19.9593842,59.3099863 19.0269043,59.3099863 C18.9319826,59.3099863 18.83723,59.3019816 18.7436536,59.2860573 L9.60007289,57.730056 C8.46138823,57.5362813 7.62841797,56.549586 7.62841797,55.3945312 C7.62841797,54.4620513 8.38434229,53.706127 9.31682219,53.706127 C9.41174387,53.706127 9.5064965,53.7141317 9.60007289,53.730056 Z" id="Rectangle-Copy-25" fill="#FFFFFF" opacity="0.600000024"></path>
            <ellipse id="Oval" fill="#FFFFFF" opacity="0.300000012" transform="translate(25.500000, 14.000000) rotate(-23.000000) translate(-25.500000, -14.000000) " cx="25.5" cy="14" rx="3.5" ry="4"></ellipse>
          </g>
          <g id="Group-14" transform="translate(85.000000, 100.000000)">
            <ellipse id="Oval-Copy-4" fill="#313652" opacity="0.600000024" transform="translate(5.500000, 5.500000) rotate(-21.000000) translate(-5.500000, -5.500000) " cx="5.5" cy="5.5" rx="3.5" ry="4.5"></ellipse>
            <path d="M13.9278386,4.13161477 L32.7247493,7.19358054 C33.8628395,7.37897235 34.6987305,8.36204548 34.6987305,9.51513672 C34.6987305,10.4543341 33.9373606,11.2157039 32.9981633,11.2157039 C32.9065782,11.2157039 32.8151429,11.2083054 32.7247493,11.1935805 L13.9278386,8.13161477 C12.7897484,7.94622297 11.9538574,6.96314983 11.9538574,5.81005859 C11.9538574,4.87086125 12.7152273,4.10949138 13.6544246,4.10949138 C13.7460097,4.10949138 13.837445,4.11688991 13.9278386,4.13161477 Z" id="Rectangle-Copy-8" fill="#C6C8D1"></path>
          </g>
          <path d="M88.9853161,55.2419094 L139.353063,61.3791844 C140.486362,61.517276 141.338379,62.4794127 141.338379,63.6210937 C141.338379,64.5992419 140.545433,65.3921877 139.567285,65.3921877 C139.49568,65.3921877 139.424142,65.3878453 139.353063,65.3791844 L88.9853161,59.2419094 C87.8520172,59.1038177 87,58.141681 87,57 C87,56.0218518 87.7929458,55.2289061 88.7710939,55.2289061 C88.8426985,55.2289061 88.9142372,55.2332485 88.9853161,55.2419094 Z" id="Rectangle-Copy-15" fill="#D8D8D8" opacity="0.900000036"></path>
          <path d="M88.9853161,65.2419094 L139.353063,71.3791844 C140.486362,71.517276 141.338379,72.4794127 141.338379,73.6210937 C141.338379,74.5992419 140.545433,75.3921877 139.567285,75.3921877 C139.49568,75.3921877 139.424142,75.3878453 139.353063,75.3791844 L88.9853161,69.2419094 C87.8520172,69.1038177 87,68.141681 87,67 C87,66.0218518 87.7929458,65.2289061 88.7710939,65.2289061 C88.8426985,65.2289061 88.9142372,65.2332485 88.9853161,65.2419094 Z" id="Rectangle-Copy-22" fill="#D8D8D8" opacity="0.900000036"></path>
          <path d="M88.9851811,75.2430146 L122.381518,79.3312042 C123.5149,79.4699463 124.366699,80.4323768 124.366699,81.5742188 C124.366699,82.5518185 123.574198,83.3443197 122.596598,83.3443197 C122.524705,83.3443197 122.452879,83.3399397 122.381518,83.3312042 L88.9851811,79.2430146 C87.8517996,79.1042725 87,78.1418419 87,77 C87,76.0224003 87.7925012,75.2298991 88.7701009,75.2298991 C88.8419941,75.2298991 88.9138206,75.234279 88.9851811,75.2430146 Z" id="Rectangle-Copy-23" fill="#D8D8D8" opacity="0.900000036"></path>
          <path d="M7.43650924,0.56836233 L216.420346,22.4166725 C219.560676,22.7449798 221.909225,25.4509376 221.792362,28.6062196 L221.546942,35.232569 L221.546942,35.232569 L1.82031026,11.8595229 L1.91718923,5.46551103 C1.95902418,2.7044042 4.23125745,0.499998786 6.99236429,0.541833738 C7.14073291,0.544081747 7.28892792,0.552933373 7.43650924,0.56836233 Z" id="Rectangle-Copy-5" fill="#313652"></path>
          <path d="M20.2686235,6.23624338 C21.1928905,5.95366662 22.2039554,6.58089734 22.5269003,7.63720241 C22.8498451,8.69350747 22.3623773,9.77888564 21.4381104,10.0614624 C20.5138434,10.3440392 19.5027785,9.71680844 19.1798336,8.66050337 C18.8568888,7.60419831 19.3443566,6.51882014 20.2686235,6.23624338 Z M14.5805132,5.59904097 C15.5047801,5.31646421 16.515845,5.94369493 16.8387899,7 C17.1617348,8.05630507 16.6742669,9.14168324 15.75,9.42426 C14.8257331,9.70683675 13.8146681,9.07960603 13.4917233,8.02330097 C13.1687784,6.9669959 13.6562462,5.88161773 14.5805132,5.59904097 Z M9.16525659,5.08739049 C10.0895235,4.80481373 11.1005885,5.43204445 11.4235333,6.48834952 C11.7464782,7.54465458 11.2590103,8.63003275 10.3347434,8.91260951 C9.41047648,9.19518627 8.39941154,8.56795555 8.07646668,7.51165048 C7.75352181,6.45534542 8.24098966,5.36996725 9.16525659,5.08739049 Z" id="Combined-Shape" fill="#FFFFFF"></path>
          <path d="M67.082807,15.1249858 L155.921961,14.8831543 C157.636494,14.8784871 159.076583,16.1717248 159.255644,17.8768883 C159.412849,19.3739267 158.326699,20.7149561 156.829661,20.8721612 C156.737565,20.8818322 156.645037,20.8868034 156.552435,20.8870555 L67.7138424,21.1288868 C65.9992517,21.1335542 64.5590739,19.8403574 64.3798497,18.135153 C64.2225193,16.6382538 65.3084543,15.2972356 66.8053536,15.1399052 C66.8975242,15.1302176 66.990129,15.125238 67.082807,15.1249858 Z" id="Rectangle" fill="#FFFFFF" opacity="0.200000003" transform="translate(111.817606, 18.006021) rotate(6.000000) translate(-111.817606, -18.006021) "></path>
        </g>
        <g id="Group-4" transform="translate(746.000000, 196.000000)">
          <path d="M20.9054964,166.641755 C24.6088553,166.856473 27.1799118,167.133119 28.618666,167.471693 C31.3219512,168.107842 43.3179799,172.842747 47.241957,174.662611 C53.9935846,177.793884 58.7414092,179.907075 61.4854307,181.002184 C58.0142374,183.134991 58.0142374,185.344264 61.4854307,187.630001 C66.6922208,191.058607 74.6323379,188.761628 78.9741348,190.661146 C83.3159316,192.560665 86.9126113,197.246107 91.5698379,197.246107 C96.2270645,197.246107 97.6695141,197.548598 98.9470352,196.175307 C100.224556,194.802016 99.8396951,191.673353 96.6079238,191.673353 C93.3761525,191.673353 90.0688613,190.217787 90.0688613,187.791029 C90.0688613,185.364271 88.1362441,182.903334 85.4360488,180.897475 C84.6026981,180.278414 80.5323906,180.841209 78.9741348,179.685805 C75.483382,177.097506 73.527646,172.444781 70.2790664,173.083998 C67.1465794,173.700372 64.8522272,175.175958 63.3960098,177.510756 L32.1091445,164.171889 L20.9054964,166.641755 Z" id="Path-7" fill="#1E1F2B" opacity="0.100000001"></path>
          <path d="M8,85.1867427 C33.9007116,129.644668 47.7615514,153.949193 49.5825195,158.100317 C50.6043702,160.429753 51.1670441,162.091865 51.4175775,164.087605 C51.6039157,165.571969 50.8928887,168.447796 51.5683445,168.316501 C52.2438003,168.185206 53.4003299,166.246139 54.9762948,164.76334 C55.8588419,163.932966 59.0152247,162.206457 60.328364,162.355524 C61.9271117,162.537012 63.7895754,163.181815 64.6640938,162.428281 C65.5386122,161.674747 62.7347281,160.807624 63.4581025,158.867812 C64.0846507,157.18765 66.4669136,156.117617 67.3679616,155.942471 C69.0232752,155.62071 69.9730908,154.835138 69.8422882,154.162217 C69.7114856,153.489296 67.9672439,153.339368 66.9884177,152.880234 C61.4410667,150.278159 56.7144587,146.323037 52.8085938,141.014868 C48.2135417,134.770076 34.6979167,114.639217 12.2617188,80.6222896 L8,85.1867427 Z" id="Path-5" fill="#64634D" transform="translate(38.927124, 124.471568) scale(-1, 1) rotate(11.000000) translate(-38.927124, -124.471568) "></path>
          <path d="M76.391127,110.070326 C68.2896496,116.755333 55.1317208,117.038246 46.7319473,113.34713 C36.9438693,109.045952 15.328627,102.37562 21.3159316,78.6113417 C26.7814366,56.9181445 46.0151504,62.2548964 49.4585098,51.7714979 C52.9018691,41.2880995 46.2807675,37.9687636 52.9018691,30.5283339 C59.5229708,23.0879042 77.7779309,28.1386854 77.7779309,12.0410292 C77.7779309,-4.05662706 100.716322,-2.51625121 100.716322,7.874037 C100.716322,18.2643252 97.587416,23.1875136 100.716322,32.0097792 C103.845229,40.8320448 103.845229,59.5673964 96.2788223,64.9902479 C88.712416,70.4130995 73.1489395,72.0234511 77.7779309,81.2050917 C82.4069223,90.3867323 84.4926043,103.385319 76.391127,110.070326 Z" id="Path-6" fill="url(#linearGradient-10)"></path>
          <path d="M76.391127,110.070326 C68.2896496,116.755333 55.1317208,117.038246 46.7319473,113.34713 C36.9438693,109.045952 28.328627,102.37562 34.3159316,78.6113417 C39.7814366,56.9181445 46.0151504,62.2548964 49.4585098,51.7714979 C52.9018691,41.2880995 46.2807675,37.9687636 52.9018691,30.5283339 C59.5229708,23.0879042 84.7779309,33.1386854 84.7779309,17.0410292 C84.7779309,0.943372941 100.716322,-2.51625121 100.716322,7.874037 C100.716322,18.2643252 97.587416,23.1875136 100.716322,32.0097792 C103.845229,40.8320448 83.8452285,59.5673964 76.2788223,64.9902479 C68.712416,70.4130995 73.1489395,72.0234511 77.7779309,81.2050917 C82.4069223,90.3867323 84.4926043,103.385319 76.391127,110.070326 Z" id="Path-6-Copy" fill="#00A66A" opacity="0.400000006"></path>
        </g>
        <g id="Group-4-Copy" transform="translate(870.000000, 315.000000)">
          <path d="M12,75.4922531 C14.2110567,75.6219825 15.7460825,75.7891276 16.6050776,75.9936886 C18.2190494,76.3780397 25.381169,79.2387927 27.7239438,80.338325 C31.7549415,82.2301893 33.7568723,83.1200998 33.7297363,83.0080566 C31.657292,84.3941409 31.657292,85.7776858 33.7297363,87.1586914 C34.4494209,87.6382645 36.8555897,87.1463811 38.807373,87.5876465 C40.5554702,87.9828618 41.8112464,89.3658062 43.2573242,88.9494629 C44.3216573,88.6430285 45.4055021,87.409925 45.0749512,86.5234375 C44.7536809,85.6618392 43.0394067,85.1587407 42.5593262,84.0300293 C41.7171431,82.0499831 41.8620211,79.7582769 41.4780399,79.3845523 C40.4367676,78.3710937 38.9972345,77.5232616 37.6638184,77.8347168 C37.0447561,77.9793154 36.1136267,79.0006073 34.8704301,80.8985923 L18.689036,74 L12,75.4922531 Z" id="Path-7-Copy" fill="#1E1F2B" opacity="0.100000001"></path>
          <path d="M4.8,27.1120456 C20.340427,53.786801 28.6569309,68.3695159 29.7495117,70.8601902 C30.3626221,72.2578517 30.7002265,73.2551187 30.8505465,74.4525632 C30.9623494,75.3431814 30.5357332,77.0686777 30.9410067,76.9899005 C31.3462802,76.9111234 32.040198,75.7476836 32.9857769,74.8580041 C33.5153051,74.3597798 35.4091348,73.3238744 36.1970184,73.4133143 C37.156267,73.5222075 38.2737452,73.9090891 38.7984563,73.4569686 C39.3231673,73.0048481 37.6408369,72.4845745 38.0748615,71.320687 C38.4507904,70.3125899 39.8801482,69.6705699 40.4207769,69.5654824 C41.4139651,69.3724261 41.9838545,68.9010827 41.9053729,68.4973301 C41.8268914,68.0935775 40.7803463,68.003621 40.1930506,67.7281404 C36.86464,66.1668953 34.0286752,63.793822 31.6851563,60.6089206 C28.928125,56.8620456 20.81875,44.78353 7.35703125,24.3733738 L4.8,27.1120456 Z" id="Path-5" fill="#64634D" transform="translate(23.356274, 50.682941) scale(-1, 1) rotate(11.000000) translate(-23.356274, -50.682941) "></path>
          <path d="M45.8346762,42.0421956 C40.9737898,46.0532 33.0790325,46.2229475 28.0391684,44.0082781 C22.1663216,41.4275709 9.19717618,37.425372 12.789559,23.166805 C16.068862,10.1508867 27.6090902,13.3529378 29.6751059,7.06289876 C30.6081968,4.22207871 35.0718084,-1.19345611 41.7719727,0.705566406 C49.9070651,3.01128955 51.6557617,8.09700878 51.6557617,13.859375 C51.6557617,19.9211129 43.8893637,19.2140706 46.6667585,24.723055 C49.4441534,30.2320394 50.6955626,38.0311913 45.8346762,42.0421956 Z" id="Path-6" fill="url(#linearGradient-11)"></path>
          <path d="M45.8346762,42.0421956 C40.9737898,46.0532 33.0790325,46.2229475 28.0391684,44.0082781 C22.1663216,41.4275709 16.9971762,37.425372 20.589559,23.166805 C23.868862,10.1508867 43.8893637,9.13378906 45.7672934,14.9941488 C47.6452231,20.8545085 43.8893637,19.2140706 46.6667585,24.723055 C49.4441534,30.2320394 50.6955626,38.0311913 45.8346762,42.0421956 Z" id="Path-6-Copy" fill="#00A66A" opacity="0.400000006"></path>
        </g>
        <g id="Group-4-Copy" transform="translate(110.506505, 424.747232) scale(-1, 1) rotate(10.000000) translate(-110.506505, -424.747232) translate(73.006505, 368.247232)">
          <path d="M7.157309,38.9147552 C28.9139064,76.2594121 40.5570116,96.6752125 42.0866248,100.162156 C42.9449793,102.118883 43.4176254,103.515056 43.6280735,105.191479 C43.7845976,106.438344 43.1227414,108.856652 43.6901243,108.746364 C44.2575071,108.636076 45.2935855,107.004647 46.617396,105.759096 C47.3587355,105.061582 49.0923842,103.865327 50.8401344,104.0569 C52.5878846,104.248473 56.1213704,104.911328 56.8559658,104.278359 C57.5905613,103.64539 53.5343529,102.12378 54.1419874,100.494338 C54.6682879,99.0830017 55.2585931,98.7195647 55.902161,98.1312272 C57.494431,96.6756043 58.7770675,96.1413655 58.6671933,95.5761119 C58.5573191,95.0108583 54.4569432,95.0404398 53.6347292,94.654767 C48.9749545,92.4690238 48.0774536,90.2692413 44.7965271,85.8103794 C40.9366834,80.5647544 29.5835586,63.6548329 10.7371527,35.0806146 L7.157309,38.9147552 Z" id="Path-5" fill="#64634D" transform="translate(32.915536, 71.915313) scale(-1, 1) rotate(11.000000) translate(-32.915536, -71.915313) "></path>
          <path d="M67.3803053,64.8453092 C56.4739984,71.8334961 46.3106447,65.7121254 39.254835,62.6115884 C31.0328497,58.9985983 5.23920611,59.4098587 8.60429179,39.0839918 C9.87416597,31.4136689 14.8083129,31.5566611 16.9147682,29.2825135 C19.6159184,26.3663283 19.4005177,20.5695727 21.5178083,18.1974662 C27.6675486,11.3076048 39.4164237,17.3690138 41.5451475,10.8880581 C42.8514748,6.91091009 49.1005309,-0.670838528 58.4807607,1.98779295 C62.5724927,3.14750947 67.3417879,-2.37789077 72.3855012,2.24373661 C76.1900915,5.72993775 72.3180652,15.2341268 72.3180652,20.4031247 C72.3180652,28.8895576 61.4451081,27.8996984 65.3334608,35.6122764 C69.2218135,43.3248544 78.2866123,57.8571223 67.3803053,64.8453092 Z" id="Path-6" fill="url(#linearGradient-12)"></path>
          <path d="M63.8511857,62.939311 C55.409755,67.9489752 46.3106447,65.7121254 39.254835,62.6115884 C33.1751496,59.93999 23.8160091,57.0482531 23.3746605,47.1995669 C23.2191424,43.7291834 27.5149509,38.6347735 28.8253821,33.4335265 C30.3622068,27.3336981 38.1697477,26.0214865 43.6472215,22.5573443 C48.7942161,19.3022085 51.5201268,13.7030987 56.061569,13.8821241 C61.1250396,14.081728 63.152169,19.1144428 64.0742096,21.9918079 C66.7033111,30.1963114 61.4583135,30.8228583 65.3466662,38.5354363 C69.235019,46.2480143 72.2926164,57.9296468 63.8511857,62.939311 Z" id="Path-6-Copy" fill="#00A66A" opacity="0.400000006"></path>
        </g>
        <g id="Group-5" transform="translate(716.886559, 261.999010) rotate(1.000000) translate(-716.886559, -261.999010) translate(674.886559, 226.999010)">
          <path d="M28.1946641,17.3995012 C18.7888904,20.6404733 12.0275306,29.1960193 11.3974349,39.8540851 C5.08908953,40.9487833 0.351700158,46.2312309 0.280063776,53.0234213 C0.195395628,61.0512161 6.63626821,68.0852524 14.6651334,68.7241972 L21.934364,69.3026896 L25.9234292,69.6201433 L26.6032822,55.4517697 L26.6032822,55.4517697 C25.9572002,55.2161552 25.9485952,54.5197386 26.5830991,53.8972247 L26.6999814,53.7825511 C26.6999814,53.7825511 31.478604,16.2679454 28.1946641,17.3995012 Z" id="Stroke-63-Copy-2" fill="#1E1F2B" opacity="0.1"></path>
          <path d="M69.6320473,55.9683886 C77.6609124,56.6073334 83.4444168,50.0361148 83.4444168,41.8859763 C83.4444168,33.7358378 76.1292631,25.6465471 67.9762077,25.0559139 C66.9898608,11.7731615 57.3914013,1.23696945 42.9474401,0.0875050697 C28.3399213,-1.07497539 16.3298226,9.47728996 15.4797347,23.856522 C9.17138937,24.9512202 4.434,30.2336678 4.36236362,37.0258581 C4.27769547,45.0536529 10.7185681,52.0876893 18.7474332,52.7266341 L26.0166638,53.3051265 L32.7237643,54.0457764 L36.9177492,51.7723275 C37.5054021,51.4537763 37.9817889,50.660995 37.9817889,49.9800596 L37.9817889,40.7539812 C37.9817889,39.6501015 37.0977938,38.694907 35.9772016,38.6184385 L31.0857533,38.2846494 C30.638331,38.2541176 30.538085,37.9728708 30.8490799,37.6689444 L44.0290208,24.7885695 L56.3775541,40.5612714 L48.6406609,39.870208 C47.9745555,39.8107111 46.946166,40.0118535 46.3600128,40.3111373 C46.3600128,40.3111373 45.2338807,40.8861286 45.2338807,40.8861286 C45.2338807,40.8861286 48.6343352,55.1050627 48.6343352,55.1050627 L69.6320473,55.9683886 Z" id="Stroke-63-Copy" fill="#008ABA"></path>
          <path d="M58.0012783,56.1975885 L65.2705089,56.7760809 C73.2993741,57.4150257 79.8776935,51.4170692 79.9623616,43.3892744 C80.0465698,35.4050892 73.6392903,28.2900711 65.486235,27.6994379 C64.7019658,13.4192846 53.0298629,1.23696945 38.5859017,0.0875050697 C23.9783829,-1.07497539 11.9682842,9.47728996 11.1181964,23.856522 C4.80985102,24.9512202 0.0724616554,30.2336678 0.000825272809,37.0258581 C-0.0838428755,45.0536529 6.35702971,52.0876893 14.3858949,52.7266341 L21.6551255,53.3051265 L32.0065806,54.1289053 C32.8977859,54.1998283 33.6278573,53.5360939 33.6372522,52.6453137 L33.7566405,41.3255405 C33.7660302,40.4352525 33.0535795,39.6562282 32.1725932,39.5861185 L26.7552577,39.1550017 C25.8710228,39.0846334 25.6707439,38.5208145 26.3051721,37.8983749 L38.8030745,25.636643 C39.2804739,25.1682649 39.9995441,25.210993 40.4172961,25.7424253 L51.5738614,39.9349583 C52.1273451,40.6390582 51.8527881,41.1522874 50.9658854,41.0817068 L46.0363353,40.6894085 C45.1470758,40.6186404 44.4185817,41.2825003 44.4091868,42.1732804 L44.2897985,53.4930536 C44.2804088,54.3833416 44.9915704,55.1622633 45.8744963,55.2325274 L58.0012783,56.1975885 Z" id="Stroke-63" fill="#00B3F2"></path>
        </g>
        <path d="M512.019803,210.731162 C498.478117,209.161353 486.341077,200.532436 479,189.427124 L545,195.426514 C538.398899,205.772988 526.214366,212.376657 512.019803,210.731162 Z M523.478768,206.061348 C521.350287,200.139101 519.753926,195.792896 518.689686,193.022731 L505.791387,191.848225 C504.924682,194.467476 503.624625,198.587311 501.891215,204.207731 C509.63294,206.88929 514.883052,207.982683 523.478768,206.061348 Z M484.037471,189.818362 C487.316343,194.122077 491.451388,198.438084 496.266257,201.286779 C494.536078,196.335731 493.238444,192.717924 492.373354,190.433359 L484.037471,189.818362 Z M532.671961,194.242937 C531.993957,196.252113 530.976951,199.456837 529.620943,203.857108 C534.27253,201.576281 537.659814,198.122069 540.115069,194.976776 L532.671961,194.242937 Z M529.04237,193.975984 L502.71016,191.576854 L529.04237,193.975984 Z" id="Shape-Copy-5" fill="#1E1F2B" opacity="0.1"></path>
        <g id="Group-7" transform="translate(456.000000, 124.000000)" fill-rule="nonzero">
          <path d="M43.23256,79.3665082 C21.3229891,76.8099161 3.06682304,57.2718085 2.64382182,35.2175041 C2.22082041,13.1631929 18.3926565,-2.35756053 41.1253614,0.295081707 C63.8596106,2.94790415 81.1346268,22.6994428 81.7141064,44.4440866 C82.2935859,66.1887236 65.1421309,81.9231003 43.23256,79.3665082 Z M54.7654134,74.6356031 L42.7609361,43.1825854 L33.0386607,72.7577365 C40.8303057,75.4743757 46.1142716,76.582073 54.7654134,74.6356031 Z M9.35018956,21.8776608 C7.17464347,26.5503958 6.79176221,30.6117277 6.59733562,35.6788298 C7.12253244,49.2051165 15.0283209,62.4441198 27.3774327,69.7985721 L9.35018956,21.8776608 Z M77.5968854,43.9636514 C77.5279295,35.2524662 73.3915801,27.8725674 73.0347511,26.8456104 C73.5452574,33.6392213 72.6474834,36.9815391 71.5964021,40.6369734 L60.9471945,72.4025271 C75.2112296,65.362295 77.6627527,52.6744769 77.7605856,43.9827533 L77.5968854,43.9636514 Z M40.987372,38.2137682 L34.9777762,22.2400711 L30.8502515,21.4305104 C30.367442,21.2631323 28.2790153,20.7523012 28.1285972,20.4138931 C27.9136919,19.9304031 30.2810869,19.2867094 31.2654208,19.4015697 C36.3269001,20.3279764 39.5582973,20.7927762 43.3464792,21.0501388 C44.7709089,21.1469122 46.027646,20.3899896 47.7916194,20.7881868 C48.3287148,20.9094301 49.7053819,20.8405279 50.2234615,21.0501388 C51.9388108,21.5132378 52.0202805,23.7178737 50.4525764,23.7178737 L46.5078288,23.5854941 L60.3648901,62.9725072 L65.9057216,42.9273551 C65.9947882,33.9066821 63.4959577,32.6297784 60.026264,25.6555978 C57.2539697,20.2407744 59.923705,15.6257056 65.0264793,16.0579465 C60.8008167,11.6235841 52.2694441,5.70147628 41.2276327,4.24829228 C30.1858212,2.79510827 18.6397977,7.91038155 12.0021219,17.6464264 C15.7462552,17.9718096 18.2438322,18.1880202 19.4948528,18.2950582 C20.4220352,18.3743884 20.7559857,17.6820075 21.4581789,17.8684813 C22.0004222,18.0124789 22.909158,18.1546712 24.1843863,18.2950582 C25.6845277,19.1274999 25.0031166,20.9809421 24.1843863,21.0501388 L19.910694,20.8793752 L33.8658933,60.7025082 L40.987372,38.2137682 Z" id="Shape-Copy-2" fill="#165977"></path>
          <path d="M40.5968458,79.3665082 C18.6872749,76.8099161 0.431108828,57.2718085 0.00810760372,35.2175041 C-0.414893802,13.1631929 15.7569423,-2.35756053 38.4896472,0.295081707 C61.2238964,2.94790415 78.4989125,22.6994428 79.0783922,44.4440866 C79.6578717,66.1887236 62.5064167,81.9231003 40.5968458,79.3665082 Z M52.1296992,74.6356031 L40.1252219,43.1825854 L30.4029465,72.7577365 C38.1945915,75.4743757 43.4785574,76.582073 52.1296992,74.6356031 Z M6.71447535,21.8776608 C4.53892925,26.5503958 4.15604799,30.6117277 3.9616214,35.6788298 C4.48681822,49.2051165 12.3926067,62.4441198 24.7417185,69.7985721 L6.71447535,21.8776608 Z M74.9611712,43.9636514 C74.8922153,35.2524662 70.7558659,27.8725674 70.3990369,26.8456104 C70.9095432,33.6392213 70.0117692,36.9815391 68.9606879,40.6369734 L58.3114803,72.4025271 C72.5755154,65.362295 75.0270385,52.6744769 75.1248714,43.9827533 L74.9611712,43.9636514 Z M38.3516578,38.2137682 L32.342062,22.2400711 L28.2145373,21.4305104 C26.5375257,20.0847704 27.4760836,18.3883839 28.6297066,18.5229983 C36.0557151,19.8821867 40.1729292,20.3626177 47.5741421,20.7335936 C49.3871988,20.9451562 49.9500974,23.6388709 47.8168622,23.7178737 L43.8721146,23.5854941 L57.7291759,62.9725072 L63.2700073,42.9273551 C63.359074,33.9066821 60.8602435,32.6297784 57.3905498,25.6555978 C54.6182555,20.2407744 57.2879908,15.6257056 62.3907651,16.0579465 C58.1651024,11.6235841 49.6337299,5.70147628 38.5919184,4.24829228 C27.550107,2.79510827 16.0040835,7.03181015 9.36640766,16.767855 L21.5486721,17.861457 C23.0488135,18.6938987 22.4464223,20.7574385 21.6276921,20.8266353 L17.3539997,20.6558716 L31.2301791,60.7025082 L38.3516578,38.2137682 Z" id="Shape-Copy" fill="#21759B"></path>
        </g>
        <g id="Group-9" transform="translate(285.000000, 219.000000)">
          <path d="M2.76525879,1.25842285 L5.48456591,0.460434321 C6.51987837,0.156618887 7.60595002,0.0653722383 8.67744175,0.192183859 L88.9402423,9.69132935 C92.9667128,10.1678643 96,13.5813122 96,17.6358837 L96,116.508174 C96,118.046913 95.1173489,119.449237 93.7299628,120.114728 L91.3112793,121.274902 L91.3112793,121.274902 L2.76525879,1.25842285 Z" id="Rectangle-Copy-7" fill="#C6C8D1"></path>
          <path d="M4.46984313,1.05554659 L85.9396863,10.6917646 C89.9664022,11.1680428 93,14.5815996 93,18.6363848 L93,118.025854 C93,120.234993 91.209139,122.025854 89,122.025854 C88.8429779,122.025854 88.686092,122.016608 88.5301569,121.998164 L7.06031374,112.361946 C3.03359776,111.885668 4.04928164e-15,108.472111 0,104.417326 L0,5.02785668 C-2.705415e-16,2.81871768 1.790861,1.02785668 4,1.02785668 C4.15702211,1.02785668 4.313908,1.03710265 4.46984313,1.05554659 Z" id="Rectangle" fill="#F2F4FA"></path>
          <path d="M4.46984313,1.05554659 L17.7924552,2.63133942 L17.7924552,2.63133942 L17.7924552,48.9180089 C17.7924552,51.1271479 16.0015942,52.9180089 13.7924552,52.9180089 C13.6332069,52.9180089 13.4741008,52.9084989 13.3159863,52.8895297 L0,51.2919922 L0,51.2919922 L0,5.02785668 C-1.15871992e-15,2.81871768 1.790861,1.02785668 4,1.02785668 C4.15702211,1.02785668 4.313908,1.03710265 4.46984313,1.05554659 Z" id="Rectangle-Copy-26" fill="#1E1F2B" opacity="0.1"></path>
          <g id="Path-50" transform="translate(18.658492, 23.418457)">
            <mask id="mask-14" fill="white">
              <use xlink:href="#path-13"></use>
            </mask>
            <use id="Mask" fill="#DCDEE6" xlink:href="#path-13"></use>
            <path d="M8.39814845,0.270349637 L22.9469766,25.8374023 L34.6431913,30.0081209 L59.3136758,21.6748047 C46.5678084,3.2249349 40.1948748,-6 40.1948748,-6 C40.1948748,-6 29.595966,-3.90988345 8.39814845,0.270349637 Z" fill="#FFBD00" mask="url(#mask-14)"></path>
            <path d="M60.8825234,21.6074219 L26.3415078,29 L24.7145547,39.4986867 L16.6559609,67.5891606 C40.6739974,59.3090171 52.6830156,55.1689453 52.6830156,55.1689453 C52.6830156,55.1689453 55.4161849,43.9817708 60.8825234,21.6074219 Z" id="Path-50-Copy" fill="#313652" mask="url(#mask-14)"></path>
            <path d="M27.8415078,30.0081209 L15.1818399,35.2319336 L-9.38603124,50.9394531 C8.46911199,61.4798177 17.3966836,66.75 17.3966836,66.75 C17.3966836,66.75 20.8782917,54.502707 27.8415078,30.0081209 Z" id="Path-50-Copy-2" fill="#00B3F2" mask="url(#mask-14)"></path>
          </g>
          <ellipse id="Oval-Copy-3" fill="#FFBD00" transform="translate(11.000000, 94.026855) rotate(-30.000000) translate(-11.000000, -94.026855) " cx="11" cy="94.0268555" rx="2" ry="2.5"></ellipse>
          <path d="M17.6870148,92.8677514 L28.1579559,94.13115 C29.2910789,94.2678699 30.1435547,95.2293862 30.1435547,96.3707275 C30.1435547,97.3500336 29.3496703,98.143918 28.3703642,98.143918 C28.2993697,98.143918 28.2284392,98.1396543 28.1579559,98.13115 L17.6870148,96.8677514 C16.5538918,96.7310315 15.701416,95.7695152 15.701416,94.6281738 C15.701416,93.6488678 16.4953004,92.8549834 17.4746065,92.8549834 C17.545601,92.8549834 17.6165315,92.8592471 17.6870148,92.8677514 Z" id="Rectangle" fill="#D8D8D8"></path>
          <ellipse id="Oval-Copy-4" fill="#313652" transform="translate(38.000000, 97.026855) rotate(-30.000000) translate(-38.000000, -97.026855) " cx="38" cy="97.0268555" rx="2" ry="2.5"></ellipse>
          <path d="M44.6881736,95.8579438 L55.7820412,97.1409576 C56.9144026,97.271916 57.7687988,98.2308186 57.7687988,99.3707275 C57.7687988,100.354915 56.9709572,101.152757 55.9867696,101.152757 C55.9183569,101.152757 55.850001,101.148817 55.7820412,101.140958 L44.6881736,99.8579438 C43.5558122,99.7269854 42.701416,98.7680828 42.701416,97.6281738 C42.701416,96.6439863 43.4992577,95.8461446 44.4834452,95.8461446 C44.5518579,95.8461446 44.6202139,95.8500842 44.6881736,95.8579438 Z" id="Rectangle-Copy-8" fill="#D8D8D8"></path>
          <ellipse id="Oval-Copy-5" fill="#00B3F2" transform="translate(65.000000, 100.026855) rotate(-30.000000) translate(-65.000000, -100.026855) " cx="65" cy="100.026855" rx="2" ry="2.5"></ellipse>
          <path d="M71.6863305,98.8733565 L82.0973609,100.159358 C83.2309032,100.299377 84.0822754,101.262384 84.0822754,102.404541 C84.0822754,103.381066 83.2906458,104.172695 82.3141213,104.172695 C82.2416628,104.172695 82.1692728,104.168241 82.0973609,104.159358 L71.6863305,102.873356 C70.5527882,102.733338 69.701416,101.770331 69.701416,100.628174 C69.701416,99.6516493 70.4930456,98.8600197 71.4695701,98.8600197 C71.5420286,98.8600197 71.6144186,98.8644737 71.6863305,98.8733565 Z" id="Rectangle-Copy-9" fill="#D8D8D8"></path>
        </g>
        <g id="Group-9-Copy" transform="translate(235.000000, 174.000000)">
          <path d="M2.76525879,1.25842285 L5.54727473,0.442032236 C6.54199892,0.150127547 7.5839754,0.0543385489 8.61524726,0.159993224 L53.815339,4.79078087 C57.8965598,5.2089054 61,8.64654026 61,12.7491238 L61,84.508174 C61,86.0469129 60.1173489,87.4492373 58.7299628,88.1147276 L56.3112793,89.2749023 L56.3112793,89.2749023 L2.76525879,1.25842285 Z" id="Rectangle-Copy-7" fill="#008ABA"></path>
          <path d="M4.4115966,0.983227531 L50.8231932,5.78442718 C54.9009945,6.20626869 58,9.64239895 58,13.7419615 L58,86.0150702 C58,88.2242092 56.209139,90.0150702 54,90.0150702 C53.8398069,90.0150702 53.6797584,90.005447 53.5207194,89.9862526 L7.04143872,84.3766843 C3.02306401,83.891708 4.04839372e-15,80.4818541 0,76.4343194 L0,4.96199471 C6.17636919e-16,2.75285571 1.790861,0.961994707 4,0.961994707 C4.13747258,0.961994707 4.27485376,0.96908172 4.4115966,0.983227531 Z" id="Rectangle" fill="#00B3F2"></path>
          <ellipse id="Oval-Copy-3" fill="#FFBD00" transform="translate(10.000000, 67.026855) rotate(-30.000000) translate(-10.000000, -67.026855) " cx="10" cy="67.0268555" rx="2" ry="2.5"></ellipse>
          <path d="M9.98514676,13.7701503 L32.7162693,16.5560216 C33.8496716,16.6949287 34.701416,17.6574337 34.701416,18.7993164 C34.701416,19.7767771 33.9090275,20.5691656 32.9315668,20.5691656 C32.8596005,20.5691656 32.7877011,20.5647761 32.7162693,20.5560216 L9.98514676,17.7701503 C8.85174439,17.6312432 8,16.6687382 8,15.5268555 C8,14.5493947 8.79238848,13.7570063 9.76984922,13.7570063 C9.84181555,13.7570063 9.91371489,13.7613957 9.98514676,13.7701503 Z" id="Rectangle" fill="#FFFFFF"></path>
          <path d="M9.97954192,44.8121865 L25.8681143,47.1023643 C27.0043194,47.2661368 27.8476562,48.2397478 27.8476562,49.3876953 C27.8476562,50.3444677 27.072039,51.120085 26.1152666,51.120085 C26.0325651,51.120085 25.9499698,51.1141629 25.8681143,51.1023643 L9.97954192,48.8121865 C8.8433368,48.648414 8,47.674803 8,46.5268555 C8,45.5700831 8.77561726,44.7944658 9.73238965,44.7944658 C9.81509111,44.7944658 9.89768641,44.8003879 9.97954192,44.8121865 Z" id="Rectangle-Copy-11" fill="#FFFFFF" opacity="0.900000036"></path>
          <path d="M9.97948883,53.8125546 L39.9123569,58.1327579 C41.0485836,58.2967492 41.8918457,59.2704569 41.8918457,60.418457 C41.8918457,61.3750497 41.1163741,62.1505212 40.1597815,62.1505212 C40.0769881,62.1505212 39.9943012,62.1445849 39.9123569,62.1327579 L9.97948883,57.8125546 C8.84326208,57.6485633 8,56.6748556 8,55.5268555 C8,54.5702628 8.77547156,53.7947913 9.73206421,53.7947913 C9.81485763,53.7947913 9.8975445,53.8007276 9.97948883,53.8125546 Z" id="Rectangle-Copy-12" fill="#FFFFFF" opacity="0.800000012"></path>
          <path d="M16.1679494,65.7042667 L39.9123728,69.1326473 C41.0486061,69.2967044 41.8918457,70.2704411 41.8918457,71.418457 C41.8918457,72.3749957 41.1164179,73.1504235 40.1598792,73.1504235 C40.0770582,73.1504235 39.9943438,73.1444829 39.9123728,73.1326473 L16.1679494,69.7042667 C15.0317162,69.5402097 14.1884766,68.566473 14.1884766,67.418457 C14.1884766,66.4619184 14.9639044,65.6864906 15.920443,65.6864906 C16.0032641,65.6864906 16.0859784,65.6924312 16.1679494,65.7042667 Z" id="Rectangle-Copy-13" fill="#FFFFFF" opacity="0.400000006"></path>
          <path d="M21.9851468,24.7701503 L44.7162693,27.5560216 C45.8496716,27.6949287 46.701416,28.6574337 46.701416,29.7993164 C46.701416,30.7767771 45.9090275,31.5691656 44.9315668,31.5691656 C44.8596005,31.5691656 44.7877011,31.5647761 44.7162693,31.5560216 L21.9851468,28.7701503 C20.8517444,28.6312432 20,27.6687382 20,26.5268555 C20,25.5493947 20.7923885,24.7570063 21.7698492,24.7570063 C21.8418156,24.7570063 21.9137149,24.7613957 21.9851468,24.7701503 Z" id="Rectangle-Copy-10" fill="#FFFFFF" opacity="0.800000012"></path>
        </g>
        <g id="Group-21" transform="translate(221.000000, 281.000000)">
          <path d="M187.657959,210.796871 C187.642007,211.012128 187.127123,211.018735 186.113307,210.816691 C185.099491,210.614648 183.93712,210.667917 182.626193,210.976499 C184.103244,211.483937 185.260683,212.060232 186.098511,212.705384 C187.355254,213.673111 187.285426,214.066191 185.734387,214.242973 C184.183348,214.419754 182.398866,215.004647 180.364722,213.926143 C179.535869,213.486685 178.562826,213.432869 177.230435,213.499789 C176.665402,213.528168 175.680118,213.629035 174.274583,213.802391 L174.234154,213.773469 C174.2482,213.886722 174.182332,213.968933 174.01424,214.0085 C170.64136,214.802451 164.449338,215.560125 162.123639,215.69631 C159.826606,215.830816 147.173164,212.671883 145.305376,212.106031 C143.437587,211.540179 131.266505,207.847419 129.37191,207.815459 C127.477314,207.783498 121.999131,208.478421 117.244715,208.867294 C112.490299,209.256167 106.322523,211.790879 105.004297,212.101179 C104.370419,212.250389 103.873359,212.447996 102.461036,212.141249 C102.52746,212.216446 102.562078,212.276248 102.562313,212.318962 C102.567789,213.314386 95.8834748,214.266228 94.2075423,214.66073 C92.5316097,215.055232 74.5262176,219.277839 71.5408307,219.621187 C68.5554437,219.964536 60.9932756,220.21762 58.0424752,220.912216 C55.0916747,221.606812 42.4215104,223.49444 41.8998006,223.987434 C37.6671828,224.604251 31.8817632,227.628283 29.7426758,226.766602 C27.6035884,225.90492 27.1546135,221.682054 27.5794622,221.216673 C28.004311,220.751291 30.9228427,220.429666 31.0736541,220.394166 C31.0907213,220.390148 31.2088803,220.421328 31.4281314,220.487703 C31.2439603,220.362583 31.0559398,220.233887 30.8649406,220.101864 C33.6780112,219.509064 30.8817408,213.954801 28.3847656,212.774966 C25.8877904,211.595131 24.8046473,212.52252 21.4043929,212.075121 C19.4962472,211.824051 8.0622461,213.63222 6.40869141,212.774966 C5.1156646,212.104621 13.2744521,208.735548 13.7029987,208.541859 C14.5755286,208.147505 23.3106072,208.649112 23.9099671,208.541859 C23.8863664,208.473145 23.9128546,208.426841 23.9952217,208.407452 C24.9037559,208.19359 29.3214278,207.495722 33.307558,205.896853 C37.2936881,204.297985 42.8847259,203.935417 44.119452,204.012377 C45.3541781,204.089337 50.0918662,204.392195 54.9522033,203.248108 C59.8125404,202.104021 76.8946682,198.516548 78.5759099,198.120796 C79.2457203,197.963128 79.8782589,197.913048 80.4735257,197.970558 C80.4815402,197.933142 80.4953329,197.902224 80.5148684,197.878288 C81.0508018,197.221617 90.9586236,196.036079 93.2648006,195.493222 C95.5709776,194.950365 99.5689004,189.599663 104.023896,188.073995 C108.478891,186.548328 114.674306,188.882928 116.569908,190.007374 C117.833643,190.757004 118.770338,191.569924 119.379993,192.446133 L120.467306,192.708266 C120.941536,192.822594 121.406019,193.008866 121.770621,193.224505 C122.51937,193.164981 123.46897,193.000492 123.958628,192.562045 C123.727588,191.981128 124.035323,191.592087 124.879002,191.393491 C126.6797,190.96962 126.202247,189.828489 126.950197,188.912756 C127.698148,187.997024 131.460015,187.36902 137.369156,188.823355 C143.278297,190.27769 148.234326,193.498164 150.640729,194.92561 C152.244998,195.87724 153.463035,196.40046 154.294839,196.49527 C153.669471,197.260858 153.119629,197.72409 152.645313,197.884964 C151.245329,198.359798 149.962869,198.462323 148.340348,198.308179 L148.46523,198.19991 C146.629843,199.761582 143.49021,200.298755 142.117425,200.40916 C140.744639,200.519566 138.808476,201.188062 137.127246,200.868787 C135.446016,200.549513 135.383078,199.924306 133.873055,199.028581 C132.985691,198.502209 131.114906,198.488412 128.260698,198.987193 C128.411042,199.208333 128.386214,199.399473 128.179708,199.516879 L127.507852,199.898851 C130.125678,202.025912 131.988731,203.33298 133.097012,203.820055 C134.759433,204.550667 146.696821,208.104437 146.696821,208.104437 C146.696821,208.104437 156.415227,211.452173 157.981784,211.544397 C160.536106,211.694772 168.987555,210.43048 170.135326,210.874505 C170.269683,210.926482 170.442018,211.005403 170.639693,211.104696 L170.555439,211.10836 C172.627883,211.026077 174.175114,210.864648 175.197132,210.624073 C176.730159,210.26321 177.555963,209.764831 179.634392,209.466664 C181.71282,209.168497 185.042404,209.729807 186.445267,210.077518 C187.380508,210.309325 187.784739,210.549109 187.657959,210.796871 Z M71.1574684,208.639003 L71.1266016,208.642437 C67.551158,209.065221 64.943387,209.346355 63.3032886,209.485839 C60.7583082,209.70228 56.9977127,209.792426 51.4960436,209.741704 C45.9943746,209.690983 36.9484421,211.580422 34.7627966,211.768616 C33.6450923,211.864855 33.2735311,212.223032 32.891897,212.480758 L32.9166802,212.491953 C33.7481732,213.211614 34.3635453,215.839868 34.7627966,220.376715 C36.7123781,219.845265 44.3011711,216.73881 45.5550706,216.265279 C49.9939866,214.588936 57.7619962,214.023314 60.6112803,213.74745 C63.4605644,213.471585 68.2052328,210.025619 69.0232897,209.833054 C69.2086733,209.789417 70.0148314,209.328061 71.1574684,208.639003 Z" id="Combined-Shape" fill="#1E1F2B" opacity="0.100000001"></path>
          <g id="Group-20">
            <path d="M34.3267171,23.2162096 C36.2065021,28.8645491 35.8705721,33.9783183 35.5165621,35.9490213 C35.1625522,37.9197243 35.5165621,41.7919897 34.3267171,43.2369115 C33.136872,44.6818333 32.0718344,43.4290013 29.9898033,43.4290013 C28.6017825,43.4290013 27.8157527,46.434886 27.6317139,52.4466553 C19.3542074,49.3351644 15.2154541,47.7794189 15.2154541,47.7794189 C15.2154541,47.7794189 16.4080322,44.7503416 15.2154541,41.8366699 C14.022876,38.9229982 32.446932,17.56787 34.3267171,23.2162096 Z" id="Path-52" fill="#FFCAAB"></path>
            <path d="M16.9614837,43.2369115 C14.8281505,42.2171199 13.7614839,40.6473283 13.7614839,38.5275368 C13.7614839,35.3478495 11.6755465,33.5195293 10.4446872,30.6224591 C9.21382793,27.725389 9.64234353,21.631444 14.3771089,17.2607412 C19.1118742,12.8900383 26.4122644,13.4880851 29.730233,13.4880851 C31.942212,13.4880851 33.2899984,13.0633456 33.7735921,12.2138665 C34.8026181,14.6359964 35.3580868,16.318288 35.4399982,17.2607412 C35.6932795,20.1749338 35.3171311,22.0552721 34.3267171,23.8501939 C32.5224317,27.1200902 30.3552329,30.2431623 30.9267173,34.3853495 C31.4982016,38.5275368 29.730233,38.9248024 29.730233,37.7681618 C29.730233,36.6115213 29.6595298,33.7154277 28.1560143,34.3853495 C26.6524988,35.0552713 24.1646083,36.4224588 23.4564052,39.3525367 C22.9842698,41.305922 20.819296,42.6007136 16.9614837,43.2369115 Z" id="Path-51" fill="#4F4139"></path>
            <path d="M2.75777363,202.531576 C2.75777363,202.531576 2.40582052,208.199792 2.75777363,210.374987 C3.10972673,212.550183 3.84332026,213.410807 7.64518229,213.410807 C11.4470443,213.410807 12.3269137,211.017175 15.2683198,210.374987 C18.2097258,209.7328 24.333163,208.33612 24.8046473,207.821863 L24.8046473,201.099284 C23.8679286,201.099284 19.9330403,200.831543 18.1043294,200.831543 C16.8851889,200.831543 15.1331708,200.469629 12.8482751,199.745801 C6.1212741,201.602984 2.75777363,202.531576 2.75777363,202.531576 Z" id="Path-58" fill="#E1E1E1"></path>
            <path d="M8.20015612,107.783001 C7.27928381,108.214251 6.81884766,109.41946 6.81884766,111.398626 C6.81884766,114.367376 6.09742187,143.607218 6.09742187,152.189639 C6.09742187,160.772061 3.73765638,166.11581 3.12593767,167.512685 C2.51421895,168.90956 0.927500299,176.750185 2.02671898,185.196669 C3.12593767,193.643153 2.55679708,200.715027 2.55679708,202.319324 C2.55679708,203.923621 10.6692966,203.912293 12.367734,202.319324 C14.0661714,200.726355 11.8247653,199.034558 12.367734,195.870496 C12.9107027,192.706434 13.3099214,177.244325 15.5493744,170.397451 C17.7888274,163.550576 19.1118742,158.604483 19.7485929,154.925967 C20.1730721,152.473624 20.7509366,148.389119 21.4821866,142.672452 L25.8841394,111.398626 L8.20015612,107.783001 Z" id="Path-56" fill="#23273E"></path>
            <path d="M25.2761317,218.9163 C25.2761317,219.182604 24.6681239,223.557509 25.2761317,225.086372 C25.8841394,226.615234 29.1293403,228 31.4011313,227.132213 C33.6729223,226.264426 35.1296467,224.048538 36.876131,223.598034 C38.6226152,223.147529 44.3517165,222.804479 46.4753491,221.161315 C48.5989818,219.518151 50.6171458,216.151745 50.2942942,214.987487 C49.9714427,213.823229 49.3737865,211.822644 47.9245678,211.822644 C46.4753491,211.822644 42.3439041,213.7203 40.4105058,213.7203 C39.1215735,213.7203 37.4834877,213.442891 35.4962482,212.888073 C28.6828372,216.729355 25.2761317,218.738764 25.2761317,218.9163 Z" id="Path-57" fill="#E1E1E1"></path>
            <path d="M64.4601137,22.8002916 C65.1349835,20.0050444 65.4724183,17.7050771 65.4724183,15.9003897 C65.4724183,13.1933586 64.966559,11.087304 65.2845277,7.8244136 C65.6024964,4.56152317 67.8407776,1.54863272 68.9689025,0.516210907 C69.7209858,-0.172070302 70.2783425,-0.172070302 70.6409727,0.516210907 C70.9929258,0.995117128 70.8022357,1.66009105 70.0689024,2.51113266 C69.3355691,3.36217428 68.9689025,4.94511689 68.9689025,7.2599605 C70.3918842,6.47415326 71.8042539,6.23912723 73.2060116,6.55488242 C75.3086482,7.02851521 75.935406,7.95449171 75.6220271,10.2919916 C75.3086482,12.6294914 75.5829503,16.131835 72.9914608,16.4048818 C71.935506,16.5161403 71.4648035,17.6315293 71.0542539,19.4584949 C70.8801505,20.2332639 70.6620563,21.6937781 70.3999714,23.8400376 L64.4601137,22.8002916 Z" id="Path-59" fill="#FFCAAB"></path>
            <path d="M13.7663806,111.931885 C13.7663806,112.929932 22.5669521,146.990421 22.5669521,148.434952 C22.5669521,149.879483 26.4427332,163.221279 25.7857019,167.411123 C25.1286707,171.600966 23.0271084,182.626356 24.0778895,191.81034 C24.7784103,197.932996 24.9884364,206.84862 24.7079676,218.557214 C29.4858319,219.204609 32.4992432,218.976615 33.7482015,217.873229 C35.6216389,216.218151 36.1122638,214.598229 35.4962482,212.888073 C34.8802327,211.177917 36.7021075,191.138075 36.7021075,185.927528 C36.7021075,180.716981 39.243123,170.617865 39.8411699,166.112151 C40.4392167,161.606436 40.4653886,129.845891 40.4653886,126.886516 C40.4653886,123.927141 41.4997635,113.448626 39.8411699,111.334173 C38.1825762,109.21972 13.7663806,110.933838 13.7663806,111.931885 Z" id="Path-55" fill="#313652"></path>
            <path d="M13.3591402,47.7224581 C11.6622653,46.6258436 9.94260393,46.0775363 8.20015612,46.0775363 C5.5864844,46.0775363 -0.725233977,48.9341768 0.0685159752,57.8173794 C0.862265928,66.700582 8.20015612,83.1576122 8.20015612,87.2298776 C8.20015612,91.302143 6.29199224,106.353711 7.17480469,108.430664 C8.05761713,110.507617 19.3771086,118.318548 30.1962486,115.227532 C41.0153885,112.136517 40.4353104,110.110736 40.4353104,107.783001 C40.4353104,105.455267 38.6333574,92.2564398 39.8485917,85.4173777 C41.063826,78.5783156 42.0532791,70.1720661 42.8485916,67.8451131 C43.643904,65.5181602 54.5564034,58.0017544 56.2296454,56.846481 C57.9028875,55.6912076 68.1160094,46.4273711 68.7919494,43.2369115 C69.4763243,40.0066382 70.6409727,30.564256 70.6409727,24.608397 C70.6409727,22.5103464 65.0948793,22.328319 63.9064028,22.8330065 C62.7179263,23.3376939 61.5112858,36.7160134 60.2605046,39.624607 C59.4934044,41.4084384 50.1157786,46.5595675 50.1157786,46.5595675 C50.1157786,46.5595675 39.5261078,54.0767546 37.6591387,54.6212858 C36.4144927,54.9843066 33.5096751,54.5539681 28.9446861,53.3302703 L13.3591402,47.7224581 Z" id="Path-54" fill="#00B3F2"></path>
            <path d="M13.3591402,47.7224581 L14.2212549,46.9065619 C14.7600529,46.3966493 15.5368279,46.2268513 16.239244,46.4654428 L27.2638099,50.2101851 C27.9240771,50.4344597 28.4198636,50.9864403 28.5722316,51.6669078 L28.9446861,53.3302703 L28.9446861,53.3302703 C23.7767177,52.3879526 20.424895,51.5479787 18.889218,50.8103485 C17.353541,50.0727184 15.5101817,49.0434216 13.3591402,47.7224581 Z" id="Path-53" fill="#6CD6FB"></path>
          </g>
        </g>
        <g id="Group-10" transform="translate(333.000000, 34.000000)">
          <ellipse id="Oval-Copy-6" fill="#C75321" transform="translate(50.814815, 49.000000) rotate(-30.000000) translate(-50.814815, -49.000000) " cx="50.8148148" cy="49" rx="31.7592593" ry="38.1111111"></ellipse>
          <ellipse id="Oval" fill="#FF6C2C" transform="translate(47.185185, 49.000000) rotate(-30.000000) translate(-47.185185, -49.000000) " cx="47.1851852" cy="49" rx="31.7592593" ry="38.1111111"></ellipse>
          <path d="M34.2870601,40.0941551 L42.8776932,40.635797 L42.2794964,45.6209829 C42.1782926,46.314647 41.8800841,46.8582108 41.385101,47.2514241 C40.8894668,47.6456555 40.2741235,47.8189366 39.5395326,47.7726204 L35.5481477,47.5209625 C34.6358158,47.4634397 33.8690888,47.677217 33.2491563,48.1631639 C32.6281113,48.6487758 32.2445809,49.3365536 32.0970699,50.2271974 C32.0179362,50.8968354 32.0917702,51.5387858 32.3188018,52.1527983 C32.5452965,52.7667771 32.8697672,53.3186232 33.2920208,53.8070008 C33.7141603,54.2964302 34.2240497,54.6971351 34.8220347,55.0096668 C35.419023,55.3226652 36.047338,55.4989006 36.706483,55.5404599 L39.13901,55.6938314 C39.5954445,55.7226098 39.995391,55.9294569 40.3397307,56.3131047 C40.6836492,56.6975202 40.8254711,57.1120858 40.7643154,57.5580697 L40.0528284,63.0611464 L37.3920841,62.8933857 C35.5674203,62.7783401 33.8308886,62.2751422 32.1830646,61.3840929 C30.5349721,60.4930267 29.1094964,59.3602312 27.9067132,57.9843875 C26.7035474,56.6095786 25.7969003,55.071835 25.1876159,53.3714744 C24.5777946,51.67108 24.3737386,49.9525826 24.5748724,48.2156812 L24.6449022,47.6579954 C24.7937152,46.4843972 25.1505617,45.3854746 25.7005717,44.4070201 C26.250066,43.4297248 26.9478639,42.6116385 27.7945024,41.952795 C28.6408724,41.2939346 29.6179465,40.7995278 30.7254561,40.4695579 C31.8324673,40.1398212 33.0195148,40.014236 34.2870601,40.0941551 Z M45.3708649,35.7330223 C45.4713405,35.0398419 45.7695875,34.4965452 46.2655288,34.102598 C46.7604347,33.7088503 47.3754323,33.5350179 48.1110972,33.5814018 L56.0557413,34.0823139 C57.8801366,34.1973425 59.6158628,34.7004897 61.2642238,35.5915728 C62.9117794,36.4826052 64.3373708,37.6162022 65.5405366,38.9910111 C66.7432812,40.3665876 67.6563721,41.9047376 68.2787739,43.6056604 C68.9012529,45.3071177 69.0985966,47.0251919 68.8723774,48.7597174 L68.8026547,49.3176873 C68.6477808,50.5073188 68.3023476,51.5914726 67.7657795,52.5698476 C67.2286359,53.5479215 66.5382466,54.3730941 65.693652,55.0442458 C64.848866,55.715915 63.8724497,56.2167176 62.7653999,56.546187 C61.6579674,56.8766914 60.4705356,57.0014581 59.2037958,56.9215898 L52.3237179,56.4877989 L52.9542915,51.4670574 C53.0586634,50.7990107 53.3584945,50.2685228 53.8543972,49.8743084 C54.3496488,49.481112 54.9646464,49.3072795 55.7000428,49.3536465 L57.9048896,49.4926627 C58.816953,49.5501686 59.5941781,49.3243443 60.2359893,48.8148888 C60.8784147,48.3060015 61.2495559,47.6171778 61.3502185,46.7484683 C61.4364167,46.1295816 61.3659035,45.5124639 61.1396773,44.8985021 C60.9126456,44.2844896 60.5882522,43.7331778 60.1658828,43.2439986 C59.7435906,42.7553539 59.2328135,42.3485034 58.6337428,42.0229296 C58.0342509,41.6981236 57.4051238,41.5144235 56.7465157,41.4728981 L52.4887879,41.2044471 L49.9060693,61.3958648 C49.8011604,62.0638776 49.501138,62.594883 49.005925,62.9883466 C48.5105207,63.3823277 47.907528,63.5563875 47.1981752,63.5116626 L41.9150808,63.178562 L45.3708649,35.7330223 Z" id="Shape-Copy-4" fill="#FFFFFF" fill-rule="nonzero"></path>
        </g>
        <path d="M568.366436,320.528955 L670.298362,332.878188 C672.383413,333.130796 673.917982,334.952989 673.812196,337.05062 L672.217542,368.670997 C672.106274,370.877332 670.227486,372.575719 668.02115,372.464451 C667.914303,372.459063 667.807715,372.44939 667.701642,372.435456 L566.570797,359.150589 C564.54102,358.883952 563.040183,357.127778 563.093111,355.081248 L563.886684,324.396504 C563.943798,322.188104 565.780361,320.444141 567.988761,320.501255 C568.11502,320.504521 568.241053,320.513764 568.366436,320.528955 Z" id="Rectangle" fill="#313652" opacity="0.900000036"></path>
        <g id="Path-12" transform="translate(570.000000, 327.000000)">
          <mask id="mask-16" fill="white">
            <use xlink:href="#path-15"></use>
          </mask>
          <use id="Mask" fill="#ECEFFF" opacity="0.400000006" transform="translate(14.000000, 16.000000) rotate(-21.000000) translate(-14.000000, -16.000000) " xlink:href="#path-15"></use>
          <path d="M5.34448242,22.4042969 C9.15169271,20.3059896 11.0552979,19.1476237 11.0552979,18.9291992 C11.0552979,18.8121386 11.2242035,18.3207933 10.8077393,17.692627 C10.0585772,16.5626421 8.5668457,14.7753958 8.96838379,12.4042969 C9.59313965,8.71508789 12.526123,8.10205078 14.8930664,8.97265625 C17.2600098,9.84326172 18.2254639,12.2991943 17.9451904,14.6580811 C17.8087012,15.8068259 17.0051139,16.8802091 16.4348145,17.9338379 C16.2945342,18.1930058 16.2046498,18.5845512 16.1651611,19.1084742 L23.8684082,25.28125 C20.8851725,29.1635742 19.0976562,31.1047363 18.5058594,31.1047363 C17.6181641,31.1047363 9.98657227,29.4624023 9.24072266,29.0183105 C8.74348958,28.7222493 7.44474284,26.5175781 5.34448242,22.4042969 Z" fill="#F7F7F7" mask="url(#mask-16)"></path>
        </g>
        <path d="M607.054848,337.260939 L656.945152,343.596361 C658.119642,343.745506 659,344.744729 659,345.92865 C659,346.936542 658.182942,347.7536 657.175051,347.7536 C657.098188,347.7536 657.021402,347.748744 656.945152,347.739061 L607.054848,341.403639 C605.880358,341.254494 605,340.255271 605,339.07135 C605,338.063458 605.817058,337.2464 606.824949,337.2464 C606.901812,337.2464 606.978598,337.251256 607.054848,337.260939 Z" id="Rectangle-Copy-36" fill="#FFFFFF" opacity="0.5"></path>
        <path d="M607.081861,347.270156 L639.918139,351.531211 C641.108886,351.68573 642,352.699952 642,353.900683 C642,354.919371 641.174191,355.74518 640.155503,355.74518 C640.076134,355.74518 639.996848,355.740058 639.918139,355.729844 L607.081861,351.468789 C605.891114,351.31427 605,350.300048 605,349.099317 C605,348.080629 605.825809,347.25482 606.844497,347.25482 C606.923866,347.25482 607.003152,347.259942 607.081861,347.270156 Z" id="Rectangle-Copy-35" fill="#FFFFFF" opacity="0.300000012"></path>
      </g>
    </g>
  </g>
</svg>
